<mxfile host="app.diagrams.net" modified="2024-07-18T16:29:51.640Z" agent="Mozilla/5.0 (Windows NT 10.0; Win64; x64) AppleWebKit/537.36 (KHTML, like Gecko) Chrome/126.0.0.0 Safari/537.36 Edg/126.0.0.0" etag="twd-gtaU2loDUNAsBTx-" version="24.7.1" type="github">
  <diagram name="Page-1" id="S-hv-YbNQX9_ioJxUFjk">
    <mxGraphModel dx="2772" dy="1586" grid="1" gridSize="10" guides="1" tooltips="1" connect="1" arrows="1" fold="1" page="1" pageScale="1" pageWidth="850" pageHeight="1100" math="0" shadow="0">
      <root>
        <mxCell id="0" />
        <mxCell id="1" parent="0" />
        <mxCell id="vmprMbfdOw0M2ss2T3Eb-13" value="" style="rounded=1;whiteSpace=wrap;html=1;fillColor=#dae8fc;strokeColor=#6c8ebf;" vertex="1" parent="1">
          <mxGeometry x="2260" y="890" width="320" height="540" as="geometry" />
        </mxCell>
        <mxCell id="vmprMbfdOw0M2ss2T3Eb-12" value="" style="rounded=1;whiteSpace=wrap;html=1;fillColor=#f8cecc;strokeColor=#b85450;" vertex="1" parent="1">
          <mxGeometry x="200" y="978" width="255" height="322" as="geometry" />
        </mxCell>
        <mxCell id="vmprMbfdOw0M2ss2T3Eb-65" style="edgeStyle=orthogonalEdgeStyle;rounded=0;orthogonalLoop=1;jettySize=auto;html=1;entryX=0;entryY=0.5;entryDx=0;entryDy=0;" edge="1" parent="1" source="vmprMbfdOw0M2ss2T3Eb-10" target="vmprMbfdOw0M2ss2T3Eb-13">
          <mxGeometry relative="1" as="geometry" />
        </mxCell>
        <mxCell id="vmprMbfdOw0M2ss2T3Eb-10" value="" style="rounded=1;whiteSpace=wrap;html=1;fillColor=#d5e8d4;strokeColor=#82b366;" vertex="1" parent="1">
          <mxGeometry x="680" y="790" width="1370" height="748" as="geometry" />
        </mxCell>
        <mxCell id="vmprMbfdOw0M2ss2T3Eb-2" value="" style="sketch=0;points=[[0,0,0],[0.25,0,0],[0.5,0,0],[0.75,0,0],[1,0,0],[0,1,0],[0.25,1,0],[0.5,1,0],[0.75,1,0],[1,1,0],[0,0.25,0],[0,0.5,0],[0,0.75,0],[1,0.25,0],[1,0.5,0],[1,0.75,0]];outlineConnect=0;fontColor=#232F3E;fillColor=#7AA116;strokeColor=#ffffff;dashed=0;verticalLabelPosition=bottom;verticalAlign=top;align=center;html=1;fontSize=12;fontStyle=0;aspect=fixed;shape=mxgraph.aws4.resourceIcon;resIcon=mxgraph.aws4.s3;" vertex="1" parent="1">
          <mxGeometry x="295" y="875" width="78" height="78" as="geometry" />
        </mxCell>
        <mxCell id="vmprMbfdOw0M2ss2T3Eb-4" value="&lt;h1&gt;Source Data&lt;/h1&gt;" style="text;html=1;align=center;verticalAlign=middle;resizable=0;points=[];autosize=1;strokeColor=none;fillColor=none;" vertex="1" parent="1">
          <mxGeometry x="240" y="998" width="160" height="70" as="geometry" />
        </mxCell>
        <mxCell id="vmprMbfdOw0M2ss2T3Eb-6" value="" style="shape=image;verticalLabelPosition=bottom;labelBackgroundColor=default;verticalAlign=top;aspect=fixed;imageAspect=0;image=data:image/png,iVBORw0KGgoAAAANSUhEUgAAAf0AAADtCAYAAAC1baynAAAAAXNSR0IArs4c6QAAAARnQU1BAACxjwv8YQUAAAAJcEhZcwAADsMAAA7DAcdvqGQAAP+lSURBVHhe7P0HwB3XXeaPP/fO3Po29WJJ7iV2nDi9kUoKCUkghLCE0MMCy8L2/lu2wLY/CywssMAuCYFlE0IIkJACpEJInNhJ7MRx3LstWV162+0z9/98zrxHulbkV4ptWZI9j3TemTtzyvd858x5vt8zZ85UxoZKlChRosRZhbFGK9uKclW9lbeVsAXNbCAlFWmwJB24U7f/1Xt14JpP6tx6VbXBQJ20JlWGTjn01nErmSpjxx+nIXSaY1W7fbWysVpJTb2sqsVqXeP1G9TavFXn/eB/kGa2qTNsq54kSrsuJ+v52BqNnD6pHqWWSsX5ljgjUF3ZlihRokSJswjQaGWlC+cvv5OVffh2nEDeudRb0P5bblBn5z1qVnL1Bz1V6yZ8mwiTCIRfpA6/G6qpnjaU1huq2EBIauQ3Un9+QYfuu087v3KtdHiv2vWKMifNmy2pPeM4Tm9DocSZieLqlihRokSJswxF9w3BVxwSB/YTczn7A3z+/qL04B3af/3farzrbq0xbw9M+lmt6tT25I8hfkBegf77Y1VGFQ1N4N08V+5M2zYWWtlQ6eF57bzmr7V0xw3OcFHD3MZAmmhca2g09Pnj5FvizEBJ+iVKlChxNgKPeiUEonaojk3k9u4Jw7yvfH635m/+orJ7btLabEmziQ0CJ+llfWcAMRfkXCEf00ElP0oJiQm/qkSZ/3ZGA/Wzkeo+PZtUtNbpkp23a+/1n7UxcZvSrCtyLHJ1pCpmQ4kzEUevcIkSJUqUOOsB3RJaWU/D/fdqz42fV6uzV+sbiSpZpmazrqG9fbvxJvtiRsBRwi8ogRGDtFpTg+H9NA3HR6ORvfi+kuHAoafN6ujA16/R4VuvVXN4UPXxIORUscfP/IASZyZK0i9RokSJsxGR3Ys/K4jeuz3x3rw699yi5Z13qpUUJNwZjNSoNe3FM2nPzL4CRgmOEn6xHYz6GuZM9KuY/GuqV2o2DMbKsqFM/5pOclUO7dSiSV8P3qb2YEGYB3la0XA8DHmUOPNQkn6JEiVKnIWApwm5OT/MwQNH+N/Ev+ce7b3letXzJbVaDS2Y8PvjYqpfi4gVx3E4SvjVI4QPhhpomNl7t4GQKlGTyXyJ09cSVRqJhqOeNrSr6t1zkw5d/7fSvvtUGS1Zplw9JhWUOCNRkn6JEiVKnIU44tOvkH4k/rGJnP1s1/3ae+8datdT1dpNLZu8mWhXcYJmeIWO1A+P1lRLqQkehEmCwaKohpn641pN3V5Pm+ZmNDy4Sw/eeJ0Ge3eqMug418xxinQlzjyUpF+iRIkSZyESLajjf7ytXzUTVwZDjSojDcc9VZY62nn/lzXdTDXuJ8p7FbWnaxqnHWVVe/BVJv+lDoWHH4EBEcO4P7LnXqwAkI2zwuvPR+F5fzLOlTeruvfQYU1t2Kp8cb8e/NwHlO75mtrjjpbUUMeGRTZ2HhrYAhkq6w9ku8MmQSgp/C3x+KMk/RIlSpQ4K8Frdyb7lV9a8a6rjNd3l9U9eNiGwEA1Itj7Z5h+7JDz+t1jsCZbPsy1YXaNUpeh+YPq7bxP/dtvk5aXtHYl/7xqmZCrajl5NGCEv49B+SUeGUrSL1GiRImzEgXdHyV93rqvKrE3Pprfq97uPUr7Q9VNuBA+wWxvvuWp+2NAuuNEU42mkl5Hs1lP9cN79OD1n5fuvk1TPiaN7NWPHVKNK2kg/UD4lmFC6hKPM0rSL1GiRImzETkkiq9fEHhWYc8edT5Qb98DShYW1ByPlJj0s6wYV6+ZfIu4YbMq4nyB4wafq9ZbWugsa+zy1k/XtLY+0uL9t+uB664Ok/qa4x50r57F67jsQPVVUrL3eFBPqMEq4cmJkvRLlChR4mzEmKVzzMCwuTfFSvzGqKfO7rvUHg3UNOEzsW+YmfwrVXv99rhtHEDcjxbjWkWHO0saN6rKa2NVk5Hq+YL23Xm9Ordfq2SwoJqGLk8aZJFkn7xke6agJP0SJUqUOBsxZsU8e/b25gF/WVhXQ5P+nvvUGmeqJWONKrxXn6mSrBgJDK+fxIp54Y0AtjHwezLkQxsPLrHZ1uFeX0vdjqZbVVWXHtSeG/82LP+rrKu604YP7oR3A22gOLeTGWk41eAxx6kMZypK0i9RokSJsxB5WAqHnYJg2IQlcEd99Q48aH5l9f2RST9TltpAqFZlOyCsrPdYLJPbyAearjWUm8HH1baG3lZHQ81Veurec6P2fPVa6dAeS2mpLNaYBXuYUGipHp+leyaH8o8XnpwoSb9EiRIlzmKMYXLjCI1lJvrOoobDblg9L3jVPO+vVMOz/RzSfwzQdoGNSqJhL9fU1Fo1G9MaLS9r2kZGdemA7r/lBmX79jAkEB5CFN5vQfpPXso9/ShJv0SJEiXOQrDcLe/L19JcvaqJPjER28vX/ffZCz+k2vq6BpWB41RVS+xvV3tSfaR6s6nKKNWo1teItfjtpdcr9WA81FO+w19Re7mqSjJwGYk6PscgfTVxOvP2KDNpJy11xjWNKL82Vq+3YO/d5N5se7+n6Uaic++7Wkuf/3Np733hy3+9nLn7qdKsr3Y2UOa0hMIIOBowDYqxi0eHfOw6O4zHSfjC8Dj3H+YWhEmNmXo2hPqu0NBGSs63AvgWgcNYrCfQdQ4VHopo5HhMksRwqjhexTqu9JZUyQnLzqvjcro2qjCwhtZDXz0f62TLGrFGAQ9eqOcoC8WT86LD6XoUUJJ+iRIlSpyFsENvZsPLr5pKmaTnXT6Ks7Sorj3uAg/fxacpT9uloUlsNBpozKgA6+qbhExhapvUm0rUTqpq1mwE2Mio8I1+E1c+OPEAfd8Md2DXXTpwyzUm+QUbHomW+ya4WtMZOJNTDSyUMI/AOLIIEcHGhw2BpivScEALNgvCaASV48lHmrq+OZ8IHinhi4TWD3oajHg0YWOnNmX91zQcVH3MRoGNqNxGTcW5JZWmDbEp51W8V4EZM/Z1qdio4uuHrr1a4czpwcO3iBIlSpQoccaCzjtwZw65jE1FRm9Ry4f3m5T5yO0KycX19OM2EKF9atsLeJmstJdU7LGb7MhvUE3VqZoKl0yGHZ/r90x6PQ2H9vwdn6/u1WNeq6BSq2tpz506cMOnpMP3qGEveTmv2fdNH5eJfA/hfMrD63fZbBlxEF8aHNpysnEyzsfe5METx+gJDyT6846zJNYXSmwEVNOGk9WU1xKN/Dupm9ybbTUabR+u21iw6eDy0CHzKypJIxgB1qxtjKrVb6OpyoeOrIHwaePTgxNfuRIlSpQoccaBZfGZv5/lVXNXphpj2N15c9UBe/1mHYj5CDl/Y1c/HNhUYNi6WlW9ngYyH9kDzqfnNNqw2URob9aebNXef9WGwcgkOciy8MldPr5zIlRY8793SNl912t4y+dsRBxUq+H8fS6v2JNeIeVvCKQNOTxahJKKXdc/vHHgvRgqNmwqqf3uxMTs/XHVfj+hUpe1qay9QaPGnPrjurq2DfhC4WDEA4hCmyNbCJk9+HzYV2U0CHpKzPipy8Gs0KjKwH6YtNizITV0yBhTcAasini6UJJ+iRIlSpyNMHlUWOI2qXlbsbdu1723oP7hfWqw5G34oh70efxu3s598a18TjsqRDTkG/rnXKDZpz5TwzXbNKi17cGmJvni9UCeJgRP1gR3IjBpsF3N1ezs1wPXflLDu7+imcpI/b6JEvf5VIMKBrA9SrK2kUIYJ6wUWJAyT95tA4XAc3xw2El67Fu3Letp1nbO9Lir5tI+1Q8/oHS0R8lgt6rdnaos3is5VNgf7Fc1X1LdOqo5D4yEgbdL1l3HRtjQRkUlbYcyTgcq48d7FkGJEiVKlHj0MHmO7BpX6rUwnFwbL0u3fF63vO831Nh9k5qtKfX6HXvmjEozc3/oDt+eOx6nCbnK9/FrFfUHHU3bK+8sD7TcWK9tr/hONS97ph748Ce0dO91mh08oLl2VctZon6eqlGtmszs+ScFOUYcSyWZjZCG5RubWfdlLe14yZu19tVvU7+5WZXpNaoxlm6Ed/gnEX8fc/ibRXgxcGWkA9nCEL9Nl6P0bxktsp33MOKRVvn6IMWSbqRh1nA97auPrFcbU5rfq9G+B7Swf5c6C4d09667HC+zZ19Rw9eg5TqtWb9ZsxvOUWt2rarbr5Sa01KjrWVbVT2eaVgeFkxiHkHKsMYKvkEHpxAl6ZcoUaLE2YheXyMTuOqJSTxXY7wkXfcxXfeH/1PrOg+aa2ZWSN+EZnKH6OGZSPopswAaVS12FjTbbKrbGWlpZocu+u63q/XMl2nv335O93/uz9S4/4va0oAKa2EWf8MGRJItm9TDIPYRHEslvJtPWXZrtdRz6o07tP1lb1bynNerP7fdnvCpJf0wacEUD9nHDwyxmBDgb13M1Oc5f2XlHwTftzs+b90u2j132LdHh+69U4fuv0t9k322dECZDYAxbyDMNmwbDMMQPyseDnNfh3RalcaMw5Que9l3amrzNiXbL1Q+t1k9e/d5Xlc6TsKnilP+rODxJP3kPxor+yVKlChR4mwBbFY10ZhcB/2+GnlHvXtu1K6vfE5rk5G5thEW4gnka68cUoZaKpVq4fmOYJ6KesOe2s1iHvugvUHrnvESE9Vlmj5nizq77tBoz52aGg+dJgmT8Ko8tGahnRM8HWbOQX9k+ZxvK61qfs8uDZOqZq94vpbSDfZ4C9I7ZaQfqN0BcSH7SvFCIJ8AwhioZgs2fvom8IEV2NFoYZ8W779Du265Xvfe+GUd/tQfaPdX/laLt31Zyd47NNvbq3Wa19pKR3P23Ru9/ZrLu1pX6Wl9NddcNVM7txazoeqDrm6941b1bTw02001Z2eUMuHPBlDd14xXLY/U0yg9/RIlSpQosTrG9lTNFV334M18rGp/Wfe959fVvf5D2pTvUb86HWiPdfaLoW3mpDueCacCxZuIDwzammm0VF+8X30bCfNPebXO+55/omTbJTqc7dPa+2/Trvf/rrLbrla71VU3413+NUrytkbVBajTOZK5vX/nWzWdsCX0fKxnwh9X65qqZcqHS5qvzWruhd+j7a9/u7LWtJa7I+c7q7FJsgYZp6kGQxOiPWWeWVSZ8Y7oK6A+kbFqlZV5BRzImIHvenEOK8eGSdZdmTVfM9Gt2CepTPKjw47fU2W+Ky3sVX/X3Vp64GYt7r5L3QO7NeguWdaRNoYn/Q+PhJEVDJ8wdyL11vsT8wiqlYb2+1x27mV62nf8iCo7nilNbXK1LHfeVyVZsxL38SX9FVWUKFGiRImzDZAuE/DCqnzM3O/Nm/9MVmHoGG8SEophhS0D+Bb/2ASUBY7E6xw41NtTqtvrJ347mVVteoM2XnqFxrPr1bV1MZ02VeHVPZ5zk4uzhK4mHk8fQcN5N0zIpl7WvVGSVZT2Bhruvl+jm68L78Y30poGfPaXRwW1ljNKzZ3FJL/q2MSc9yyKt+OByxk6DbPjixny88t9LfczH02VMQu/3tbY3nTufZ7HJ62q0nqumr35tHNY6b47ld92jbrXfEKHPvVn+tpv/Dt9/Xd/UXf/+bt06POfVOWOWzQzv6BNlvOcxLKcADZvisDICb8tU7HlkUJeLHecDdTdt0d3Xv9FC3xAfBeh4jTV0ziRryT9EiVKlDgrwdpxmf/xmR17j4v7NOjsN5F3TXw+jSf8kBDJH+/URGWm5mM9fO6WRwRDk21zzXolU9P2mkdqyMQ3u0ntq56rxN7qoDIdjiUs5FMxGa8A4g92A55uYD5IsCpTrw0Hk76Jv2JPvGoyrQ96yh64Q/uu/ZjGnUU1arVAgrw2xzf3xeTCBDPBvjOH7ekT8IQZlB7Y4FjqdbTQWVDTcqaNZnj9z3aDMge+PURVE2boLd2v4c4bdeCGT+v+T/+x7v3o7+veD7xTu/78Hdr7oXdp7d5rtObAdZpbuE1zvV2aGs2rPuwocRlywG5aLfDtg2B0ESxDbv1OBoynuUZN9eVD2n3jlzQ6uFOsd5BbPwNr8nShJP0SJUqUOAvBE+qwiIzJsZLY413YZaf4gAmyrxGs5LMh4GZD+GyPoCDR4vn2iFfK1ben3dqwxS56y+ecs6OP62ulbZdq7mkvUG3jxep0i3RJ6pO8MnBMYKY+pWbejm0NVMP387OwXC9f+WvAOPMPaPnWL+jg7TeaXDtq8haAj5urtTywPDY+yG7BTL4wzLToojq5iX1cV7XWVKM5rVZ7WtlwWeP+or34g2r09iqdv0fVB2/U8NbPaOm6vzDB/2/dYYK/6yPv0v2ffK/2X/MR9e+4Ro0D92htf58q7aGqU5aRJwnT0qBd0aA1VqeWq5Mi9+ooPHwmAq54+myxeaxrDKrcxgoz9deMTfEL+7S08y4X1Hf1arx4cdpQTuQrUaJEibMRdmtHlcRUk6quZfVv+5IWbrtWSf+QPejUpI01YCJm7D2Mv9tjZtdWQnjrvjJQb8TrZqn69mx705u16XnfrtqWi5SFV9Ua4et8ebWqaXvVo4UF7b/nXqfuqVrnkYKZ2iSHh8+T9+rKFoTv9aeZ8jTVMC/W2E+8z8h9ntnbHyzqkKa0ecNGVabWaWwihO/5GFCjZvl4RJG2AkHWqikD4oWHnWdhNTtGG2qjQ0oX92i8+w71bnfdv/Y32nfNR7Xz6g9q1xc+rNp9X1N1791qL+/XTLasKRtDzXSseq2itJHqoFxmbgLmuXu+sk4/uqkwskBZqxM/pF/EjVvrwgou9sfWrff7XdWof9JUt7VG6698jo2qWZtZlbACYgRpHi+UpF+iRIkSZyFYyz2r1KBvE+GiFr/yGfXv/bqa2cBetolyFMb4J0if4XxiQ/qQjI0G7yeJST8babz+Am154RuluW2OCuGZBO2F9+1lN6ZnA/Husrc6NmHX8mFBbnZtmR1QDevOh+JM+JRpzx2bg2f0Jmom2aUYIglePGvQZ1rudDTVaquxbquS6bU+XikIuYJUmUaDvus1VMNpE9ep2ptXZX63tPdODXbdpp1/86fa+9WrtetLn9K+Gz6r3l3XBS9+w+iAzkm6atkwmLUM0zZcGiZ79MCKgh3XrZON1a5vUr3SVD3jNbpUtcxEPMpVG469tczHrEPwDbBH75oGXaKH4l+havZGaeJ8hmpW6hrWprQwtV7nXPUCqTnnWDZiQiYFStIvUaJEiRKrw8SbV3n+PVZqb/bAtZ+QHrzTXr/pPEuU5uwVBFyQfiSnFdI38Y7tgXKub9c83XaFNjz/9Ro2ZsKCPqMKs9erJmzTU7WuZKatwXAxvK+eLi05Tm7yJs9A+5YCz7+gQTD0cdboh7hTPH0bAAzbZ/6TMNQ/WNBSb6D2hu1K120Ja/UzSY+Z9cOlw2okPSWdg9Ke+zS+82ta+tpntf/av9R9n/2A7r36Qxrec4OyPXeqtrBHU5ZrKu+rEda1H4Y5Cb1qKzwy6Nno6I9s4PCc3/Klac3GRV3jJdbedwzHxYBiWl7gXsjcW14vRHcPFxLn7k2oP/oM+9ZBCI4wbNrYyMzx1bYO5w3VL36a1rPSYdq0OeU4FZ51FHg8Sf9oqSVKlChR4iwCU8hMQDxF73XVX1pUZciq8aYvZvLxrprpJbxSZmL6RpiQq8Q14XibhtXjpuUsAoWNq3xdzp52taIuXNxery1Pe4aqM+t8lm/FPRQrr92vkKIJc1hT1XnzOmGTYXkT73iYhzVzTL1aU1nWgbtv0v57b1dukq+MmKk/1PLB/Tq0f7cOfPYvdM/H/1Rf/bPf0zXvf4du+6t3a+mrH9P6A1/XpeNd2pF2tc2GwaZ0GL7hz/B/ZgPFPr66lWl1Z9epMz2nfnNKWaOlWr0R3hZouC61QaZqo6uk2VO1OVLeztVrjrVcH2kxHelwdfXX9QCzFyrMVQhb/4b8QygMocXlBXX7fKa3osVOX+s3bQ6GDV80rGLcnCaU7+mXKFGixNmIfmYywz+dV3rP9br7nb+k+n03Kp1taL85fjZrmZDwYPFIi5ljTDzDLODZdatm9u3Oq2FCvK+yVhtf/YPa+JK3OOFmBVao9MJHZcyMLspMPhxpJulq8Wt/o89+4Pd0yfwDJrFES4uHtMGEOp3nGvSXVFnb0KGsozSnfJ6NQzQEfOAJmOQ747qSDedq/QWXqzY7q/lDe3V4730adhaU9A7Za5fqTl+38UA+gDcNcMXjioAYGRFhLsEK6ixLbJAMI+QIVgygJnMeDKrK5DtW68vCxMMiT4i7wErBSB/eyWdb1UKL5/VVNaxaHg1gdPAIAVUhx0Le07apaS0d7uu+dKOe8gP/VGte9EYdmLcBMDOrERMdnVvQTdAUP5yHN5Q4Ofz/WCLWqkSJEiVKnE0w4QbCykfqzx/UaNBVyntuJmqWen1Y4GVCTlkWZtvzZT08/fbsGlVSXkNzns44N+3wuVjGC5iF3oBjk0QzW3bogqc9X33W6+/3NVtv2oO3h9xbUl5P1B+M1HQqFgGKRB3YzHRTvOJGGanajbrq9tD7h3Zp161f0r3XfU57bv2Kevt2qgrpOy0ExYA5gIhD8D6kGjxsAt62AxJTZgyB3B2q4zQQ+JHgmATyIED0bCeNh4CHHCjyFx81woCqjDQ9SNQc2pBxYqJC4kMXObLgI+e5Lqx3UFW/UtfWC5+qNVvOtezWY8v6yk7f9P2S9EuUKFHibIR7b9OLEpP3/L69GvaWw0z8sUm/zvvugWIKYouEyfvjxZA0a8Vn4dW6kTNicZvp9ZtsSNQDqeJ9Dse1YBQwWpCO+8r5Bjxr6W/YoW3PeqmG69erZ7d7qmqKt5XQNyEO20lYh75uMqybH8M7/GToMopX24oZ8oThkNX8M7WzjhoLu1U9eLfqS3vUHi6rPR6uvA/PUDnpi3oELzrhjQJyRHLmwRehypoDE7/D443wiINRgiJEeQhDEzOBPDMfIP+IWOZDEF55hPB5PpGpNUhdR2YzINdYtgEC2WMegIavw+JCT0vVWW249FnS+h3qDW1A1fl0L7MNTg9K0i9RokSJsxCBNky2fMe9e3CPOWnZzv/Ynr/9aJPzEeIycRYe9gp8ovCMfcoe/gBPuDUrrd1slmXyn4nBcYrkpgjIlFVvnO8Itq3PqrntMs1c8nSlsxtZxyZ8orc6xSx1550mqvRsKLiI4K1jbRhsMEMK8q+qO6oqqdY006hprYtd57ChmYTfjSQNhkRYo96SM/wOU/PufzEUj/FCPWJuRSgMnSKwYA7yV3LLFjx+qo4RUciTQ/Qhv6Ku38jzE/RI+WgQ4g+BBYqKkYvMWx45IBcpqDcT+Ji/sIBhsP0pmjr/SuttjcsoHklUahN5P844fSWXKFGiRIlHDL79Hl6U6w+UzR8yqdkMqAzFF+WYKX98QF4r3qrBN+UHjlufs5c/tcYkWA8z7M2MYQZ7wnf5gffr9lB5W2DAgH9zjbY+44WavfhKHbAgrP/Pu+8Dy8JkOdzmxAYC3vokIFlkwAxJ2rPK6y2NTMjd/kiDIV+r42uAlbD+vp1mxDgCJF/h6wIQcSTj44QcL94hGAwBBfEXcEYx/WQIlBjD6ujxOqPVjHcPIPuaDZnGKFFrmGhZLWXrztGW57xMOvcy67oVvlCIeZH5Gp0ulKRfokSJEmchcvM2785r8bCGC/vVSjMNx3zIBVph2BkyKggp+MFxMpvJjWHxQDv29IeVmuY2nuPMTFL4yOEEi/s6HVPtOeC01aROaWQWjrXPf442XvFc9ddv1CKHRk7dd/mcbzKsPglImOH4gY0JJhby1b6xhrYwejYOBnwRkE/PVuo2AnyWNXXJCOPDhdousPyh4BAwRaJ/XyyBW4R4jDCqZib9zOWytn+hixgHDVRzDIuVxx1FUceg0F0AAjiNxmb5EOqWuRh1SFyP1PnwOIPHEZwfuh4HqjOqnnu5Zq54ljS73nL4vLOssCZCqMHpATUpUaJEiRJnGcKHckwig30HNFhcCJ+yHbGSnncGJlNIDM82vD4HFxHslRZf2WMSH8PbPmfCXbd5hyMzs99ZBlffGROPTLyFg7MVuqiMhvZoB46/XjMXPlUbn/FsDaZaLnysWQiv21MWZv3hlhOKIXRyKN4m6Ieg4aLyUTcIWW9OqdaeVpV39auV8CleUjDcwDbsr4DRDepVjBccHdAvFgU6GrKk5/oNgrExrkD8xTA+w/GQf831IhRzB9BLkT+YLO8IIHuG58MrkKyDwMd8cjVHuVoOePrk3U0TLdYbSrZfqo3PeoEGNqiWbVz5FMq1/FVX61ij6PFDSfolSpQocRaiGCnO1V2YV9ZZCh+oGfHs3UTOsrcPBeT7UPB1PjzYSsLw/pyj8A27eFyqO0lIldRMksWbAvwulo/N1Bs47botOufKK1WbW2M6rGq23lK/29GIyXaOR5owQS4On1eKSXaJ5ZyumzDxwnPnNRyp0+ur1++4SsOwXC44YqyEMl01k3nY+vTkuXiesmI46uWPHKjZUUD6jMoTIuGvZHEUD3H9UbZDeCui8PaZqNfIxivbIvrI+S7VUh1uVLT9ac/Sxme/SKzAx1v/YR5Fr+O0Lh/r6jShJP0SJUqUOA2AUmI4guMcxCNnmD0MtfM8fiVUZQJJD2lxuE+N5aGmek2lzbUadJZ1vgk0yRMTGs/VWTK3W4Tgy0NeDa1ttbRncVmLs+ulLdvUc5lQ2lTdf82aYdW48MJeQ7XEHjgpkcVGwjhtK01N3yxj+5QXa/0zX6sHtVaHhxVtmJu1PAvqNVgVb6gseLcN1fOWmdgGRO6Qpuq6GgyzY0TU876a+UgNyNgyD/omyfbA9sbQRL8yKRBiZT37vNAHIwos1Vtxulrd5xt42j11taxutSst9TSb1jRrI6gxWlarsuyyDrtO+9VqLmhndZMOWOZBddbGQU198q2mSqvTqg6mfezofACMgjAh0WQ/tu5srqjRy1RNch3OD7m8eRsxFS0c6ulQslY7XvsDWvPa71XWYMldvqmXqZtU1eUbBlZ/w4ZIaknQcFiND4tjxepgw3U4VShJv0SJEiXOYIQ17u1pE6DPOKwdFrcf5FrctVeZvet+vxue1Oethpabpmi7nsHDjV5u8WDcO2yryvm2u+O0ptr2RltHJu1N2BurIrM332PIuzajtRc8XesufY6Wa2u0f5Fn6Q2TpKUkEDm4tpYjuuROB9HmVdfHRM9bBOPqCgFy2pvqqGnbpmnPv67M8UeVVEN70VmjpqzdVG22rUrdBsKor+7iYQ0OH1TNBs+60Ujn8JGgRqq+DYP5zkAH8qaNklk9WNusPe1ztbO5XZe//DWau/ApyprTrgv6yjUaLlnUJdVSPPJCTwVWtkGX6NRGh715Hli0G7M2hOZ0fy9Rd8N2bXvWy7ThqpeEOpKuOrlmgvUdHpmQx2lCrFGJEiVKlDiDwKI7ccFU/ha0WQlr2g+CJ27Xtpuot2u32qb7zN4y75yPag0ddOwxr5aFVIFr+BuIiIVxeOY9Gi6H1+um1tnTb7XtVUNSkY5WyPkE6DvysNJW/cJnaMszXqHB2gtNsDUNeYXPRM/QOW/m84S+eL3OIpi8w9P9at2cahfdpB983mDcHA2DRccdVFVTXfVaM8g3yocm8Xntnd+rpe4hDV3nerOm6ZkZzU7NqO78Rp2RlvfPq5c1NW+jYXFqm8Y7nqXkyldq/cveqqd8zz/R07//X6t+6RWqrFmvLl/Yy6pKLIfygQ2MJRsyTEi0HA7h64HWHyEYMisTEbsN67zq+lWmtTxq68F0rWpPe6G2vOi10tqLnaDueLwC6Xz8l7oXD0kYQQgX5LSgXIa3RIkSJU4B7Gev7J0Yx6VYhtK9wcMvqKII0Di9dnhFbO89+tKv/AttW7xNjdFBjaaa6lQdTHzreGd/xdMPHr/Ji0l9FT6gYwpKunu0p7VF27/th7X+1d9nj3ejTYe6iQmyywsSPAaTdMHEuUW+hGeCn7aXrl336L5P/JH2XvdRrRkf0AyT9IgXCJ06kF9R07F/jxIWEOIsz9RtBoQJhAUwbkZ9nv8Xz9thXL7Nj2cf3kZMIWJTr+2a7mAcFgnKIGcbB81mKxgJ6dZzVZvdqDUXPFWNrSbhqTXS3DobOA3lnUUtffr/atcNX1V2/91aVx3Zux/ZiOkpt974DHA+NGlbD0HqlXozAsF8AX51W0uaHtgY6bW1vzqrwWXPsi6/Sxue8nz1+jU1+bSwa8AoBhP8APU5Olbzjd8veDxQkn6JEiVKnAI8atI3Yvds39AB8iRmEbtnkmzdcrWu+43/T+dX9tkrXlJSb5kY21rsDU3GePoFaRYT2fC3C+KF/NPOHu2fu0gXvfkfqP2816qfTPtUYs+VtfnDdLVvwCRdVPJuGJ7nK3atpK1Kt6vuDZ/Rrqvfq8O3fVZbKybyIC+6WCE95x/kN0EP6y6B0QCbMXy7nph8XjcQpeWr8TzfxYUFelxXJhgSRk4z8rFRdVoDy9qrzWjQXqd0wzbNbT1f687Zoem5NaqtPzd8QEhrt9g6mnYW1oW9dC3s0X23fV2dD/2i8n0HNd3raaZuo8Ti9C0en8TNXCRf68MhP7rWgHesx8wB8h+1uqp26xr01yi94Fna+Oo3aeqZL9LQBkC/J03XqEdR97ANumAuBhlyNUvSL1GiRIknDEwPK3snRhzthRaOYIUwIbqx86Kr5lC1avIPMRekz39Mt7/7f2hDuqSuSTfJm5pqTqlrQu6bMU07IY+C+ANtBQJiv9Fb0oENT9Wl3/8vVLvsReqYiJlUlyZNe83eUsQxmKSLce+gqvaaiZurrZrTa9+9WvziB/S1T71b2/vzQd6KC49rzad208PcBNcpS3jezap7EKHr6H0eBoyC0eEjac96KYwF3mvPchsK40TDPDF1VjS99SK112/R1LaL1HSobT5PybrN4VEF6w8ob4dVC5dM4JD4TJKrMTig7LYv6u7rPydd88dh5v1ctRZ02hnbmKjX7OnXNRzmqms56A0ZCinQG4RfjJwMnd/SyGWtv0znvuSNmn3Ba2wIzKkzqPgaTKtKoYBRECNOCozXhAc0pwMl6ZcoUaLEKcDoBOurRyIBkV8nH/WOA/nZcGDWvkmS583s4ykGA2DxVo0/8REd+twHlTZGOjS0KbBswmkkGtS69ogbIT8CpAp1FivUmQRNQC2T0/7NT9dTf/Q/Kj/3SvVZM9/HWRp3lFXDK4DHYpIuhsNF1etIYwKUPWqTcn1kcr/3Gt308T9Q/abPOg8MDxssWT8s7cunfHlGno/IB2+XNfMDxfsf3wN02a43XwLsJiZ3iz2CwFuzathjn956gWa3nqfW3Hq1zj1fas/53Jrgyctyx7UEWK8g6znPesMefMU5O6oNId32BT3wqT/Snq9+TlubLpHX7UzKrGK4OOqHtwrqPHYYWuZkEGQNpL9ifEySfj+fVXf9ds09/zXa9qLXqzK7XZ2ezZOadVdLbcxMXExw7KhH+Pv4Y7LdlShRokSJMwTFE/0CkGIY+M6GygYm9P6SFm/5ig7efL3SpQVlJuy8VlPf3vPA8Ya83wZRBbKK2wJhqB/yMrmpxsz92ZB7tWqigpgKPj4xai3/MTGbOCHbjtOMmQy4/WJtecqzbFjwSl/q8iy5s4VYyTi8r+5tNR9aDJO+twS+pc+reMUQv+MmGzS76RJdeNXL9IxXf6+ufNOP6vzX/6DWveS7lT7rdeqdc7n6ay5Qr7FRC9WWPXqXRbI8U8N5tesjTaWWzOXx6KO/8w49+JWrtXTHV7Sxf0CV+pQG48Rkn2m5mmmY8u5D17IsOX3HOmKkpnhEcgQTekyqGzW7/XJtfd5LNVizXQtZQ7VaU420rqVu8Vnfb8TR9KcLpadfokSJEo8AXVMd77IffVJu0J3CPA7ZoCbeBBvX8ayhD55H90yszPjmk7UmBr7UUm2YHBs65HxY1z7M9zbfTNs9ZQA4tUet5d3SvrvVue8WHbz7Zi3uf1C1PbeH582sCsekvuBzO2/K4h3zqrOujC3hKOSCdD7PjPOBg8ks36jxC+2lvu7tqk9fEMg+c7SBvfLWuBGTPCzG6rma1LyIGJ5VZx2NR8vKRj0tffS9uuUz79aa7q06b8us9nWrWrJOZmxoVBYX1GQgxIbDsD6r5WRa3SbP4Xdo7Y6LtGbjVqVXPk9Jw3HbM2GN/vAxoBXdUupyUjE5D8IKfpAxa/ZX7alXqKONoryxRp3OQHNtn9//de380O9oz5c+oWkbGmnStt5aYWyB1QGZjc9CAMNK1QZT1dcj0TqXs7dnw6TV0rpaRbXD+zTujdSrb9B8Mqf8NT+pi656phoXXKLcBhRpWG0vzEHgcUZ6ep7Znwgl6ZcoUaLEIwB+oBko/Ds685zh4GJvnDBPO1en3/P5ito1e4IwMefNCz072mN77sySZ3L30P8gziYROl2z2mH1D+3TwgN3a9Fean/fvRoc3qXR4t7g7a+rF2RfhIIIvRvsCIagWThmzAI9GQvsFMQ8qtibZsGcsDTtFtVf/kZtedUPmk+3m6xdbnOsvkmxielBhqtgkvSLZWbGrmdf42FHedZT98a/1d2fer+aD3xJGxoVHRokOqy2qs1m+Pb/YGq9ZtZu0NyWHZrafJ5q67aqsd5hwzZbPLPSgomzbtlN+OPEhhFmFfMbbORg7IxZ6tcGShooLFF3XFMlrYa5CMhx2MqYS2uqLjygfZ//kA58/s9V33eXWtXEtlktvP/PfIJA+kzwq45XSJ9XChNNj62nRlPznY6mbEhs8PXbd3BZB9N12nDlC7TujT+lqW3nhTUO+tbz0GIkNkTSLHMbsGGRTgc9nWkoSb9EiRIlHhFM6UxIW+lBWc42AvLNhwuqhSFws9AK6TKyzkq5doTVMa9B2OHb8dW+zPDS0j579HvU3bNbD379yyb4JQ1N/Fo4ZDJZttHQV7VucjWhhyF5vmTnPMinQCV4+jy3ryQDl+dyxzxHZ5gduSD9YmnaQeMirX3dW7ThJd+jLF+nCq/ITZv0HKvOVHbEXgWQfvHhGEi/mFrI2gI8ghiPGLo/qPs+8QEd+txfSAf2KavNqrr1fM1ceK5a66aVb71CUzOzmlm3QencemczFdauw/SBdGeHrMtvgg4kvDIrAQ/aOmfIPq2z1gALDNm4qrbUdRpskOLN+LGNhGVNj7ra98VP6YGPvU/NXTdqA8/pq6mG1bqdcfxyTAlytxFURXdMJCwWDKr05pVOm9D7NixcZrs+rX25jY/znqFLX/VGNZ/2KsvXCDroMvnAchZPR3iPX2qxjsIZiJL0S5QoUeKRwMQGUfCaG709nn8ReBqfqb48VK3VNDFU1BmZZHOTiz1XqAZMjTsm84PS4n5vd2lx9x1a2HmnFu69S4s7d9ojNQXaq205tCEzh3EtV4/nz1XT98oyu94NE814bz3MzHf+bKsVVnynLBIy6kBXb+lI4F+Lc1dq+5veptlnvd5VmVJ1hfSpQwp7wlyrIB+ztC9L7xDw9Q0XUWHSoWXOa5m6996k3u1fU7K8qObcRlXsySdr1iidtRc8vT3oJsjHUId3h04Kf2JINZn17/OFsVKIUxmz4A9bHl/0NBzaYEqbGlXbLEocagjpp2G0Yr8OXvd57fzMh1W58zptyA6rVsmsP14XbCkdMDqC5IUREd6nx3BwfTLHqfYPWw7rv2Wit/F0aJAqvegZOudVb9bsVc9XJ1lvWRyfbw85Xb1R6K5vY4jfTTHCcuahJP0SJUqUeCQwiUfSYnR/aLJjxTg+KqOkokHWdtdvujIB1cwMTTx0lm/tHNbiwmGte+Dr5vp7dOjeO3Vw1x1aPLhLTcdb32ioTbKmDYQsU8oX3GATY5BAWvZizZH1lUV2wuz8MMyOLBBkoF8lfGEu7CNf0c2HEQAfZcLc/PYX68K3/LDqF32LxsOGzNEaN0cF6a+MTKyGcd531uRPLVfKpJiVwJf+6qn1MVjwCVcobfuEiRDhncYsa2GL0RKGQKosAxy/328MLOtKtWEq/2F+PwsHUSPKWrK+nc759kz1PY45MKieMGpy+9W6+eN/rv4d12lHra9ktBRm6I9M4n3W5GfmocuNj2OKBYSoS7GG4IwGYT2AgQ26w8OaRusv0vaXvEFrX/RqDeY2+JwNByuU6REpLj5VykbqZi6ryXqJpadfokSJEk8YQJyBKNyDhl7URkDFDECArg6afvjQypS6kole+x/QwF78vntv0+E9D2r5rqvDR2bm7MKzVP4gs+fsfGqQ+cDk0WBFOBsKPhaIiWFnGxPjBE++ogbL0ZmceJf8KKD0AviddO/FM/7iGL8jyfWe/iad/11vU7bhabZY0mKpmNrIVAfpMx6xkuhhcDzSD7KyDb+sBe/YH1fPcXkXPs2rrl9DTYwijCOjiH/U6w5GAApNprAd/NvUz3MRo6irY9r9ryUDn3f9KqnLqGnoaNOJDazOXuV779OBD/++dt3yZc0ND2vjbFOHl5bVcfzG3LT6o66melFTzp6RkmAyFKMlGCQtZ5jOTunexa4W2lt0+SvfpjUveI00s0GDek21CisKGmSDXP6RDQfWemavH8IvdHKmoST9EiVKlHgEGMqkhSsKAdHB447n9jezZXuzJnp7otmhQ+o/uFO9nfdq6e7b1Nl5d5ig13D0xqyZvrNsT945ZR11RgNV6y1NNWftt9a0MHA+ELwDhB8Im2Hzkcvx/ym+OR9YBxTdOEPhgOFqiJOjcWIf55hQGI2I6qt+Uud8+5u1WL9QFVaQszi5iRQPO7XhwTv1q2HMugFhpKMwNKBsSmTUgcmJw6xn2RlsZ7Abs8D6svfPZ3pzE3Xf5zEEqo7LuAI58c6/Mw7EX0/aoc7ME3DCEBfTINgEyMcoQnisUg2rEzJjfmo4r/49X9HOGz6v4Rc+Yo//sNoJk/Tq9vITJWlDMzUn6y1qhBLCCEkBpJxE3rVBMTOlA+05ta98uS79th+S1l2g/iBTre601mU1pWbFCoHUY5yNQ93ZLyyCMw8l6ZcoUaLEI8DQnX02ysPrdXWTHzO2884BzR/cqYWFvVr31c9pz677tbBnl9JhR62xmTXvOm6uZivV3k5dDRPVTFjMZawO6U2IlUpdeT9XOrYnbWIfOeDhQ6Z1E03d5dXM9oOxycyIK73lwYU3+bDhmOOyy4I8gfjd1XMueLXeTr35X2vtt75Bh7RJSaeiWfPzyOw/MPfVstSe9OpD/GHSHvl6HwnwcPnBEDwE2qt0w3pC7UozlKmh629PXM2Glnx+msmCIR8Sm+hdf/ztCqMHYQTBgPBRcBg+55iFc14QP/FT68ZnQ6gyk//w/Xrw2r/Q1z75AV043KO2lTXoLKkztJEwvVmNSktNG13To2XNY3kFFNvwoZ+oPyOvtLXbBtnMs16kC1//w9K252shZ+GecRi9YbJfWrfx4krj32O6wPPVYa4W3/o9Q1GSfokSJZ6gwEPEO4SUim2xX2Bsj9mcweN3//AZE/CYZ8T2QgPp9M1YDNMmSfB+u9lQaXjmbCJRTy0Gwcdd1RYPSQd3KX/gDh2+8yYtPnC3ugsH1erfF8opJtk5m5xtQd4gN5kxTB9kC15hsSYdr5HhvzIUzUQ55ZaB9+191nRn+SCYzN4tg/DOL3jLEDrz+X2OxwyO96CmlfDKW2WkhvNsJuOw0l53bA+6sV7b3/6zap1/ifqtDRq6/q2RSZR6WyGLlmYm+N+nD92h5a5R5+LaBATi90/XNRmazKuz4Yt+PJpo7LvF3v0Htf+Ln1DngXs1PYV+rSnrFs1gLKD/MO/ABtFUVtd8muug9cNHgzbUW0r6PfV6yxrbk991sKGNL3ud1r/2rUrPfbrTN5Tg5bsNYK+cXu08cpSkX6JEiSckeGkrenFsmVXvLq/4aaS8h51lYSgZL4+On3jhNTwfH5kw+MZ8Yi+eQdzxiNnqNhnw2Jfm1X3gLi3u3aMD9zHb/k719+9SpTOvVnVoT69i0rSnbkD4oVQIf+V3gfE3kn6YJ8Dyr2N7ygyYm7THhIL0IfDg20JUSSt478NsvOL52lPFW7XcbOusI28SH456jt4Jq94N7KV2qia3qY265J/+pqqbtqlTN3E6jxlLELRl0uf1t9aErk4Hjlyt3HriNUBGU1yfSOJ1/z3UzZTUaprNF9W/4RO66y/ereE9t2pju+G6mLydnGH8oN9ofHGQSYaVprrVkUY1H7dRwdsLbRYL8u/9/a7a25+tLS/5NrWf8yp1mpuUDauaYW1i58WjmHZ65nrzq6Ek/RIlSjwhEZ4PrwC6jV0d3l6xMwgEz9lK1YRfwYuXhsNM/ZE97hadOqvT2fMedqTD+6Xd92rp/ju0f+cDGtxzg0bDgTToKTWhVvOByXYYVohL+XJN/9iu9ag8APJBFI4WIhUT2Yp3x3OTlWUKQ+DFkDZEPmaSIAvJ+HzesYwYJWnTopsCHX8wGttDdtos14bRYlgWl/fcGW3mMQBf3+sk00rnNuny/+9dYe36Bfxke76zEJqNHUhtVK2dAZ6s6zHiTYOxwhLBNkYYxg+c7TDwTtOypv3DWvrqX2v35z6ozm3XqeXrMdNkLf7OiqFXpIkz9UN+3vat02aDFQttFPX7PsYaiakWW7Oqrt+o81/9NrUvfaa04UK3gikXmKthg4B8CtI/M1fcOxFK0i9RosQTEpH04VO6ufBcOQLv0awbBsTNuJAuT3TN11BsQGWwW/nykvKFvVq69zY9eMMXwnY662jGJFpdPFSsDmcmiZPeGHZmKdwwwWvEwjygOAaK5+9Fl5usGB/FGQNGOvLLkpnImXg3DvEYDTABVjKF1fQc2vC/65FZBuLwqhkfmx9Xnc6kvSnvacEGwCGTVdfyVZpNZVOzap5zsTZeeIXWvfHtzo8166uuQypWqw2vIVqEcboyM/00Yjjqiln6SWKv3YSPZnh/n4UDmUvgammO0Zw7v6DbP/q7Wvza1dpUyzVVn9Zy1wYYk+2iPvH2x5gM8Xeuw066aaql8eEDYT2E5uwm3b6Ua2HdNl35ym/T3Iu/Q3ljrQ2nTSEJbx2KFQdddmZ9nsxrjWciStIvUaLEExJQurv6gkuNQGLM8gbeDNI0LAQz4tm+veimeTvMMO8t2Q3sSnd9QXfe9FXtvvNm1br7TTBdtbIljTuH1J3fr3Xbz9NoYK/bxMoiOfBlZlYKQ+x8qa0K6RckU5A+pB2FcRqWxw3HOV8c5++KLWAiNlE7X7xSuuliXX0m5bGELov22GN13Pi9eeIUi9tUw2doGy5/0JjVYGqD0nVb1Ny8XcnGczR13lM0deHldpNNePbyhyYvzKEUWccj5UPnW2usKOx0wtciSBae6gcvf2TGH4+H4cu5DRsqCzd9Xvs/96ca3PJZtRZ3+5gNt6RpXdXCBMao/+ORfrfetAE3VKPTU9XGxVJjTgemt2rmmS/Tha98vYYbL9ZgnKoyaqrufFOu1Xhg0rcBYgGg/bMRJemXKFHiCQkoP+7BqaySByLvdu0R0/uxxGqj6nMDk/2ee3Twjpu1f+fd6l3/SeWDnlrpSFO1zE7e4fBsPLXLh3e/J2+446+oZYJvs8IbtOm88hXiH/GZ2YhY6BFYuhyyhYSKc+adgtxMKqbd8G37ivPiMUDw6EnjY0OW0SW+86+6/MpK3rm9+2GloSHfw7fB0Fp3gWbOuVBz512h9rmXSlu2mSnbymsz6lVT1fJlpcEwiSMglt0mQD502XyBLx4+bShIH13w1IFrlZjIq1wrzu29Sw/89Qe05+qPaE1nt9a16uG7+QNbckkt1TBMbCRdMZwf6rdiyNA2kpm2BvsPai5t25xr6D5fz43f8jpd/Nq3Smu3a6lWV52ZDc5z1GOy30i1OiM6FQ0Guer18pl+iRIlSpwxmCR9EF4pO3LM5GkGZQmVhDXeD+4OS8YevuVLOnzHV7S0535ttuvPh2GqvBqWOLW9wlqtplqT9db5yl4jEG8+ZOIdORZ5V1J7gSuTw8JvH46PFogXeMe/oeyjpA8h+ZeNhcxbiC5h0p5Jn3X1E2/pqgPdOUMms1Xb9uJHQ3WGmYZpS9W5rWpvu0gz2y5Ve80mrTnvEmluk1Sfc6EmK8vESMNyXg2jHK28qxak7/yZ2jA2qUH7vANfJ/4KQZ4ujHxd0lojjFowzwLCt/otbFej5QUd+sj/1uLdNyq7/2Y1Rj01W9OuA/HtuWc9G0Cug40lhuWjzjGaRtYu21rdxlXH9R03tdhcp9HFT9f5r/luzVz2fPXs3aMPltLljcGhr3PFv5lDweTKsC4RjecsREn6JUqUeEIidm0MhTOhq3jGH5/0m0AgBFNAtv9B7f7aNXrgC5/Q4M7rtWF0UFtaVc27V+dVuFajZgKuqj8wKdpDHtuTHgzt9ZmIAUPNvC/O8/Z+PrAxYW/ZZTZ5/Y3zJhtIp3hlrxiu91HZVDhC+jyxDrPSTVSsMAfxp2O+7T4O7+UH0rebCunzQh7n9/lYa2ZOM1t2aPbcy9U+76lKdzxNlY0Xaty098qMdJN7MBSGsjx29JORa4w+XGI+Kkh/IPWJ28JMQtbEhgaTG5Hz9IHP8zJJEXUNrXtIP7HxNTi0R3t236/d7/gXqnfsqY86mmpOqe+6LHJdqn3NuVo9luhzPcJICUaXA9pGz7zKl9g42DC7RQ/s76qz8Tw9/ft/QrryhZofTttoq2uatsHSAr5uVpTTDX1tbQBmjeKByNk5ul+SfokSJZ6gGGTq8V69/zfd27Oc63IK0adqh3Vtbg/v1+/69Ee1++qPa24wr7mmvThMBLuU3WzR7GDPLm+afO3xQRw+WzEZ+Eeg7SPDxRC28x3bCyQw675mUiVFwnv1PCv3b+blq+o4thRye45MBGTovsK79fby8fYxUHzInrzT8D33Yd3pW+GjMoPGnJI1G9RYu075c9+g2fUbtWbLdqUza0xkNhhGPA5wnjY4KGN1FPUJ49eBWgGMyHGTv+V5vPEQOurb8KibaPND1tU668XX7bBd7Fs/orvf/wvKOofDow1MIR63MDGSJ+2sbcC1qrtOS6O+OlZDo9FQw9ckGxSvaVZqibZ0dul2X9v8qlfqvG/7Yc1e9DyXMxtGAbhWtbCa4BMPJemXKFHiiQl7egN37nRwDfPaiKFw9+M8iW/03LMf/rzu//xntPe6z2r64AOayzs+g1td1cjGwqiybBaCwHnf7Sjp8468DzguPnMBiALvkXhhFr0PDPGeTaj42sW7/vbWmXkHGTvuqM+jg0CzxdYky/mw7K7jFKvt1pSl06rMblJ103lqnXuR5i68TM3N59jTXAObOUw5sUtxmcGIsAQMQvOq3uo4s0j/WCri1crusKdao6Ll4UBzvFp419f19ff/qmYOfV3D3uJKXZGaVx0j6RcjKg3rsefjAxtd1KVmg4iRkwzjynruHzqk6kVXaN1LvkOzz3qNNHueBszTsMGUhJf50cMTDyXplyhR4okJs+YwLUifIfKhvelebaQ2RHFgQb3PvVtf/eynlD94t86fTtTOe8ryvvJGXT3GxO1lho4/x+MjnxUSWCH9YpgeROo3xlBQQZojZo8H0qejtY8/LhYC4t3zkb3Nte22ycgev8ltlJuEkNEht8EBKbW2X6npTVs0u+MSpdsulEz6mttiG2RaA+fayLvO2B496S0LBgNkT5C9/WCErArOnz7SP5Z4eAAzCV6hHHjbte7W8Jngnbfpvg+/Rwe/+jdaW+vbY8dIQ0ZfCzx+Jz9K+q5BUgtLFY/GA9VMcyxhTL36rm7POlueO1cXvuRVmn7hq6UNFzuX2TBh0OZSMNJC1k9AlKRfokSJJybMhKO06LlT8zTrzw+rI6WdvUrvvls3v+u/qHdor2bU0bpmRdVRx+dNg7WGuu79w4x+k0QxbF8MlZsrVLx+N1bKw2FghjlqAISfAe1mqoE91UGvH2bys1xuzQYFs75Z/e/A0oK985r647qGyZSS6Y2a2bJdG7afp6l1m9Q//xI15tab6B3q9urt6fKtd4rnWfM4HVq24sXECov0ENin8PB84ESsFY2CYsLhUTw+D6vRbsSxhA8t1Uzerqb6w5HmOju15y/eqQc+/X5tn+ItCWbp9yGwI8ZJ1duj14FRk6Z6/QXHGWi6lqhRqak3rGhJ3tabWvuqv6utz3yutONiGxctp2cMyKobMmqQq1I7Sx/anwAl6ZcoUeKJiWxsMoWy7TOO7BG7Dx/I3vuem9W99nO67T3/Q1vWzarJV9hGy6qmY3uAY/Xd5aetqfD+dtE5BgpYGcLnN+/Mmxoj6RsFfRaxGWrGg5614UA8nuwzOW9kr55n+iPLBVEfaiZqzW5Qe8OFam+5SI0tF2tq87lKNmyTZtcoS5kf4HSmoh7P6U3k7WrNXquztxGBnDyKYNpClARJ+X4AIQnLCq+GSPqFvAU4Fo+fWlCN45F9RFLpa3GhHybU3fvpP9LeT75D5wxtsFmptfZGdVklcQWsuAh8lcMWDKstDQcLalZsNDQaGtjFPzi0Abdph2ZsUK1/7T9RbctWDW2EdUeJ2mkiNwGNhln49AILLD0RUZJ+iRIlHhFO1HU83s+EvwF2JbMEyrU3OKyJtXAyk37/lr/WwY99QIMbPqmZ6ZYGgyWNs66aU011TKbd0Viz6zYoObwcsgmjwgXbe3O0zuHIyvGCKE2c4XxBotO9kYnehGLPkjUBerUpZY2WkmZb1XpD65/1NM2uP0ftrZdKmy+UGvbmq1NaGLAMcKZZy1Gp1VRp2GhY4eEwiVAdZXxRrrIxkFMhgctkSN/XxGZAMcQdRiRWw0qmK/IW4Fg8fmpxbPs59nc1Oygtd3Xgmr/RnZ94j+YWb9GmxkD9nk2FZM4R0AWyxmsQUVyDblhHoa9WmqvuKPO+nIfr67XmWS/WeS98ufJzX6Vxu64BVpPBQ5yKdc4iPlV7+cfm+kRBSfolSpR4RDhR13HaSd88llWH7vi9M6hr5J7flK6laz+gfR/8A61d2qWcV+xGPXp7e3b20cfFK3N1VqQbFMPePOONmBzGJw0DwTzH5/l5wf+8b1+QTiufUd+kv5i0tdxcq8r67Zo772Jtvfgpmt68VdqwzvFYM79h46Dhra2SFa+dUF/hYhacoZjiu/hDh4HPZ0qzGeu4KCsuPMTzeJ5lg2LEYRXw7P7IJYpxIVGDbE/15eMRxCSObU97vi49eK9u+pN3qXbgVm2eGanTXVStPqvOchYm+EXS53XGABs6K0sX2bxrKvXfOp8o9vl+ba3G5z9Tcy96rdY8+8U2nDaLT+JWmsWCutVsWCibJZSrvONxqhVwelCSfokSJR4RznTSDwvORNLv19RjVr7mtfi5P9b+P32XNowOm3dGajZrPj7Q0uKiGq0pNRvTmp9fUL3ZcgdZkCHEHwk/Ovvj6sA5QzqpOYVSIH4TMKu5eDvKt2jt9vO14bJnSBdeZW/+PGlqnb39GeUmZqYJFvRE/nwj30TvzKuBpAbqOA5P6NOsrgaT8ig3BKeE13mzAG8+LC/rE9b32EQeDBcf4bv9q+J0k/7KOgcBx2lLwzuu1g3v/z3N3fcVbUrmlacD9dK6ut2x2rUpx2B4H71Y93EkBspH/1yNxlqX0dHYhsLYBtXM9ss1+7zXqvLsV6u3/iI185q6PbePZlU1Lu7AxhRvVqQ1LY76mklZrfCJh5UrXKLEqUHxFTNpeXnZ9xRzcX0zD+2t+Cbv95mBm4VJThyLceP2eCBdDKQFpO10jj7f63a7YUs+lBFBOTFv4kym6fV6IU9AvLiNx9jyezLEvOLnWcGiiQNwDLnIN2KyXlH2CPKLOpisG+ljHTiH3MQDk3lEmSZ1QfwYyDPWJYL0hBgHUN7S0lLY5xx5RbkiKAeQH/EjuUe5+c31jnkfWy6/Y35RVvKJx2I7ifUmfjwGJq8dxyln8noclZX15ZCtYW++Yk9eatmbH3UXlDj+mvEgDP8uZsvh9bp2taFm32kGfVVneDfedTGNRE8fZ5KAx00YVVr+nWqUuOyq2xyBEvOmKqM1qp13ueae+3Lppd8uXfE8dWe3az6Z0ZIF4aOvLdM+328fL/dU7Y3tkTqLMfIy0NxQO2/JJojqib1XGy8Zcw+YkZia2PuRnNliAay8VugaJc6C4eyie18lhDgR8fgKHnLu1GCMoLnbiNvK2HWad1imfuMF9a79uPZ+9H8pue8LStrLOjRb1+K4pTW9ac1kDS3VfM1d1zBHwoZPztLEDsGOsQFWMcn3B4sa9Uda0qz2TF+q/KVvU+XVP6iF2XNdunXmdtJqJNYcs/3t19fb1m0jtJmps/QLeieDiatcosRjDwiAjnlqaupIZ8wxOmkWzAgzjh1Y3pTZzYDtJFmeCKRtt33DroD0lMWWWdKUBYFEsgStlr04yxFlIl4kr4ji++r0DQUpcp48kTfmS934zXHIZ1KOePx4iGVDaIQoK1vORVmazWbQE0RMWchNfWO51AldsSVt1MXCwkJIvxpITznkRVrqQ3mkR1/IxT55RnmoI8fjljwi6ZIHdeL39PR0iH8iUB6g7vFaxHrFMgF5Ux6IMhKHmfBRz5NxyIvfxQSvXDWTfeGp56Gsjol94I6fwFjAgIVtag2NG21lJoxBYTeuivBGnvNkmdcjowDFxsh1+JYv686/+Yju++gfaf6LH1fr0H2aS3jffKBpe/PmIyWNpu8NX+Om24MTD7Pc16OrQc9GzdDGlw2SSm4jZGTjwN5nHl7FSyznxHOAhwtnONzyubCq1jFW/Jvrz9KBh+d106036dCue7W2ZXIeDEMbxTDosuRxqPpDjebjAT+dttGcntGFT3+61p57gROmatbabicuz4Vy2dhGfa1cxic0yuH9EqcUNC867/379+uOO+4IZMAxiIFO+dJLLw3nITaOcZMCOnTI5lhMNlc6AtLS8e/Zs0f33HNP+E068oEMIQjOs52ZmQlbyqXjJy758TuWy+8oMyESczyPjIDfEB353H777YGUqUOUacOGDTrnnHNC+pgXiNuIyfwiogwE8qM+7Ed93HbbbTp48KDuv//+QO7kiV4pc/v27brgggtC3Eii4HjlIz/lUwfy/+xnPxt0tW7duuCpk+dll10WzhGXPLkukaCjDpAnEjDysH3GM57xkLpPlhvrNll3rsGuXbu0d+/ecIzfILYJ0oeOf0UPnKfMZz7zmSFelC/GZ8uEtlHi3ybg6sj6cJaV6kF1rvsL3fyuX9Ml1YEWxj118RItnp1HTacmhDzV0nJXrebqxJKQCOrC0wzD+kwZpDTWgks0Nehpwcfma02NZzZresvF2nDBFVp34eWqbNwqbcTjTNQf5uoNrM+qCamVhhzC83gTvisTyuJnWAOAd895nOCflLIaMHnOZAyGmerB22f0ggmPmYnaNdt3vz73J3+o2rXv0GWbNmlhfo86JvxmfVrpwZ5a7ZoWGr4vhkfvmeOhZU0Nxw11Zzbp/G//fukFr9Ogtslaa2jYG/p+LdKH9ul/0Tz3FQ3bM11/jxQl6Zc4paCjxmv8D//hP+jrX/966Jw5xhDta17zGv3ET/yEtm7dGgiTTjwSxCQJTmKyuUYiId373vc+vec97wnDvuQF4XCc+BwjPwjxyiuv1Ctf+Uq9+MUvDmk5HwkDkA5CieQRf0eQJ8cgPs5DVP/oH/0j3XnnnVq/fn0gY7Yvf/nL9c//+T8PBEj+5DGZb8QkMcbfyETcSbkOHTqkm266SZ/61Kd03XXXad++fUGWaGQwkrJmzZqwfeMb36g3velNYVQgIuYft8eCa/Ov/tW/0uHDh0M+bP/Nv/k3evWrXx3SIFOsC3WnbGS7++679S/+xb8IBhfn0f13fdd36e///b8f0k2GCPKKdQTkxf7//t//W3/2Z38Wrtfs7GyIgzFFOeQdRx/QHwbdj//4j4ey8PrJn3joI8rJmumDutuAvecmfh8Tx9J56Z5rdJ1J/7z5B9Wr9DVMhvawBxZkrLZJ3763hp2hsubRR0PHQz2zXuzqF4TPo4SC9CF/XhScs1c6sEHRTxUWhOkMrbfaGjW2nqvZrTuUPOVF2nruhapu3mGG4estruOIyYb4sdZPzcRkzzT4wbHZe5eHK4xZ2bQNhx4OZ/pEtOGIERjvZDY+LSuT52o8jx8s6N7PfEJLH/4v2so8jN6SOs00LGBUXxppqmXjstqx/lf/4s1M1lFnnOpQa5O2vPJ7tPaVf0eD5lbn43vXRtZ4ZQTfJuXKP4jecBsDk232iYSjvVmJEo8xIDA6YAjllltuOfI8mg6dcP3114fOO5I0nTYdenyWeyKQF6Cj37lzZ/D2OUaHD7lGoqIstsT5i7/4i0Auv/Vbv3WEMB/u5ib9seciWSHngQMH9MlPflK7d+8OBItnjJdMvhDX5BA76Sa3IOYfy0AHk0ZArN+Xv/zlYND8r//1v/TBD34w6Ayio7xzzz03ePjIRHxI+IEHHnhIOauB8pCXkZgoL/qP1wO9sYXoQZQV/UZZMRDm5uaCsQM22TuL8VcD7SEaQQSuH3lRv1g++ceyyJORGo4D6ox8UUZAPBB0a8LgGXfV23DMfDLiYXx7TvWt52th0NXIdW/4xHSCf95Thff1M+v3hAvbgAkdh2frYceeFPQ/0nKSqusofP99tp5ra7On9cOd0r3X6tD1H9X9f/X7uv3D79DBT/6RstuukRZ2qZFkmqolatnrZ85Az9TeMUn1bGBkYWTB9eaVstFJPH84w1Gz9w7y6spoycDtPUzuq2nLRZdow2VXae8ij57qatVrNhK8X7ch7rhxMuVqGDEJ07rK+8t64PabNNi709c4sxHRV6P+5KW+J2/NS5xy0AFDjBBW9BAhGDpktpALZAMgAEAnHz3AEwGiAKSdn58PxgOeLqQBAUIG0QCAlNeuXRvI8r777tOHP/zhMCwNyIc4IJIlcsQQEQkqEgxe6Mc//vGQN2QE+XMeeSDfWLfJPCLQDTJSHoG82VJ3AvvICuH/7u/+rv7yL/8yGC3kTz2Jj2FBPPKJEwhJg+ERZTwZkBePCgDpkY3Rly1btoRjYJJMAXKgZ2TiGnM9o5GyefPmI/FXA/UkH/SDrrguGA+MNJAeuWgzlIlOaS+UE/d5jBFHM2L8CPIF+N8BvgSUM2b4fmqTNl7xbC2kTS2xfq3d8KlxxV6+dQ8p5HxI58Tyj9xMwxfbJrpRhuWZ+BeIudW2Z1/Xsolsud9TNuyrXRlpQz3T5lpfm+bvUfeGv9aNf/4uXfve39QdH3m3Ol/5lLT3DtUGB7TGhsOM82s5+/AVv2C82JCxyDUbL8Wvhw9nPKziLPc9UHGdqhh4iawiKzRVY8sOzV35Ys3X1tvgScMyu+Ocr+5xHmPuxN+1HVaLx0Yz1uNo511auutmF7isOsso+7qxvH74Ap/jEqLO3BRCeKLirGgbJc5O0GF/8YtfDMPSkCIBUgGRlG688cbQYYcOeYVQiHeypAEY+mZYPXb0EAOERRkEjnMMksIQoCxI7uqrrw5kye9IGFEGjk3KgPEAyIvjEO4f/MEfhFEM4kLEyE2dqSNkCJERN5I4IC6IdeYcW87H38iC1/2xj31Mv/ALv6BPf/rToTzIEEJHZkiPxxUYMtu2bQvzB0hPvnjc1PNEQCeAsjFSohFCWRAq+cR6cxy5qD/7bKnngw8+GOpMucQlDfLEa7MaSAdIy/Ujr6hDjiEP9cUAIV/2MQqYm8Hv888//8h1o2zSkB4EPVt0hu2D5lG7A8Puo9Zabb7yOWpfeIWy6Q1uF1V7mYnSSlNZ0lCP2fUn/FhNQfqR+PnUbUQVT98hW5y3ZykborNKmmsdd0aDMY+xEo2GVU13l3RONdfFrbHWLu3Uvi98SNe951d02x/+sjp/8S7fHH8j3X+9Ksv3W+oli88weEF41cqUK+OarRbOdKAjXzMkJVStcz5pO0p8HVprVLv0+Zq78Bnq2/Mf2ctvusvIWVPBGsjy1R9tgH6tGdrBdNbTms4hHf7alzS0x9+s28h3galvb0Igf8cv7swnPpL/aKzslyjxmAIyfuc73xkIFu+MThxyZAsZQx4QB8/2+c1xbtJIXiciDjp64vA8+a//+q9DefyGkHhm/yM/8iMh7+c85zkhT4a9ITpGAyiPY8973vMCiZAXZMOW9JyL+yASHYAUIfT/83/+TyAhJr1hUDDczogD5AwpP/e5z9VFF10UZJqsT8w7ygAgr0iC6AESZITka1/7WiA30uIJo68rrrhCb3nLW/S93/u9evazn61v/dZvDceQgYlwL3nJS3TJJZcEmSNiOXELyJPf1OfP//zPQ1ryx6hgIt5LX/rScB65qHuMT10A5TECwQRN6oKhAeG/6lWvCjqlfOLHcCzIL8pIff/kT/4kHCNfyqSOr3vd68K8gm/5lm/Ry172siDTi170olDniy++OKRFNmQiTZQPHaYm75xe3d15ymdVbR8MreJBPlJjuqHk0E71Di1qeOCg6izKUquqX3E7rLJYTt1Eu/pjppGbw9jVIqxo1/+oc+HtTzFBDaPAlDLMaDt116+lig2LkeVZY1l7y131TP6NJNe0Zav1F9Tfe58W7rlJB3fv1Ghpf/BuK4268nrDZTmP3OWgNv+h3IcNJ/WI4jSCNlG1MenN0EZK1Tqys2/DqKJhUlF9qq1k/x4t3fk11ZMlpfWxhp2+6mlbneHYx4627+Mhq9eUDvpqDNzfOOPdCwNls5u15tIrtTzI1ahyn6OroK34vzASjeL4Ew8l6T9KxE4rdmp05gSO04EBOqHYURKPc3Ty8XwEcTgXw2RHGc+BeDx6OcfGm/x9KkE9Yx1ivemAIT48Lp6f/97v/V54pg45Ij/yQQ6hU17ppF/72tceIVS25BMJcDWQlvLxtj/60Y+GvCmL9Eyiu/zyy7Vjxw5deOGFespTnhImwEHWkBz5Q/4QCURHueRFnsjGb/bJk+OxntSBYf13v/vdYRQDY4a4eJ7sc568uTY8237hC18Y0pEe4yAaPeggXmMMBH6THvIk/5//+Z/XDTfcEGTlGM+6MSB+4Ad+QD/1Uz+lq666KuTP83wCJE9ZkCOyQLpRv5NhEtQNWXiW/qd/+qfBICIgO5MdMZaoW2x3bKPMBGT60Ic+FEY1KIv8nva0p4WJhLEtxDIny47pAfkRj7ZCfQHnyI9Jns9//vNDPbmOGzduDHMY4jwGdIleYx4xbUyP++ZuP/yj/7YNYPIfu7MP/reWtswo6Ztc9u7XuHNQ3cZA3Zap2V7kXD9VM1nWyKSRjTOTrdulSTRN6+ZamwPdgeomDXiHb+VXKoSV0SKXx4S+gYkLQrOA/oWP7vvFedVNcIRxbiPXXmet7jpUvT/uqW6DoW3vv+24lX0PqHPHDTr0tS9ocPsN/r1T9aHbrtuDmi310kR92idrxFs252BjxfkmVWUm04rL7Vv+dOU6cH0YAWB/5OteXdHZaYN1VrVeE+uTSYk8vbBo4htJTF7cX6lqwzlbdfiB+9Tb86Dq/Y7qNn6WekM1WTiHT+auZMUrk0HVKwdosRsHh7VsQ2uxMaea7/Xqwm5li7u1ZstmJVt2aNnqaLB6IYl86fJkaK0z+oBMtKMirycaHso6Jb5pxI4zEjCdDR04Wzo+OiQ6ptgpxU6T89H75RiI5BIDeR57jrQcp3MmzxgPomDLbwDxnmpQB+SgnrHe1IfnrDzf/tznPhcICEAQPOuNr1hBdOgOUsPLYz/WlXrF/dUQ9cewcNRvHK7nN6RAHGQkP8gz6gxvknjscxwQh9/UJYI4IF4L5PzCF76gr371q6GeGA7kyeMECA95KI90zOhHHtIC9AOirMQhv3g8lvuVr3zlyOx8hu0xVCD87//+79e3f/u3hzIjYlsDyIMckGTMczXEunMtuIbxEQXguiHfaoF0PIaI5SMv15j6R52uBvRJPvEaogt0hX6oL/KAyfsoIj7LfzTYOHuJpi6+SgsXXaaDaze7oLrWLg7UGiwor+03Ybj81qym1mxQvT0d5Bv0usHDXDc3uQ6B5WIiX5jMd1TGQEQrwSdXgutYdX1MeCMbDbmJjUcDrp1Ja4WETTjktWZ2TnP2dhvDrg7edaPu+MwHdfNH3qVdn/p/6n/pT9Ra2K/p5f1Ke4dtmPQ1rAzFJ3mZvzbsFQsvNRvFEDdAj1wbK7MwHM5wTFXchmsNnf+sZymbnlO1NqPqsKK2PfjcdZ3kZOY4rsxzDGB3aD3SDql+NvR1dbrR0qL23nmraj07JrXi1UerJaR1qw5XASPuTB8keTQ42kJLPCLQEcXOiJuMG4vAPp0hWwiGDpKOixBvPjquolEWLYxzkTTYgpgnWzodQKdIpw7Rky+/GVpmSzri4Vk/HohyRdliHRluh/SpX6wzr7G94AUvOFJf0kAavPYGOE7cuD0RIAXi3nrrrUGOmC/PoxkSjzpGV3EInjh49mwnJ7xxDWMd2Kf8eG2RHZAG4+Uzn/mM7rrrrnAOfTOcz5A277QTh7QYGxAZMkSSnywLeQFlRrk5j5GA7hhqp1wIHnkZ5sb75joDypjMAznIh+t+stee+ORBXfD20Q8yRI96Ese7Hhg1GCekQcfIwagKbfJkEPVLfHRFGbHtM2IT6xqvM/cTcbkGJ1vGasi7ba25/AXa8l1v1eCyq7TYb2p6mGpN3Ua09piU6+qMci0uFxMH+cpdijvqekIiD8VDCR9UTNzVMOmM4f4i4NFDWLwmmJn0h1wDSH8lFIaDi3CTOHT4gMbDnta1Uu2YqmjzYK8a91yjxav/UA9+9Dd0x+/8Zx365HtV2fk11YcHNK2uWnZZG85iaqWtgb5lpf1zjRqtZrjOPbfPMxbhdsjDVL0saSp92rPUvugKdTIbML4+lcx9bOXEi3eNxjbw7ckz7jIe9DXNIkDLi3rwhi9JO28XGsp9TQcsiBSat68X5leY9c/vJybK4f1HATplOiM69diBESLoBOnI6KzoGDlH/EjidJh4cQyP8lyawHNbnoHHgBfMTRrJYbIMbuKYXyQWOqdY5qkGdaBelE25lEngGS/D+hAY55ERD/Snf/qngycJabKlXnTwvDvP8DvxkJ36seX3aqBcSOL3f//3j5SFTiB9nqeTN3nde++9YfgaD53fGAKMMPBYgWHySCroeLJs6sdvyiBfjjP5j0cJkDr5cI5hdeYPUG8mJkJWlE1+3/Zt3xaMgpgn14o8Y12pQyRvjpHHH/3RHwVig/CRE2OCd9KZtBfJjriAvEhPmLzmlB/bxMMhtimMs/hcnnSUQb4YAwy5E5hbEPfjb0YkeLSC/gjkxzwDRgnIaxJR3mNBGgy/j3zkI6HOUS/khwzok/J4lEKZTAqlXhglxIuI+T9cOcdDNqhoUHebnZnW5o3rNWXb7tCDu3Swe0iaq6sNhfZNjllfdbvtNYbzHUYutzvwPbfyrX6XekwoNnHI2TXyXxNJcPsh/szBhkOl7a3bmyMSozJ2bBM/s9hZQz+1u8mdXuGRgLcsx1v3fpp1lQ4W1d15h/oP3q7D99yqQ3fepsW9+xynqtr0FNmoy+I3aXF/JitfjUM/4ZO7tL3T/ulYjOxCQ0cQdjnutjmywV1LlNZztVyvfTffpkavo1HeU9VGUDoyna8kjS0h5oTuw72BBtGjDZ+phPUlMh2yszQ73VTzoqscx44Zr0c6TZqgb/cBkH7I5Ghf/kRCuTjPo0AkhdhR0YEd2xHF83TekDheKSTE8DsdLcfx2CFAQHwC+XCMfTpQCIChUwgAkuQZ5+QrS7GzjgYG6U818VNmLAvyo6MG73jHO8IEPoieeiIHnuo//If/MHj1P/mTPxl0Rd3B933f94Vj1DXmyXl+H4tJ/UKgeMQ/9mM/doT00AGeKiMKEZGMOR/Jm/i/8iu/Ep77R3KMxhNbZED/URa2GGm/9Eu/FEgS7xtZeXb+Mz/zM2HCIBPR/uf//J9HCBDv6hd/8RfDxDrkIg/SRD1RDjJx/bmOlP2BD3xAv/7rvx7Sc80p8+/+3b8bSB9EA2RSP9QFxHrwO7a91UAeyMP8AcgbeTFmMMhIy/4kyHMSjCjwuh66QCbS/MZv/IbOO++8oOPJ+MemBVFHGLr/6T/9p/BIiLI5DqgHbYS8qTf1Q3c//MM/rL/zd/5OOB4R8z9eOZOYbD/E7Y1sGFZM6vaSdf9t2nftx7Xrpi9oeX6XLsjm7dGP1Ko3VPe16w8ye4Um5NQyyoZ+XrTfI8wTUYznh+V5Ae+gQ/b8hOzDbyMfrzVJEdeGoM+OI9kE6qoGb33QG4ZrFI5av+EddRNgxQS1LrVDYM93qd/S/uGc+hsv0sbnv1zbXvQSNbac45zXq9cvJkXSEsin3Sz6i9iOTi+oL31d8asAI4Vuz65nNaurn7pv0WHN2BDb/Z536fA1n1CzYuOGL+suF6QfXptcuQSoPryGx9Ykz6uStKlKf6C2LaFhtaYHerkaW7fp/B/9OTV2XKqsvlY9jCy3u8bK2soZfUH5wZ0nH+ggVgt0QnQck7+5wQiATosFaFhU5V/+y3+pn/3Znw37kAOvYzGkiadPpw8BADrOyfy4MckP0sBYYDEYZo3/l//yXwKhQBKMFEAoeJg0cNIRYj4PFx4tKJM6ThIZi/DgDaMXZtPTgTOj+w1veEOQCWMFsqAzJw7HmFUfDYBvFhgRdGCAOiEPemVi2Hvf+94QeP6OHBA059AxM8KZ/U35kWTApG6IR6CeXB/ywbuN8SmX2fPMJqdcZrxzDeIiN+QDoQHKIS+2AJ1FgiIt++TLaA+/MQIgXSasMWoR2wftgf3Y7iJiXuRBoKwTgTjIiiEK+RLIJ16f2JYfLkD4yEk+yIpRinzHyvZwiPrAGGakhnqRjmPxN3mhU4b7aWOc51VF2vmjhU0eNZklbnIZLNur3GrSfOMP6vxv/zG1L3yNFtJZHTCpskDMIQeWyuVVL2QY5YWhdRTo+6E6jx/mCYhD/TkBTxvPuxhKThzC/spIAJ/m5Utxy9apNaKkOa3a1HqN62tMgG11spq6Tr8w6Idv/6cNOwRbtur88y7U1m1b1Zrl7f6indF2U5Mfr8OFdrwi92SbP7MA6SJboYux5a2wmmJzo7Y896XqrNmscWNWWQdD6SiOfabPOb42GHSOjn2dB7l17LY126hoedcdOnTrtdL8/dZUN0weJC7XyQWHSZtPVEzqrcQ3CTpuOmgQO1m8Q9Zixxv8t//234b3rP/wD/8wkH+c9ETHSHxIg06NDmzSW4qdIb8B5ZAvHTF58PwVMvnEJz6hd73rXcG7YniU4xGkeTxABxgJB68UYwbZIAN0Q4fN5D1GJSI54wnixVJP9AHp8xgDRD2eDOjESEs5MXAM3aErhtXRLcPilMMx5OK1L14H49wkOZE+6h+gf44ByPiv/uqvjnjlXA9GMiB8rh2/KYdj8VqSP4QW8wXIwe9IbgAy4zzHMJQiwaMv9MTcA8Bx0mIAgigb+o+dOPvxepwMIHpkR17KQmZGZ8gDeSYDZUz+RtfEox7IihGFYfXNEAq6pL0gB7qh3ZI3hgf5Ixf5YVRQb+Rj3sBjgbFJYdQzgftWSWbWKmtsUr+5RVMXv1DP+I6f0LoXfLfql79Cg42XqdfaqCwpJlDy4Rv1WAwp1pNrOxlAbuIovHom6/F8v3jGb53lRUjHFf8uPNPEdYScwqd8K3y1b6RaywZULQnvsg8GLO5jchoPNZWOtMY2drd2gfZUNmnnzDb1nvocrf/Wb9PUc14htbeZ3KfV6XfD6MByZ1kLi8U3GtBv195vw3o88xDvRbbWQ7YkuxVqqBlGNHTBU7TxWc/ToDmj8UlMSRj0ndb3FvcJ8yYyGz5d76c139vVgfbf9AV17/u6i1r0VWPEh3KLa8h8iycqYgst8QgQCQbQIUFAkN4v//Ivh6FsXhGDiOm4ID86r+jVR6Jgn+NsI7GTV+zQY2dLOXSQdMxs6SDpAEmDZ81Q9f/4H/8jGBuxE388gBzoAeB18+w1GjPIivx4aTyLxUv+/Oc/H+rDcYiOeHiMEA3HIzly/kQgDkPC5EGIecZ8yQ99og9kgize/va3h6FyDI9IorFM4gN0HfdJSxxW7+ODNJxD75AQz665rl/60pfC82+uA8fJL15DRmG45hyP4Hy8Phwnvwg6ZQLy0kbweDGI0DMgLdc/1jUei6DexD0Z/VFH9I4hyfN05KVM6sibCJA4rwI+XEBu6hnvAZ6zQ/rIfjLg2iAv90isL7+pT1xwCBn4KBOPtZj3QWCSJtfl0YIv6SXNmvKpupZ8u3VHvs8qU0rXniNt2KGNb/hxXf76H9FTX/FmnfOUZytpr9GQZ/lZXzMsk3cCmNPD0HMBdtxOA/Hby3fAw09McLxaxyQ/hvgrPN8Pnm6uYU5b6Nso6TmNr03K63w9Jd0D6u292/7pNm19+qv13Lf9lC76vrdrZBn3500t9GuqmiRpYzffcnNYcppXTLsYTY1muM58re+MRKh7gf5oWYnbQo2mnNjbn1qjHc99vsZ1G9WVhvVWxAPomhDBOZ7f00bznBfxrONaXd0hBnXu+7athQfu0KFdd2tweL/vl5WJwKOxBqOMFyaLjJ6AKJ/prwI6NAgtdqqQBB0cjYN9QAeLl8LkNLxtJhuRjsYWO8NTCS4f8lAW+3iFvNbFhKpJowTygKCICwmx/0gw2VwgjZg/HTdD6awNz3EC3hreP0RAJw2ZUT4eOOBYHLLloy3MgAd0SuRLfHQ/qcdIxhynTr/5m78ZltRF3+RNnZ/61KeGvKNhxDN+CB/ygEwwRiIgG0gURHnIB0BKEBFe/q/+6q8G0seAQR7y5jwdayR1SApPnfPol7ypO2v9x6VpY13idaPtRNlpU//1v/7XMHuf/GlHlMecAeZERJCWvIk/WRf0xTHqQ1rqshrIg8V1IAXqQF0p74d+6IfC6Awy8PiJ60X9OIe8gEcdv/3bvx3yoE7onbURWCeA+sRreCwm2w91Jt7f+3t/LzxioDzk55EJaxGgQwweRlA4jv4oh+F9fk/mH6/ZY4nB2B69y6l05jXe/6B6996qhduu0+KdN6iz7z5tm5lTijfveL1BJ6z+l6Vur3Xr3R56o7fy+M95hWf5oe60X29NbqOx21572ukq6rjtFW3dbbtio8nVCWb/ssl+WNdsfU5jnzzsNEsYHNMNzb7hZ7Ru40VqbrpEecUGmHXZaLZtPKRaONjTV6//SpjAeu2XrtGP/NiP6Ad/6AfUbBdD/HRpLo0SzlwEdfkajHvq8fqeib+xsFcHPv1u3fLh39UOH2o7EosbJb7Pluydd2wgbW7VVV08ZANqNpB/bBm59R9WUCT4YGo975peqyu+9yc0fdUb1O2tt5FRVyXhdcol1SpFPxUmZK5k8ti3sscf5ez9VUAnxE1LxxY7HPYJcUiWZ9isnMYQPsP6dFSQHZ3Z4wE6PuSMJIHnC0lhfPD8nHe2ITPIibjIhezHdpong8kOOyJ0aj6OF8+sczppyAOioCzOoSfi0XnzG3kiKaNX9Ml72TwTJw2BNDF/wiTiMUYIGFlhCJ08qCOkw1sCfH3tFa94RVh8h1X3mLCHLuJ1m5SLLfrgGDIBCBTywgtmGVy+/ka9OEb8KD+A2CFECBjZiUNesS48AoD0Y70oM+o/Bo5RB0YMrr322iPHuaakxeMlXwwddAaxc5484+gC8vCb41G21UA+6I9RGPKD+BkB+e7v/u5QJteQ9syIBm2aOvKb4+j8b//2b49cC9JjmGBUxWOE1UBdqN/73ve+oO/YHlhNketIe8GIZUuZbCmffIlPPSNOVNYjQiULr+gl1nvi8hubNmt22w5tPPcirbv4qbrnvrs0b495YLJptluaajbU8C2S+DrW+pYvbWg4GmoQvPWh8/P/lefrrBQ07izYNvC+GWg8dHus2Eh3yPNEOcxkj7PtvKcbqb3+gR5c7mh/Y43WPfNbddHrf1DTW85TbeMOd1QzYUW7hq9BpVLVV677qn73ne/QH7/vvbrn/rt9bRp605vf5DZ0YZBhRBuhHZ7hFAYxVwPj+j+k77qlqR2c5X0adQ6ou+setZvu+0z8me832ZPHUGCmftPtYVSZmN3vLb1X2Ib8/MN5d/Oq8tqs1m65WLXZTeqwME8Ns8nGma8FIGpsXiubsxpFz1riYYFnA5lA+NGzo/PHo2NCHhPzIAQ6TDooOjHI6PEAZdHhIxeEgYwEvDPmEPAqGx4ZZBHlB3SQ/H60gGjopCF6Rjp4vBG9Zjz8+GwYIoIk2RLo3OnEkYH0ECSGCh15JOO4JUyC/GIHz6Q8yoRsuSakwQuEsMibeiNP9HjJH50hC6RLiHUgz0nPGEIhHs+b8byjrAT0Sx0IXPcYeLzBFjkIpKE88qCcSdn5HQmauPEYw+q0o1h/ZOYaYlDyG+KlrlFmyoAIMU7iowLOke5EoH48fmALaEMQPCMjURe0dxAJNsrPpFLi85t6IBN6R0YQ460GyuCxAm2FaxGvC8P31JMyKR9dxBEGyqJuJ2PUPFqMso66o66JAQ+xrWx6i3TeVcqverkqz32dnvFD/0DrX/wGLay/QA8MW9rj26vTsXOQpVqXtjQcdO0tjjXdtKc+0zZB2eB0vr2evfWljqYxEr2fdfqaqTU1a082XxpqtGCjrjKrxqimsUnokElsfz1R42nP1GVv+iHteO2PSRe9TpX152vQrarTHanWmNJBt4E/+eCf6Lf/z//SJz79cS12DqnZcjp791NTNhiXF4OOE+YYnAVdP25TzvLII99P/hFaVFJXY/vFWvfsF6vnttZ326AtVIajsJRyq2rHrGvj2rqMHv1kiGAEgIWMpgaZDlz3NS3eerOP9pWlvsc572v4RMWZf+XPINAJ0ZlBcu9///vDq2m86kSjo3OKnTj7dLynGpBd9CpjB0xnieeJHBA/MvKeM+TDMQLxT4YUJhGJKSL+Jh/yZ+gb8omdMXJBAPwmRAJjn3PoMObBMQicDok6EJdzJyIO4kOy6J24/MZTJX08HsvgGAQJ0VA+W85xHKAXMJmGeDynZ55EvKbokeMR5EnAuMAThTQjgZEn+UH6YLI+8RwgPuA8Ex4hfggcGbmeeOKMJmFYQe4R6BMDhHkUvMVBPEDeyHQiYJxiCCIH7ScSN/sgGkVsY93Zcp4RCfaRmfQYcXHC4aQOVwN586Ef6op+0St5oEvqFvVDGfFY1He8XqcSjWTapN3U0OyxNMq15O5ykZf7mms1WH+OdMXLde6r3qbnfM9P69JXf5/qFzxbhxubtV9tHazMqNoovMZqYsN22NOwt6hR306EPcyZVl3DqttUWvd5SGaoJO+rYaprVXkfP9dokGg+b2neRkXz+a/T+W96u+Ze8d3Spot0uFfVsgm/NrNZjakZXXvdDfrFX/ol/fZv/5ZuuvlrapnoIfu0UVW9WdPGzRt8fxYjVegutrkzGcxp4FEEaxZA+laRtWPvfcMWNS99pqbOvVCHfF36YdEk9xuuU8MGjbVuY6nw8u3IH3mLIs7wD0P+hEqiGZsSjf37dPBrX1K+9x7r3uW57Er4VgJ7K5GfQCiH91cBHRedER04HQ43DB04M+YZFmV4MpIaHSCdFDcUYbKDP1WI5QHKjwSGrPGmhhRYOY2JV3ytLBIrdTuZjvPYzvvY35ArhMTwPsYGZA5RvfWtb9U/+2f/LCxOw1rs3/md3xnCm970pvDeOvLhvZJf9CoZ0iUtx46VL5Yb9UrdIbtrrrkm1DfmwTv7DEVz3UCMH/NETzFEYiQvdMeW+sTryURM6kYeECLykPfP/dzPhTkT1I33xd/85jeHoW0W+4G08Z4hVPJBNtLwqIE8owyUR74E4pA3x+NvDA2AEcE1Y0QDoiVgIN18883h0RJr3zOXBPLkWTiPdGJ9TgTy4tEFIzLoCxl4lZE5EexHGQG/kR2doSM+0MNoF7+RlzkAfAQHEC/W7UTgDRQM5zh6QVrqS5tlMSUeIfCoismS7FMWb0iwRb8RJ1PWN42x7+VqqpoD3jHvcddMyPa/Tc42tPMZpa01qq49R62t52v9jou0Zvt56rZmtXNgo38wH16pY0W83ORVc3Nm8Zywpk8+0h57+W0b7rU0Ubczb6+2b4J2zo7XHfQ0mN5qQ+Kp2vTi79Cml/0djbZcqcWRr0k20nSd8lPt2n1An/zk1XrvH/2h9fW3zneg2ZlZy17RcljIJtOmjZvDIxv6r9GoMKTAybSR0wkeVbgnVTVthMcRoQdAZHvzarfUWt6tXfc/ED6qM80963YfPtFrK4r5gLmv1WSrIH38zVMDvqo87RJaPnpouaOqDc7Z8y/wLyZZ+n5c6X5IEx+FTOZ3tqIk/ROAzoQOj86NjpVZsBA+HROdTvSw8bohHn4TSHOqEb332OHFfW5mOnE6f2Rk+JSOmufmeKPIN+mtPhzogCdx7G/yx8tn9T06bcpFJoZn/8E/+AfByMAQYLgY8orPZiFBSIu0yBwJ+ulPf3rw1CMpgli3SSJhn06f0RaMMPKIXjHP8gFGxSQpRAJjG/dj3sQlj0iWyIMHzOhFnJFP4DzPm7/ne74nxKEu1C2OrvBOPR4pBhBD/bEs5Igf9kH2eJ1i+bFc4rFFT5A8iwoRn2tFwKDCUIIEee7Pt/YhR46TBuMKT5n8Yp6rgclzrGcQy2AIHcMMwyUajciIrtlyXQCPYjA2Yhmkx1hghII41I9jsX4PB9KyuiHzA0iHjimLa0rdkY/RKhZWYku9acMYN7HNRJyorEeCftcEafJMqg7OP7XnmVi+auZ7Htez1hSjz93u2B6ove5N25Se63ts24XKN253OqlXnw7f7B86HivhpWZ+6th3/1Gd8j3jeufOr1Y3adUbOjgcayFtqbphq9Y861u1/Vtep9azX61uc4sWbG40kobaiV3e/mF98au36//+/rv1vvf+seYP7tWGtbNq8Ipfb2TPuKJae0q9/jDcj6/y9WHCPtc1trUzHRA+NBu+Fuj/aDkLHzdyHasNTTfG2v/gbmWHD2jKuuad/tx1Y1EejB2e9R9x0leaR2wlbPORvXyz/1Qr0cGFwxomNa0/92JVbbTxXp9NUMdyHiGAYp9tEWJuZxdW7xWe5KAjoiOkQ6Ej4vvpLI7Db0ge4qfDp6On48WrhnwgtdhBnkpANJSNQRI7X8qNHS4kQ8fMjY43+Md//Mehw6GDJ86jBTphtj7PZSmLcnhtC08eQkR3lIMMyMV5ykdH8V1r5MQIwVggv3gsknAE+USZySuSA+A4MjB7nrqhD/SCTmKIIC7pyZvAb8qLID3gOTp14xwdJLrGw8SbJX+uO3UG5IH8tAfaBeeijNSDdoHhxT4hyhPrR/5RBsiMyXBve9vbwugAedC20BF5kp4tZWLIUR6B+sbRDuQ7lhSPB8g7zvNAfuqOcQYoN7apKDP5IieTRSmbYzEehgJxY52Q8UTgmpEXdaNtRL1SF8okLx4ZUS8CBha6ieWeatSaift+X5dwaWBte5hpXeOq7x81tTh/OPSgzWl7hjPTWs6r6uQt5Vsv0bkvep0u+K6/rwte98Pa+NxvV3XHlVpqrtfhcVOD2pSS6bXaZN6tDZaV2djhU749n+9uuFjJFa/Qplf9oNa98k3S5c91Gb63bIC0XWVmzNx66x36/fe8V7/8C/9V111zdXiXvcU76IsL6i50TGZjpZWG+oOxup2R1m/colZzJrybT5tlsZ4xn/090+GmRF1sB7HrG81tbWQD1AZNOm6oYj2f87QXqjq7ScuDwsHJsr49+L7Gaf6Q7+Ufb4S+WUk1zGyA5b6Paj31771Fh6+/Vuocdnmnvn2dLpSkvwroxOhQ6bAhADw/Ohs6Rzp4iA3vhI4zdvYcZ9ifjulUA1IlUCadbCQOOks60miw0GFys8dV6jgW454s0MWxwFNn1AMvkzrzvJmOmVfv6LTRCWWjM+TjpuQ4v5GHPOnskRMdMmwNOBaJbbLcuM85AvEhK45TXwwJCGMyTQTHYp5cG2ThN3pAJkC5gOFuhr2ZrMb1RT6Il8cPrNVPHugcPbMlD+oK0WLwYSBMXheGwePkTtISJkmL8okHkIG68Flb1hNgqJ28OR4JGvkpE6+euMhGmRDipGwnAmsPkFe8Bhg18W2PqEfyiW2FLXJSHnphn/IBoxzxuoGoy9XAYxB0Q73QB2XF+4kykAPd8Ju2xX2Hfh8vVPkanrv/kT3xIe9u5xVlSV2ZPfyhw5o5Xwct2RwYBL+vaqMlTxthxbxeZtJdd6mmn/ZyE/9bddXr36rzn/ktqq3dqoXMhuDyQL09u7S+lmra6fbsPaSDvaq2XvUSPe3bf0hrvuXNNgAuDZ+GHXbtXNj4mLaObrj2Or3j3e/X//j9P9H8gf0mtHH46hwrDOWDoeom9IZlGPUzTbXnNDW9RudsPdfXBcN05eNY1nO8Tmc0rFRWybPoQb8Jj0bcrfL9A97d79fXavPFT1U6tVadwcj6L+7pPusaMMt/hfAZyiccS/ytmg00X9+l4bKm274HDx/Q3ltuki0lU/7JrTVxNuJJP7xPh4KHQQcXOzc6G0iBDhFS+Z3f+Z0whE3HCvByIHjOkSamIw/SEAAdH8cAWxokcenIyH+y4+c4cWI8OsBIRg8HzpMulhnLYp/j5EE57ENIdLB4x3ScPOOPZbKlLpRLnqTjeMzn4QJDvJAEZEMgT55tM8wbgQ5iPciTfYgCY4B3+xkZYMY9w7YEZIsTwkAsK9aR/KJeeZ5PGh4jQI4QMt4+BgVlTOpvUu6IWEfqTTtAJn5DhjzKQY74qh/PrKkbshIfvU7qDp3RjtgnL4BseM48tohvFVAG6WL7ioj7bKPcpOV1P+pGe6MsSDFeV0iQxWrinILo7SMH+UzWOYZJ8Iwc/VM/ZOXRBfqb9PbjvYE+KZN7g+F47gG8e9LznQPkQF/EQUZkOR4mZcGoIm+8+dgOMKSRgTUVMCRoV8xTYIiaYX2+O4F8pJ+s46nAeEy+lFOMdKyMMgdPiSuU2ZuWPXTf0T7me8fUlJpZ0iqPPXLN+8iIV/AaazXedIGmLn221l35fDXOu0Sjjeequ7SgW7upDm+8VLMveIMue/Pf1boXv0GDuW1OW1PLedWdvmIyu+ueO/TO33uH/vdv/y/d8fUbtak9pWFaMzmZxOV7zGzIt/5doCqjXHUmDqRTOnzgsN70xu/w9b2geP0wcb8wZh0A2v6jG+LHUKRf4XrTTgBt5sh9l9nwsx66ufsW1wMzEFODb/xXEwf8d2bnhaOGRR5xL+YjDc3SCc/k7aonFR6e2MPneqBPRgDs7aP5Sr2l9lRd995xvWbyfZpLh1oapOo3tqk5olyuVhF4LBCuHB80cmiNF5zdlLpD3/e2LNa2Mx04eL/mu31teerzfH2nfD2LstXrhPkCTLhY9v2d2NByjkh91qFcnGcFdNaxs6TTpvPiN6+94eFHrygGOho634jjdTyQA3G5CTiPqklD4BxGBPuQGFvOE5+yIzk+GpAP+dFBQwaUicfEJ25Z/IROO9aDuIBOnTQnMzxMvpEsyZvf8bk2dSIfwDbWnXKIizcdz6F7Ogs6/0lPLjbNqFt+kzbqLxpsyEx5jDjE4Xl+xzqdDJABUBfSxtcPuUbIynlIiTwpf9KgQC7kjzqjE2QUAgLjGhIf0o5GI8eoU+woVwP1JG90y7WjzuRHeuqKzihnkmSJT5yoi0lEnQKMQOpBfOrMiEKUkfSEeL1IF+VFfka/KBO9cB5yjuD8ybQfwAgI6cmL8tAddaNc8oi6jffk5GuBpxqTujoexg+55Sc952K/P7QBYJ2ZmpxXbu8UkuuaLQ8pWzio0c6bdWhhOQz1r9l2nmobtmvUnNKo6utWrYtvv80vHA4TSj/y5x/SV6+7Pnzpj+u6tLiocbOtMW3BYqYYJpQ8Mkmt/B7Vpk1Qi/pP/+nn9LKXvdgmCUY3a0TYILZR4BYY5Hw0iPcg1xBw/3C9OIb2BtbhUndJ9VrT7SLTTLsZhuqrFRvO0KYjZSMbCt5W/IMQ3Hl0mPO4yltm5XHcebkG3o/3no2CcUeju76sBz75bnVu/LTWV32/qaWuZjTbL15F5TohXdg6IBdo58sapdZRf6RGmlnGsXYNrMfLX64r3/yTGm97hg2UZRtLjuyyq7n5IXH9cptaFrjha3Q24klN+nQydHqogH06EzocAp0gw9cMhNDhRhKmMROP+JOqI82xiAQSO+HYmREi2bGNARCPwE00SSyPBLEM8qMzp1Pnq3Tg+c9/fvgAEIRBHMpCLuoY5TsRqBc6iB08dSUd9aTzpnOK+gSxMwDIRHzScp58COxzHDmQNyKeJ0Swj6zxGGmpS8w3lvVwQB7kjXo+tu7kxTUE5En+kQDJH2MjlsF5EOMfC/KmnG/mmpIn8aP+IqIMx+bFMc7Fa3A8RF0B6h+vHeliHWM9ORfjs+U8x6nzZNmxzHh9H07uY0EbIV3UGW2CcrgG5BkDeZJXbG+koYzjGTWPJSZ1dWIUpBewspRsxfKGhd5NrkO8U+81otrIumJjfzBS36THLH5TmA8TfG2si717doZFvz7+l39lR3Nl9MQyjeMMfF8f9AN4uwCMmVlooCM+DkQavqL47Gc/M+gXUqVexfU78T2+GiavN9cMfOpTnwojMxhnleYsIrpGvPHgsnHRK2lY7vjQoKd6dcrBDkbV/SJGAHqD/W0cjTMbosv1YJzA82Nnz/LEfEug6rq6xWng0LQXPp6/X4PbP6/r3//bml1+UBsbqfXV97mj7SOQvUOhnWI/5RsK9Wn1hiPLN1DTpL/PdkJv01N07vNeo3Wv/0kTvPsix2+kbd+Q7pMtXsV1ZbGkWnJ2kv6TenifjoQbgBuHRkvjBdwwzL7Gy2eWOb+JQ+dEfBr7JNmA43VwsRMD3GSEmD561ORLuRwrbsrCMOBmijf0IwV5kQfDoXSwTCjDM0QOJlBRH4bk2cYbF5kIyFN0DA+PyTrF35RJmJQ/6ob6kTe/YzkEENMRyCeS0SQm45COcmN+hBiHtCeSPSLqnEB+8ZqhD/KhDpOyxjqDWCbH0R0BkJZ8MBrQQzwGorwnA+JRPnmxJURdA65RPB4DONm6R3nBpEwcj3lE/cS6g1gObTieYxtli3o8kRzoZlIG0sXflEG+HIv5sI1yTKY7VaBOq4bJf1bf0ePe5y8kZ4/bkoehbXPGEU8TDS5TP9ejaw+yGIa2Ln1+967d+uxf/43e+c7f0Ve/8pXgTbNmPnmH65G4Ldr9LK7CClbyZQEayggh62nzlg169au/VRvWb/DZo0YzegyJHgXidSEvrhevX7I0M496+FZCZiGofj5Y0PDgfTp4+1c0nS2r1qrZ42+b0GtqmtR5lTEziY7GbsOJjYhKTTYJ1Gy5j637pOs6tmKKWfy+H3wvjVnp0FTN8/2qdVizfg7t3qVFG0pzNqbaLnOUtAK5xwDClmy88Z0e5gGw7r7NSNWskpGts/BaI0bJtsvUdN85qvJooubzjmBjJOi/cmKj9kzFk5706YxptITo2TEp7X3ve1+YzBU7Jho1JEBHx2/SxhsIHK8BxPOcI3CTkB9l4KVQJnnFACiHzhxZ4rFHCuQlL/KJ+fHclWMMFVNPnoMz+Y5zlB07a2QvOoaHB/GpF1vAPvqMBg3h2HzifiyHbUzPPh4xv2O8qNeowxjIN+6TjnIBaakfxyfLPR44TzxAOvJEZ/E4W/KN8rBPWcRDTuISb1JeEGXjOkegX+rLceQDk2mOh5gP6WIgDYFztKXJcwTicy6mXQ3IPVk/4rNPHUEsh2PxNyHKQfkxXTwPoiwnA/QIYt6UB9BRrB9ABtpwLOuxuD8eUzD8fAQrdTC15CtLweJhJ3YT61W3+/CceGBe6anlOo4Hy5pquJ9x3ZbnF/TnH/gz/fF736ubbi0cjjWzxSOvMDJifdDuivbu9g8ZOl24ThxBPz7mFmB+HOnCCy/Qy172cs3Nsv7F0WvKfIV4vR4NmHDJaALzQyB81n5g7gXzUHjxITFJd+Z3a+9NX9Ctn/6AOnd/VdXDezU4sMfefFfN8bIqNeYk2OBz3TKTPTVbssHAmggM1tsccN1ok3aIHBjVcA9lfdm4dxXCs3aHpo8fuPtutTvzmrXB02eOA9clXBvrZ2V7JCTck9ZHxmMCOznoDiXZ868OulpIZrXuggttnfLaZa4mFsyI8QUq5nvNuZyNeNJP5OMGoPOInQ2dDO9ZM3kvdoDcSBwnDjceQ+Wx446IndEkSBNvrEhodFYE9smLbSQS4pKGzo4bO3a2jxRRRsqhjnj8vCbFs1zeh+e9biZGxVfPYocwuV0NkVwJMS5bymIbdRK3k/lRZ+pKHSkrpmHLcdJwHMT0ERwnkDaWQyAdgTzAsemOBR0ncciDgEwxP8CWcrgeMd6knMQnRLAfdR7P8zuSFbJFTO6fCNQzBvJE7lhu1BGgjMlwIsQ6ky/y8DvqkP0Yh9+USV2i7klHGRh4ETG/mPZEiPmQP3mxz/1AenTOb+Jwji3H0Wus28mWc8qAGDEEIoko9vEQLax/EcG+oknHZnHYr5gMG4l1hQFgrzLBo3WyXffdq/e//08DeW7bvkOLC4taWlq2AckqksXiOgS85KATRghW9BNEsU589VGuQ6YrrnhqeOuk3So+sIXumNAW753VQJ6rgX6FuSqsofD//t//C2sr0DcysRZvn8H1ipm/2ayqMb9LB770CWV3f029+27Tnltu1KE9d6r7wK0a779PyeIBpYNOMIjqrlObNlDthMcCjGmgRbfKEJwrFS28barJ9H4Td9N1nH9wl0b7d6vWX9bIfegY3ayEkG4isIgPueVj3r5wXxvaodv/eKT6qKfDnbE27zhfydotsrll0nf7c4GZy2KE5jS3vkeMJzXpx0ZN42efzofZ7aw2BvEzFE6nFj3mGC/cYCs3WkTsiCYRPV46sOi1EI8tnRfPrNmSD/kTuBmLG/Oh+T8SQDZMbov5MzeBTpVO4Ed/9Ef1hje8IchA5xo7X+RlH5yoU4j1IZAG2aPMsVPhN+fB5D7gPIF8JjEpz2T8Y0HaWP6krNT12GPHA/GQabJ8yA3Z0dPkOeSJZMvxWBeuX5QjbkH8Hc/HQLqT6XABecT8QMwvhpjnsfEoA0weOx44T/2iXGAybdRjjEeZMT5bjkeZ2IKoU7YcXw2T5YNohHGvRJAX5zke98HJ5H+q8dC7c/LXig5NC0gYHlVDND4MNUNfrknhoXp/4NstTRkVqmrX7t368Ic/alJPtbS4pGajoWkTKbphtjz1b7RYJ8DkQ1+BbsjX+z4UvOCgIX577xlXPUsvfMG3WKc8LuNaokvko/2euA2uBu4Rwi/8wi+E1THjyBbXhbdJ8JyHLDPs8pKF3erd/AVtXN6rTclQ03lfo4N71d91p+bvuEEHbrtB83fdpOHOu9WyAZD0iom+zAMIr+pB95U0fCxoZK+bVxBZhGcw6IdRgHHNMWoNVX1+ec8D6i8cdp2pp+s85j74xhDaVFivwBeAyYF8BMnH6yb9hg2Bvkm/MrVWtXMuUnVqzhL4vnVdkCOz3h/aa509eNLP3qcTB9xM7LOGOevVc5MR6JQgf94p5tUmOmyeh2PNQqoRNKBjQZ6T+TCMfsUVV4TXv3inHELmOJeA4XZeE2NRGFYe47UojI1Hg9ihkjc3IkP7ED4ryjHbms41dp7ICKKHRdoTAV1Q71j3yXSR2DjGljiRRCiPOsemF9PH7cPh2KbKb/KelCNek8mh9dWATIB6k99kHSblmSRq9okXyYnfpI3x2Y+/j9XjZBmT+R8Pk7oDMS0BoMd4LsoGiIdMx7uGnIuI134ybUSUP5ZHXfkd855Mw3G8Ph5ZQQInq3vyjffGsfrgOTYjUJxHRrBavU4HiqsQMTkqV+wnA8tNlVDVirq4y8Y+xlVY6g/DsD7Ihnl4pe6OW2/Vz/z0T4d23DCRoWee38frgI5JjwHPNQl6c2acYxt1w6z+YV7R277/+8J6D1wudIeOC9IH33jdJzHZVo4HJgXzwTHW/6A/pJ8BXC9Wy2SSMONAlFK79/O6793/P6297zq1TbRLA+ffWqPh2I4O19Vp+nlVy7n1UZtVbWpW/fXP1Jpztmv9JZervW2H8tm19t6bqtR5tTaYUcVndevWUdK0coeqH35Qd3/wd7T41b/RuvHRD58dqfIKkImrVAnT9GxEuHy38rBCYjOzo5d1tdhfp8MXvUDnfd8/UvOiqzTsLaldpy3WNT9INHdq55GeMjypSZ9OL3b23AwMffNZVia80XkdrzOcBHHwlEkb86KzoqOC0LnJuBHYf+ELXxhWc+MddtLQSU4+E0aGmB7SZ6SB78Rz83NDcz4SFDc+NxbnOI6cscOMjwXwCkIH4fPEY+EVPHu+tY/xETqVk+ycTxeQHcS6RTzc8RLfHCIJRJT6fHzBfR1Jmv6AZ+N8//7Xfu3Xwv0d2/lq4JoRL15L8mM/5v1P/sk/CYtl0RdEA4q+YfLNmNUQ86FfQj7KoE+jr/q3//bfirUWeK6PDJRB3vQreP9XPfsKk2grLFVc0y595V3/SbVr/ko7WnUdsNmTMurgdExzTFgjmGF6g1EQJjYe1sYwaU6tpmq8lrrtPE2ff5mmd1yq6rpNGkxvUt1kPx4n6lda4juM06Nlpbd9Rl98z29o/TKLFw3sufeV5Cyd7H7W+WaybvHsK4WDgEEQjQJGJ+J+vdfTfc0Nmnrpm3TeK79ftXUXI1yYG9AdLKmVFq/JHnvfHP29On+cLjyph/dpzDRqbgYInCV2P//5z4d9jp+I9OMNBiBk8oF0uSFIz7vaTGj5vu/7vrCsKt4957mBYt7kQSOJNy3neR+cb8szsz5+YIWblXy58YhLecTHG2JCHjLzjjydB++VMyqBPARk+Mmf/MnwDJ+bPd7AZwuOvakiHu54iZMD+psMYJJoSv2eWqDr2A/QX3CP86ElXhU+Wd1PXjf2yY99AvnxESheoYvlTPY7JwPyxEGgv6DfIF/6lN/8zd8MH0rCUUJ2+ibK4xxlPO95z9P5F5xn77uYIJxUulq++wZl996pVrUSFuBhLQGkDyvm2dt2KwyjGC7V20r4iE4jN2F35jU6uF/Lu3gD4A7tueGrevDaa5T355Xue0Dp0kHVWMynkqlRGzqvnrR0SPkDdxZD8qb56jgjVyoUjArmBLBHmQ8Z/g/Hi/1qwiJBDXXztqbX71Bj/RZl1WKeAHUkJjj2Wh39/dDjZwqe9BP5aKTcAExu4xW9+B47F+7Yi3ksuPCQbSR/9ieXl2UlNgifr7FhBROH49EwiHlQDmkg7CgPAfJndTIInqF/bq5485GOOBA+jx8g8/hdcn5znPN8Xevtb397eKxAOchAWspjezbjRNenxDcH2sTk9kQo9f/oMHkPso8++QAR3jM4Gf3GODF9vLcJ9DM8ysMZiGURh37hZBDzJD59EH0P/QpLef/lX/5l2I+ET5zojNAH4eA885nPkJ1sVZErGWh84H4t3PZ11bOB+kyWM6m7EJNn0d7CYweW3TXxFuiakDv2y3tq5l21s65ag2W1OofVXNqr3bd/VT0bEt37b9XS7rs1v9d66x5UK8nVsloWbvqSyZ5363n0AcEDl4bO/D/NXTZFFicCqC+f4+VY3ug7Tk2dQx3VG7Oa2bZd4+lZmxDWH19gXHmME69BxNHfDz1+puDs7vUfJWiwgAbLe/l41Vyw2NhPhEjQgG308BniwtOGcFnaFAuYITGOR7Ln5gDcKIA4kDVDY5xjEiCBNdgxHHgNBrmwrDEgKI/ymS2LsYEhEFek4zjD+f/0n/5TveUtbwkz9YlPvlFOyjtbQL0nQ4nHHqVeTw+i3rkv6Tt4tAg5x37h0YD7nHk8sS9j+83kSz8CYjpk/cxnPhNIHyAnhgV9CecYESAugdFJlsrFlw+vwlVStdefo6zu/sqsytcG8cGZTMg7+AEm/Jie/cW6HaFmVf12qny2rspsqnQ6VzrVU73V02Yd1NT8fRrfc53mr/2Qdn3s93THh96lu//ij/XgV64tyD7MoigAkUdgX/CTAPFHECeGbmWk2rin9Z0F9W+5XtnO21yfZRssfGr97L1fntSkH0kQMIEOkqVxQ6Inc3Nwk0LSxKWhQrikJV+e4bPqHceIxwhAXOKUONwwlB3Li+AYeZKOPDmHx4+3zjA9xkOc4BQNB36TJuaDofAP/+E/DM/vWRmLeMjADXq2IXaKbCf3Szx60PZimARtk1Di1IP7Ev2jb0b6cAy474+9Jo8E9DfHPsajPED/cSIE8jXoPyB2vtTJN0iQNbYb8ov9C6A8+iNGTg8vzJNJYJlxNVF9eoMqzTW8sKhWbWVyZiiiIPuwoFD08jEERnZgMjtBo7o6o1SLo4oWMjs+LutQ3tfU3JSa03XNthKtryxrS3e35nbdqOyGzyq78csm6JFz5rHBOORdjCIURO8f4XcIgQYnwsrxATGtp/V113HnLTpw25ek/iHlva4qSZHL2Qhq+aRFHJaC7Jk8R2OON8PJdHqkJdDgIaJ4szLUzvr2zF6NN07Ml3jcQKQD7BM4D2lHD599iJzjyMn79K9//evDcD83FGVygxE3lg+p813zv/f3/l74vC0TbADpkYs8iRvD6QYyrxYiTvb4saHE6pjUU6mvxx/Hkjv3dbyfHwujixn10QuP+X0z15u0gLhXX311+DQ3bzHRL0VE8qc/owz6GsDI6YP79jLRveBR/jRN0nPr/KPqw9QbmVbk8jb2lSGuCXemX9NMr66pQU3NQUONvKVW1c5TbUazjbnwYZyFXq5+ntpzr2pdI9G2xlgb8q42VofhOX411LPQcSD+lfIABgehOF7gISMAeVsD1y11npXhIR267Xrl996q9pgJkSH6WYmjGngSIhIvz6Z4DS82Ohp13F8N3BQQKY2efSxe8oTs+SoYQ+6AY5xn+Atwc3AuGgL85jykjYdP4Obh5sdq5jfgUQHEH29i4vOBGrx/rPqf+Zmf0T/+x/84lA0Y2qMMyiU/4lMvjsW6nw2gvpOhxGMD2sJkO4+6PVbfDxdKPDpEImaLPplPFA3+SLiPBvQDsYxj8XDHJ4FMvBrIB3+Y73TPPfeE+QEYJ/QfBPKhDSEv8WN/wxc0A+mH5sVCTo5Xa2pmzaaizWU9C1G0PYi3wFGZoOmGybZWYxSEBwEjVfhq38ChZ0LvDjTto/VxXcO8ocV+RZ3hWAM3y6VsoA4PD8ZFOIqj+VMkSxYTjkX4JK9DPZtVNm5oYdzX9DqXc2Cn9t/41fAe/9nc+k985Z/AoIEypAZpTnrMNOBJC/zhQOMlHVsINZI+HjjH8Pg5H4fHojHBjQKZxxs73iyTZUZiRr74m2f2TApkkgz5YDjwlTKG8//ZP/tnes1rXhPKiF58LBfC50Ykf8rm2Jng6Zc4vYgddgyAtkg7OZn2X+LRI5Iv+oZMuWfjfftoEb9IGK/t5DWN5a4G5EAmliT/0pe+FNJEBwJHCdBeYqBPoQzKo786vMzwPmX6uP9V0kRTM8XKgNmgcIDCpLrxUeaNsoJDlcOaTxa0mC5pud5TvzZUVrcBUbfnXZeavb4a7sbqVfe36YzUmlM+Padea1qd9oyJ3WW7/OKZ/TfWl7JDwARABoeqA7P5CenIfWlSM+kPtGbjrGo2VA7cfacVmWmpVzh0ZyOe1O/p00BpyH/1V3+l//7f//uRY9EjptGvBho5cTEa4idhsdJZ7vYP/uAPHvI8Ld4Q3MzxpjiZGxujIXr63HCk5UtWvAdL/t/1Xd+l7/zO7zyycBDnCVxWto8HjmdAoFeOx84FeSZHF6Lu2WLYEOhI8HaYBMSjCbZcA85Rd/IjD3SO7vgGO4YVIxosNsRwJjrB8CFM6pg8KI/jgHyjpwKiPBEne30eD6A7AjLG64qshMl6oB/Os0/cmDYOudI28dzQM6918vlgniHTsWM80o7RM2kA6Wh7LLVK+0bPEAmTRBnNYuJpbJuUF9sdIV7rKPOxiHU4laDcY+8B9MVx2lD8HfUDuO5RLmSnHjEP0kW9noz8Ma/JeFyDeIxAu6TNondmxP/qr/5qSIdeY1knArIQn2vLNjoavJjF4z5AudQ53kPkHe/PyWsFyI+6MrEZeSB8rj3xyZt8kJHRRdoN91TsB9El9WHC8Y/+6I/pJ3/ix9VZnFd7tq3hwi7t+9LHdM+H3qULsnkt9EaqmcD59j+r3I1HSVhZMHw7nyfqfGLYKJ7Hr1zHittXvKR80MiIE/HiMP2R82MbPCu7gGjxHHHD834fxKs/ksQh8+UiXm0wUscR07r7E//udHtaWnuurvyRf6nKFS/l+36O7esYDIoiUbFOH7/ph705A/GkX5EP8JrML/7iLx65GWInMHLDXg3cBDR4PG46QG400nAz/Lf/9t906aWXhrxQMYH82ZLuZAmF/IhLOmQjDzprJtXQ+TK57+KLLw5x6Tg4T3ziTnY2pwLUm/rHTgMZkYE6R11OdphRHvREPOZR8FjlzjvvDB0MhA8hcQ4d0ZHEerONmMwTkC+kxPvIGAKsb8BoCAshxWsYrwNlEx8dcY5j7JNn7NSIG0nhdAJ5ALIdey2jXogTO2kQ5eYcgNTpgFleGn2zPjo6h+i5fqSLaSmDwLVji34IXA+26AWyx8BE36wsic4ZRsbgYvQKIBN5sCVvtgTSx+tAntFgOFWAUJGD8tjGey7WF73RHgD1je2VuLG+INYjBs5xLOb3cOA89UQODKdJg5NyOB9Jn2PMin/Xu94V8o9t/0QgDnkRn+tJXhA8sv/7f//vwwqcgPw5Rt6US7p4L0TE+iAT7eN3f/d3w7oB7HPdyZc0lEGZ3CvUiTw4jv5iHsR9/vOfq5+z4VFL3UfUbTyNDmt069X6+h/8kjYcvFepvfJ87Hs97wf+rvC9+mqq1CxeqTq/rMhr8pk7GMffK6R/FEVdotaOx7mTGh1XT0D6zn7E+v6JnQWf6fWHOtDaqEvf9o/VfOarwlf8QEH6hhMVpF+AdfzPRDzpPX2q/6EPfUi/9Eu/dOQmp+FyU9OwVwNp441E4+dmAXQab33rW/UjP/IjoYzYEXNjkDf5xpvvZEH8WB6yMVEmTtSJ5wmUxU1I3BPJ/1iBsiAXZIkdObpA1tip0AnwOtKtt94a1ulmy9oD6IcAiBtDBPvUIx6jrHjd4rlYd45FHdNJXXDBBaHTe+lLXxoMpAjSkEckBPQJJq8H+cT2cLoRdRTryz4yx3YFqEe83nTS6Pb222/XTTfdFBZRYdQEHcXHSpBRrG9MB8gnBsqLZMmWcsmDa8kWkmGkBd2ymNQLXvCCYIAy0oURTB5RzzFv0pBfJMDHC+gr3tOxLQGOcZ0ndQDiPB8MUd6b5xk1shM/Xg/2VwNEDzFSb+bjvOhFLwr6J22UgfPcM+jzV37lV4K3T77oiHQnQoyDjrmm5M/1wTD7d//u3wWnIMpLnpQT845tCVmiYcf1pG9597vfrY9//OMPMYKJQ3x+k55z0Rjgfo/14DhynLtji37hF/67NmzaZvL0/ZUvqXr/dbrxt/+j1u27TWrPmPC7ptOBkrHbWHXKN7zbWViad2ACNanCysfDmGH5+NZTvJ7e+viR/co3Xp84KkC2I6IUP79xtMChOnI/43aa5+7feUQxzLWzMqML3vJTmnvR65U3N4a4MS1gTYKIis6M/uNYPKlJn6rTiD/4wQ/ql3/5l490RNwE3HiTncPDgTjkw40UbxBuArx8XptjURxuSM4RZ/KGOxFiPLbIE29SfpPnZEcMJjsv4sfO9lQikkcsi3qik0hIGAN4lxA9ATKigyAO6dgSYt2Qm0AdY+fC8VhvMKk78gAcI0DWxIvkhqFBB8gHQFgGGYLCU4nXKcoAKAPE32cSjlf3SXnRO531bbfdFiZe4dXj3aNLrgX1jXHJg7ofT78xf7aT7YffBOLR3gixw48jBsw5ueiii4KRhbGFrmP+MT2IZcVrdypBWfF6xnuI37Gu1IN6sk9bheCvvfZaffnLXw4z1WmrBPJB3sl77kTthPJoj/QrvHLLozhGAaNBiQzoj/Ncv3/9r/+1brzxxiMyc/5kEetCXtyTl19+efD0cQwm6x3lnpR9sj4YjHxwjIl71Df2iZwnj1gOeUa9xXueew5dUT4jQevXNPTz//kXdN4ll6vjqjTyjpp7v66b/s9/1NZD96jjPMZhAR4I3m2t0jRR1sMMgEzOE9I3oHdLGfbdgsNzd5BXilEaltYNr9k5JmReXRnWH5v0jx0lgKCTFbUOV798Gpv0k2ZLw1FfNVYG9L/7spbO+66f0sZXfI+G9bUhXkH6K/ei9eGUYZ+6nIl40n9Pn8bK8PI111wTGnk8xvZEIM5kp8Y+HSw3NUOqPO/iVTtu9Dj0BvAi4s20GmK+8QaLNyrl0GnEm484lBtlJh1xYvxTBcqPHXfsqOJvnslD8oyiML+BJY4hYLwB9EBc0kdEPQLqSj7EjfWmbjH/GNBBzIe0xI3gOJ04ngudEN8y4LUjPDc8MAwB8uAcIeaFHOiU/dMN5EJGQP3jdY26QkbaFeTE98z5vCkfOrn55ptDWvRMO0OPpCcubZN0Md8IjqE/9EAaQiQm0hAmrzHnmBfAlvZNGeibewldf+ELXzjSLjEGuEaTeub35PU6VYjeeSwXmSib49QDGZCb+x+iw8OF9BkZQV5IOdY7ystvAr/J7+FCvCfRJZNscQAAOuV43Ccf+gQmzEGak+dXA/GQiwBiuciM08Ga+8iArPEcaWI64rFPPbl+bHnE8Ed/9EdH6hfjcf3RF3lwjnxJyznAb+KzRdfk1R909bKXv0Kbt2zTgDKT3L7vUPO3fk3DQ3tUq/uaoFJXlc/jZkPks5zOp9aw3GFqvQm0YvkDqTqPwKeur4l9HEYBnAbSJyp19CEov4hnPfrvQ4jf+8T5huPHQVqxfNZLNnZbtbefVBJ1qlNaf+WL1LzwKksEqbvMQPJkho5JubI/MdR/JuFJTfqxc+d5Mmvu04jpEGjYJwPiT27jDchvrF8IhpuJZ8wQDce5YTh2Mp0eecWbLO5H2eLveGOyH/Pn94nyPhnEej0cKINyKS/Wh5ud54Dx+SQEREdGnekM0DkdCHkTN9YhdsCAOORHXQjEjfUG/CYQLx4nPR0OspA/5yA9OiXyxQthohHyMNrAksUsegRh0SnH8siHPJgURX6nE1G/ILZLjiEf9ceo5KNMv/M7v6NPfOIToU6RsNEBdUf37APqxjny4FzsxMlvshzOcW3QIeXEdOiDeMQhT3RKHHTFFgMrGrakh0i5B0iLkcWQfywnXutTjdguAPckcvIbmaj3Zz/72UD2fF2TUZJ4nnrTZpE3tjdAG6be1AU9cf7hAkBX5APpM9mU45P6Zh/w+ICP7cQ2H4+fCDEv5I46RS7mW/BIYbIstpPlxnbANaNM3sNn1JP7hGOx3YCYLh5Df6RFH+iL9NQVfSMLBuGadev1mld/mzZt3qKcj92w9G4y0qF77tCdt92uSn8QPg+cuqpp0nDwdao6FEU5T8gcwoe8C/27BiZt12mchJH8gvDdR1I3zjta6msV3s8P54vAc/q4vG4EKQqzwNtQP/Iuti4h/M2tpyx3nbORRtlY3foarX/ay1Q/5zLlfAzIBU5kGdLwN+QVFxo6w/CkJv2RGykNn8/YQvo0XBo1N8TJ3HSTNxqYvPlo/IBJd3QSPOsk/9iJ0hnHzuhEIF/SxfTxN9t4M1Iu509W9scCdOzxxqfOPD9mxa4/+ZM/Cc+TIVQQO0wQ95E71h/Z0TvXA5AXeZL3ZPxJcBw9UlfiIQvp0UHMG++JDpd94sRrwygMHzXhmS2dG+QPiE9+k0RxukE9kRu5kJ3fePa33HKL/vN//s/BK4X8qTNx2MYAqB/XIbY59MA+ekFnUb+knQykj+Wh16g/fnOe6wPIHwLgONeQMohPHIwBHu0wf4NjfN0xGr/EJf9TCcqM1xxA+shL3RiJYgSK59aMTCAreiGQjnpERGIjH84RF1IjLnV5uEB8ymeom/U1mAEf71GOx+tEXB7FMDmX3zHOySDGQ5/IE/dZEZSluwFxyDPuA8qJW+qE0ci9S1viDQ30w3XlPPWIecT7K+7TjqgLgfJpUxzn0c6rX/dGfcsLXqB203piqN3/avlAeb/ne62jWmdRidMkzjt1GeEZuMmcj+0N+M69jwcpee3P6RPrqSBV3/fes7nASRM+Xj+7bpum8ZT19r0lNq0bwg+k7zjBu1/Zpv6DGtgv0jsYtBaMh1FmPgj5WBSXnTniaGaLNj/rVco2XKxKypyBWAqJkQr5irCi4jMOT/oP7tCYsbLxSmis3ADc4AQa8mogbuz8uHG5GbjhSEvnQkfJMzJuaJ5/PuUpTwk3EMPc/D4RJjsGAuWRnhARz4F4cyJLjHsqwU1OXTFs3vOe9wSPCeJH7ihH7CSIO9lxAI5zDDnRI4HfyI4e4+9jEdPRwUR9RFk4R7mcp0OKeRGHTgzE6wrxY5wwvAvxs/AI+RCffAinE+iJugBkYUia5/X/9//+X/36r/96IB9kjYZN1CVAN/HRBunIC31igJIXdaauIF6nGGKZ5BX1cOx1IE5MB5miZ/SLLMRHx3jDlIFxxTLXbBnqhxDifXMqgcyT93BsT7RR2iueLQY/MnI/Uh/InjgQNXWifmxjPpwjPgH98PvhQtQRExu/4zu+Ixg8UZ+xTbJPHBa+wQDhGGXF63gikB5EYy7qnjkVPFok70lZ2AfEo22gk7/+678OM/XpB2kfsb1EQo9tgm3UIdc8yk87pP2hQ0YJSPeKV7xCb3nrD2rrxnXqLftYg3uTst0urNutazZo7ZBHnnXlo666yx2NukMTq2Wrur3VMDitK4b1V4b3GbIvSNXl2jjgF55+8NKPxIHwvXU5wYDwKTx8Ju3xtMBZHkGNk/HYynE2lMAW0s8sC98JqDMckdSUrjtP65/3bdKGraZ6Hm0gY8yAPccrbh/Xt9ieaXhSkz43XrxR8JiYCEWjjzfDZIdxPNDouRkAeQCOcXOQN+BGZ4iTwIdv6PBiHLaUEW9EOhzyib/ZxnxBvMkA28lzk7/ZEveRINYngrw4NtlJITtAPp7d8hwUT4E6YuwQL3pCIMoVOx3OxzqC2KHEQPzJ88cDaciHLQGQlv0o82Re8TfgN4Frjc7xRPFwuD509sSN+ot5x3rHukzuPxrEd5vJa/L6R8LhGDpldAKS4rEJBEEaQtQB7SgG0nE8tq3YxsHkeY6tFsh3sv6TIYLzlDEpB4h1QMdRpxi/TJSjPkz4gziiLBghEAeIJPLNgPzJK8oTgX7jPY3cPN7BOOU1XYwSCIryo76jXvjNlrxiAOQPOMf+aoF7hngsnQ3pxz5lMs/YB3H/MPmSfa459SeP1UB64lA3RnOQGXDszW9+c5jER5mUQd3YJw51RA5+0+9hQDKHAT1xHeL1Ig3yxxB1AJAz5kc80gLyxeBgEvP6dW3znw2YcC2dPgQb3vU1qm65SLWLn6Lmxc9Utv0pWl53jhab01qCSoeZhn0bkbmdAefdGvUcukqzgQncROxyB81Uh9NlVeoVNXyrNnxrt03yjSrr9Ve02M014It4qctLbBD7X5K5bZjIeRXPrVXdlu8LvrQXpvHXNUzbJvmWqsO6Gv26y2ipZpe/YYPicK+vg831WmvCn7nseT43o/qYEQe3F8YGbHyErwQ68L195htQ5pmIJ72nDyBmnu0xbEpjpzGzJTwaYH3j/eBxMVxG/rzXTCcQLXPKiIRKudxY3MSx8zmdoPNBJuTgxkZewI1Nh/2Hf/iH4Tkki3cQL3pH1I3OdBKPVpenAlHv1AcygpQY2qSz5BpwnDpT/2gIgtgpP1pQPp0l+VMWecbrz5byOIZ+8cSYDIlhRVzSsY04E/VLG2BUCyJBXtoGnjUeJUYhw8/on7YUSQPdcr9Qt0mSOR5okwD9HRsA5ZEXuiE/Jpay2AyjO3HoOuJU6u+yyy4Lk+qoD+WwjWVTB3TARExerQTE4dqfSKaon5hf1AdtFtLHwWCkER1wjnZFvWNbZvSF7+JHwgcc59oQ70Tlkw9lYcRhXBH/jW98o972treFviBNfS0cL9R0ZXb9ZOgwbD+3VlPnXqB1V1ypLU99ujZd+BTVt+xQZdN5zrOjXr2tgT3sfjUVbtSYpLmNKYcZi1e3gVDpdTV0uxkMRhpBuCbzdKatXnfZcW282fMnAKrEgHxueWom/Lq9ffe6QaSsOgrv7qc2VKrjkdPPa7ptfdlYWMzrmrvo6TrnWS9VddslGlUbjjdRHzYr++TPFiPnTMSTmvTjjcdNQ2fETUAnS8OHuCY7hUcCbqQ4DMYNArGQL++PM5TMPmVx49BBAWQhfiSk0wl0QQcQvaF4k9NpM8TMbGP2OU+gw46GAr9jnY4HOohHq99HC+oSO07qiQeNR821wTijznSWxImdM+DaUMdHi5gfhIQuCOgM3aB72gdED+Hz5gGI779zLsp+PJwJ+qV+yBjbOPIgF548umY4mEmunI9tK+oVnUT9PBwm9QbiPmUAykaf5AOpYqQytI/u0G9Mdzw8FvqL7QbP93nPe94ReSfzZp/jrArKmw8gtstYj4dDzJ+6TN5r9DsQL2RPHPJDB5POBZOXIXweazJKQD4M68c+62RIn7y5z0kHmDj4/d///aF/I23qOoZ/LFLDftj6nqJu9oxHtSkNkyn1ZQNWU6o01ivdsEOtrZdo6vynatOO89XcfrEGMxu07Hj29cNafZUxJJ6pNbCuLGIraahRtxHn7PvjgbpZTwOHNfVUTfspYWQeArZMruaKCVBRe1yxF8+LeHa8sq5GvDpYYc0Amxd5TzOJDTTrdr/LGazdofNe9Bo1r3i+ssYa9SopYxYT4HoWIU4KfPi78/TiSU/6BDwRGu/f/M3fHOmcTtSpngzIk86MmwJrmJsT4qfT4z3aOKkpdgDIwQ1JudzEyHI6gVzUAXnZR37eI6azoBOlo6CT4Diy06lQJ+oAebI9tuOY/B3rfbqAfHSC1AMy5TczuBnqZ/gZ8qdOdMp0gsQjxP3HQn46WMoF6Jl2wnXHmOL1OwIjEMiCrMcS1pms39juac+0D8AzferBmwbUC8JB19HY4RzpaHcnAvFjHY9XV46RL+X81m/9VvCkmUzI8Zj2VOqP9LQfvpfBfJ5oLE7KDdANk/iY84CuiHM82Y4FcWmbtAf6mZg3cwje8pa3hHOxDyJubDc4OEza+9jHPhbeKKAtY6zT7ibb94nAteM6kjdvJ/zAD/zAkQnLof9idnvw8K0LUyBkGCbNhSPuH22npA5JxllGKxguN3nXZpTU1qq6dbNJ/0LNnnu51lxwueZsANTXbFKWtmwA1LXUqWhxlJrorQe3G+pWMVnXKpnavqXyfkfZsK8xYdT3AQx4l+m4ac07zBhMfI00MOlbRyb7VpqoWa0oyW2GuO3u6+aar6/XuqterM3PeZW04VwtW0pW6iveU/lG2JYIeHTscerwpCZ9bgoaLJ0trxQxSYoOgpvnsejUuZmxtrnZyQ+CpCxuFM5dddVVR25uttyg7HPDcIOebkRCip0KhE9nwcQfOmfqRj2il0Yd0Ck4XsdxbCf2aPX7aIGeuf4QKbLGekL6TE5keJQJfsRBVgJpqHvcPhpQFmWSP20EoG8In1EUXiOjrUSDhKFayqWdsD0WZ5p+qRv1IqCrqDcC9WFImJnzPFLhvXLOcy1i3BMBvQHqHUNErDv6Y6SEuScMOaPDeC/GthpxKvRHngx5szw09Y7EGs9RBo9AWIkPQ5nz1P3Y+hwPsT2iS+5V9E2dWBYZQ4N2wv3J8Vg2OucVT8rDIEMPsY1B4nENEa7ZiepPmcRn0t5P/MRPhKWvAemoI++1FwdWrpOPjyeyTHCswrX2vqPw0T1UQyDeoOq+MGlr3FqvdO12NbddrKltl2j2nMs0dd7TlG4+X6O1WzRfbWh5mKvn/PiQTzq2sUNernclLOubOO9qsQ3D/LnG2VDdCvnnGlZ8L1Vyk31NjcQG18jt0IcWq23Np2u15mnfonNf+DobIZdoUJ9yXjhjNraCZx9xdD/U0Zdu5SOCZxye1KTPjcANxk3DDcINwTAqv2m4J7rpTgQaPjcanVO8ibkB6dh4rkg5WMaUPenxcaNy451uIE80jJjww1LFTISik0ZG6sN55KcDoaPAYyD+scR0PF2eqFN5tDjR9Yvyx3pGTxvd8y4/dXzuc58b6oL3OdkuqOOjlZ/0tD/0RN4EhniZWc6wPm0Cwwqd0jbplOmcMRZIE0kPnA79ngjoMbYf9qlrNG7QKfJBOASG+fHCOU/cY+v3cIjX49j685tzv/3bvx3WjUAOEPM/diTvVOiP+5/2BOnjVJBfLDPKR+BRx6c//enQ/ugfolFwMgjkutKGopHFXInnP//5oT1RDlv6IYwLFnCC8Kk/RhBzRGhXjNDxiIv8opFwIv0TH+OCIX2MNtKSDnkI1iBKDHHH7HJkRaVsxknPDDRSZs+cYfnOqBu2ec1n8bZN1Jm9+N7IhO4MMhN4tTmnZP021bbaALjY3v+5l2p624Wa2WKjYO1GVRqz6maJFvpVdRttDSpN03PD5F8YABXXya2FCxAIf2DCz+ztYxTkearhINXSsCabPupsukxzlz9X57/8TapeeJWW+IyvzQYGCcbDJdWoI/MSQoVWKug/1JX9E7fe04MnNelzQ9CwCTRYGj+vceENcOx4HcE3g/h8jHy4keJNz28Ihedq3GwMsXFTxg6Sm5Tt6QY6QSZmFr/zne8MhATpRH1RvygnnQ03OjqknkxcpM4PB3RAvNMJdI4csVOkrsgUf/M2B502HTYkxXHO02Gy/2iB7siLctEd7YHnzry6hZGBDATOUR4hxscYoIN9OJwJ+sVYQQbqiay0GerDMe4L6gHRM8E1vj0RyZH4BXGcGLGusb6UQ2A2PMP65EW56JShb/TI/bfaNXws9EcePJbhHX0IlvpMyope2DLPAMMEmWhvXOMYdzVwnjyIS33Z5z585StfGT42xT7tlngYFCy8g0GJ3rlPMR6Jg87ZMtJA+eRDfieqP4bFD//wD4eyYj+HLOSFvp3BkcDM9kp8rS6EkZYsxxgiFp642zivxCV40dCyjY+RvXOnbTjPhonZ/2WH3qSe20BwWWlbtel1am4+R+0dl2jm/KdozXmXKdl6qbTlUh3sZeoms+pldrRsCAwz972Ul7p/rdurH/VtVGThXfzcXn6eNzWszUmbzlPrgss084xv0zlXvUyV86/UOG3aIMFosFyVvm0VOzcp/ZuvUVDTyrWyvK5p2C1J/wwEjZuGyk1GA+d5I8O6EP/JdjgnAvnGjjqSIPvcjHhvLLJCR8Q7tchDBxU798dKhkcK5IHw6SgYmYDkkS12onRSAM8J0KnSkRAHUqKe4NjOK/4+UadyqoEc1Il6oG+uAzJxXej8qAuLy9CpMTmJjo16o5fHSnY6V/SHtxs9fPRL+ZyLz7dpCxhSbNEt+5G0zlT9Iit1QB7afpSXdoFsnAPok+fZEBH3wSPR8WR88qUMDFW8UYx4ZGFxHPSMPBivp7p9kg+jYnz3gfIAZSJLzJs4PDZjJI1rHR0FdHWsXMeC8+SFvtgnQLiUFx+XRB3j3fPKJ2VwHDm4JpTHED3tH8ME0O6JcyL87M/+bDDUyAcZqFOUJ+ThbQRU6CuzEhjtcbuvTivJfd1suya+FHb6lTKrHm+aqXc2BGwu2JkeqMra9xl94rh4Jk95jl8Nq+K5T2LIvTWrKhMBz71MUxddqR0XXKit51yoRntN+CDfYDBUz6E/GmgwyrTOpD/IeKJvXSYNGwKzam7coc1Pe5Y2vuAlmrnUhL/5XBsNqRaGLKcs1d3OkmxZac31CcP88RodbStHSf/RtZ9ThSf9V/YAHQYNn06Hobaf//mfD8/2UQ0NmRswei10wDRozpHu0SDefGx//Md/PHyQg3wnb3jKRE62cZ8Qb/QIzj0SRJKmLpHM6SQxgDB++GgHnhijEXgLUd7Jsh8OxImyR3lJT1nRAKKT4jh5EhcZ2IcIY2fNftRJTM9vrhnkyDHSEY+y6MCIQ36kIURwnDyJR7rVEGWHLH7t134teESxQ6OsyXwfTv/Re6PcyTZEvdknPzysd7zjHeHdcY4RJvNeDcSjvqShHLbITXmco67IS3mUi97YJ0y2M7aTZZIP+WJgxDzQF/KSP8QEyIPzx6aN+l8NMQ1xyZu8fuzHfkzf+73fG35TfjS+0DcgTwJlTm6JS/1oB4BJanxEazVEHYFYf2QHbJEBUmQbDb54/fmNblYDcfie/U//9E+HNhR1whZwDZCfRxC8+so9QRshDuVzbjVwHgMVORgxjIsf4cc95znPCXEoC7JnLg7ykC/3MfHQ2SRi3SPQBzJRX+LSP3JPQvT0kbyKeCZjmI0C8SYsAdzvadiZV3dxv3oL+9XvLatyyAZgY1rV6fWqz21Sc26jGtZl+CYAGTSK1xifaHjSz97nhubG4Gamw+Am5zcTf2jkWMb8jp0O8bkp6WDYfzSInQw3VBzqZ5Yv+Ubyi+eJG3/TMUTSjDj2hj0Z0OmQD2mpZyQyOlqe3bPoDkYQ55EnEkXsbIm7GtApaYlLOeiMY6Qjr0kQj+PkzTk6GjqmeF3osNAD54nHMfTFcX5TBvucj9cqlsH143zUXyyH/ROBPOJ1fvrTnx7qz2/ymsRqeVEH0pCWgOz8RifonQl7vLIVryuyUddjyzgWxKeNcr2QM7aT2J4jgUSdEThGXMqJIzUxPnVALuIgF3ISoq6Ix5ZAfIgMAuE81zaWg9zIQvzVEK8L6Sgnys6QP2tZxDKj/tgnLltClCUGjhEPmSA6ZqmvBtJM4tjflBu9YHQM+I0MvG4Y9b1aYDlcvjpI3vyOiLpCZkbTeHQWdQFOdO0BdYXwuVa0fa4pIwuUhw7J48/+7M+CAYRhSRyOMerw/2/vzmN12co6j+8L3Wq6O3a36Y42bTpRo4I4YRQURAQUFBBQZDJeBEQZBAmCqIjSSgQVvU5owHnAARSHqwYHEL1RiAMiDhGMMfqX+r9/NOkGen8KvsfV1Xu/Vee8e++zh/qdrFNVq9Z61rOe9Qxrraq3tjHW9oh5/+kqXTE2dgHsknix9XnPe961vx56nvG/Dg7t1rsBdz7U7cNAfud/9wEHH3DY9//wn//TwX/8L//14D/+9/92mP7HwQd+yIce/Pv/8t8O3t8jmPf/gIM7HY67Hx2c17+Hvy+u9Eo/5Eg4Cwbh6G9R+90+xWYMDIYRKMdZmhzsKzrGxJmghwdv3T7+8Y8/eNjDHjbdjx/gYIBhg7qj0c0Ndg3wz3FwbhBNW6Ive9nLpp/lCaD6zEnUf05G/3NQx6H7jtrRHvrJNPk5JwcraTLwG3lORt/xphz5c7hePDIRsfsg4UVZ9Z2rQ0Y9j0cbzxKgVVqSGb6VwTsn/+IXv3gK/HhpYhGOokWeyXZcrRpvztp9z++t9LxkZRKjD+QMyec41A98agd9eiK5LimjD9pz7jGGt8m9PKeOsWycOXn9Q4MMrR4d6YS82iJj5chePffVRcf9xn4XooU3Sb8lz6QFluTfGEjalT+Op/vl4cGE9bnPfe4iD/MxQ+so1BZeyUobxstEZxesip/znOccPOEJT5iu8U/3Gw/Aw7Of/ezp/YMmTpJylTkOypEX26TrdMxjqJe85CXTB6b8eWA7VH6qaMyNH7p0D2/5kjCXRzqrDttDW1+MD1mcd/zLu9/7GMkLgSzKuwSHmnR4ZjeIbrzzMB3q6vTnfA8XM+/9Nf/Be951eN/f0P+3yz8bvYi40kGfEVB8ys14iIKCg693ff/3f/+1la78yjM2hj83mhsBh8IZW7GZSdtG/+qv/urpJRn8aJPhQW9w42ceeOYGuxZjMNIvDsRPevxJXHy5hw/3OCXtFlzl7YK+cQ5kN6qZPmnXSp4jEUh9t8B5KxTgaMbdAX3kCDksTtcb9oKm39YDvvCvzhg48Vn7eELHccmp4pEzVVdZn1J92tOeNtUfZQ+75J+cHNMhffLTR5/Vfetb3zr12z19IBfHJdQX41Qb9JL8xl0QZawAvZtghUbOff9eWfw4Rw+SF35MUEyuBA58eseBHqLpfpNk8NKae1aVfeNgF5K/diU8eFfBtrEJlm3k5BVP+FWvvsuPF2Pinh2ql7/85ZOtLEHdEemJozHSH0c6RRYFWP2mH7uAn2c961nTJL5xwHdjBWjceuut0880le++45J+1v/0yTj5+dy3f/u3T4/m2LHxMh5koZz2kuMcc1nEp/J00s/yPudzPmfSTe2hd57xzveN5fR7/Gs4lO37ju++k1f47nx4djiBueXQTx3mlm5R5cZc6rnHlQ76nCXldaTwDCFHxQHdcccdB9/6rd86vVls9SnQEBeHyvj3FZ02MiA8mIEzSg5T4PdzMc5MO2OQiV+OIcwNdg04FX3mtPEi2Wq0yufYBF1tAaeHD9fqzJ3XUSAjzkb/OEyJ7PxM0UrTV8NsEfcCUdBOTjyQiz7maNyPF6skbyZb2cjXDzTwNx4BjWS35FTd10YTHEfvOHziJ37itXbCLvkLvuSXw3Vu6/mlL33pNGFBR1tWyz3SMLFRbhfI0w4EGWgj0GH00KVDvpQm4Auiys6Bp+QD9UUeOo540mdvmnv+7MUw9I0vWWY35CQpv4T4NqaNCRmg+YhHPOLgGc94xkQrPe9oTJxL7quLt3i0S2C1v2tMQL9qN8hD01GfjAE+0TZR8viNzNntUbIcQT4+WmOSNQJd9LQt2PvJG77RSxfcw8MuuM9O8WtygobP7z760Y+ePjfsESVeQRn2RAclMm7MwlxeeDEe/NHTn/70aYWvjHw0Rvs8j3jPoXlP38MHfat778vyyd5/zTzUr8PLSRMS+7+qxaXCld/eZ7y27IAzYYyMjgEyCn+cQ0CxCuf05asjQM+N5nqRYWtX4vBbTfitLQNmaDDyaebOmMehmxvsGqjPGeS8rOZuu+226RcM6HEkDJxMlDE54CAFaefyd4GM9Idj5yAEHUHIM8e73/3uEw1OVRtA7qCN2u8+XkfnTF7KFzA4PB9XevWrXz0Ff+0VEKKHhlQgG+kdBQ7V4wRbo8ZaGyYqVvvO4xvQn0OdHCRZadNRvher/DwPD3gV5B216dzkSB93of5o2/gojy+7Brbu/YbaB6Bcg3vK4GFcpaFxHOpXsgT8kYsVpWfR6Eny2Ij2TJTl7YL7dMMR/2SBR/CoB32TQ/wZM+UcGzc8jWPr6IuXT3nKUyZ6S/ZZnWgAmiV5+kNXrXC9HBdd4xOvx4Gd6kftOKLrmGysyJ/5zGdOPLiX3q5BfPAN5EhPbevb1fG7f7SU0bb24kMfIHsLySDYdfG1xMc85jHTJIzOtNNxIfAuen0oy+krOWRKb/7V5t81bf+/Vxbvedd7x2X6AzyHE4FJFu+/2z9cVFzpF/mAUYxBJ+fDUTv3lSmO0l9iowiCkGDk3txIrhcZPzoCpCCoLatfW9e26/oDPfLjLyc54kZ4UUc/9Z8j95Mxvxc2+bCrIZ/TC/gFxo+fnO8ukBUnIdB7Hug3y1ZM2uaU9CO6jpPhHd4b73edwwRtk4Pxk5T1khEnpUzfMa+uFKIx5h2F2iB3dVwbo0/91E+d5DLWP4oWfkc+0zOPJLy8Z0Kkfxypexx4kyQ6sBRUyFW72qktj4d6DOFnW/g0xtowadSONpWvX4DOPCVvvCuLvmT86auf1wmyXkLFC71RR3vKLQFNsmkiImkPf+SAXj9lrX94aUzqh3z8gvdwfud3fme6X95x0FZ9jYa8kmtb75LHT3SsMcSDOng4LmU7jW88qRsEfTuK8pJD/VV2F5RTRzm88U1+dWTSjk5jn6zqk3P055i3R/4+5+vXFMlEO3YAHc89bjnU3zsdpoP/ffDuw2X/u9/T8b0vY5sLHIrwwAcD73ToTu9050NdODze8m8P//s3u2V/kXHlgz5jZDjAUCgDI+HYGJUjR8oB29oEM+oc9j5gOOhw9oIjo2NodhVsv9n6s2IyexfQMkp8ciSOYW6wa8AhcBT6/LrXve7aT8bM8PGEvmSLjyw4+tHJkNMuWIF4hsxp2HK0+lQn5wacuPbJUhtSDkZS3lF+fVRenuCIf7S0xRmRk0CBV79/huioB2jlBHdBv63UyEM7ylvNWj3btRhlfpT8tUHG+NO+dv1FM5MrvMlzD138KkvP6IC+KL8LJiDaIE/1/T7bM2QTrPqHhjboOR7lzeUd7+6NCSqbPSR711b03j2RJ9jSSXrRJCx5Hwf3TUTUQ1s77EG+ZHw9o9YW4DPdcU9++tH9N7/5zdMjE/IrQB8H9dQpBW27Z4Vrt429Z5/argyed6EydDP9qS3j7OgzxN4fQreJoTr1aRfIGB0y1IaEDl0gF7J0Tq6uk1eym7cxygAe97jHTV8TRH/U1bEv5xn/5zDoC/nvvuVQR6Q7HfJ8KNv3pkP7eJedoEMZyD88vus9h77/lsPyh7mH1jo927+MuPJBHxhZCuw4GjNDYvSCiZW3FSSFZ5yOjCG4ZmAZxxIyJMaeE3aeQTIuzyZtE3oma1sdf+rFp2Nt1YcmMVAetHJUL6ejXas13yf3lrY8fZPQGQO0c/e173zkebyunu3Qpz71qQcPeMADJnroKFNZUF4aoQ2pe+P9MR8NfZfQzhlxhgK/RyB2Loyhc4GgcgI6nnZBGwJx45GTtQrvd9AQv9BYAKevbsEQPY+KrPQ54+rIJ1Pl9cm5PLySFflCfVdOGatrk0L66RsPtmBNEKGxCLUVjTnkz5NyR9Fx7Sh40EnbySZDgq0AIdjo7yiLo4CO/qVf+uRcvmTc7nGPe0w7Q2ihiz55GMPKN0Zw++23T/q8Jiin42igqQ005fsViZ0peoN2ujXKw3GU11EJkkXXztWlS36q6WU77WoHfbxLlT8O6qCTPUnquAbXytRePOhvec5NHo2lSZwJLnmyW+8axLuywTUs8Xezcct7DnX1MHTfefrUz/tPyXv8h17vMNHt932a9/D6UFrTVwHf++/yBnzYbRUbJkNkEIK+D4fc7373m64pPuNyn+EwsBwDZ3USYHxW3FaFfobj5S8BRLscE6fBqIGTkO+IH0bKKLsPOQbI4PXFXxf006yCN7r6oW5OA9CTosMhcBhWpvhRDg18WyF4+cdLb9pCN17UPQuHce9733vaYbBa1yftko/gT65LaFzjVd8kW6jGYn4/aENf3dPvHKdx9LcdyNzjlBHJeAQa2hPocrrqupb0iXyt7v2FM8GxsdfuacOkQyA20bDLIEAbe/pwEu3TLb+eIQN9Yl+BbGrDvfS/oOV6CWgYO0flnZOf835JUpt4qBxcr/4eVd6YG0NwXz/kHaULpwF9JSsTULuZJpB0VbD3AmLA28j//HrDxcIW9HeAoTf7ZpDe3LWicrT6lu8+RyDQcwrHBYIbAbqcu1Wpl9Osxq2oGCYHpx3Am3Plc0o5jtE54ql85+p5HuuNff2przCWGzFecxj6q+/41JZ6Xnp61KMede2LXXhKLtBxX+BlV7IC9nzbqnz+OGQ834XkiR6Y3Niil0JyH511521dGwM/0bNzo22y3oXqF3TITIBQF03bzRx1L3sqpwydNS5nBf0S/E2w+stuZKHP+8IExyM1+g+NGdrkkx6xB+NDDwX97HAJeEdrDOauydDPSK3y0eme8/Sg4z7QDp71Bb36BSdBfwn6XbvkRp52i0wgTZTd25U2XExsQX8HGAO0Dcj4vVXvWZeAxglzTIxFYsDKcXwnYRScGQdvVSqA+bKWv7st4KDPCRVoYXRKOaqulVEWf871De9+1iPwg8CNRsHDUTkJHfXQLbkWvPQbLXW9nc9peKFOHv6VLXgBevLQ3JX2hT4IjH4nbQtau/qkn1b7Sxj7G/SDg/QoZC4PwLc2HOlHfbU7YJXv3H2rK0BDCuO1o3Lk21jgnVzle8Hssz7rsyb91J+CnXqOpw26RDe1R1fve9/7Tu87mJC43hf67HGaCSm5FZzl6199BUcymD9734VojZBn3PysFLIvMkYzvazdXZjr8PzaLokJjfxSmJc9DbAP/aqPdMkq3+MrYzvy1PlZ8HVSGHk+Kl1VbEF/BzgEhgkMnjOQ95mf+ZnTt/LNhm1Byvds0z2rLAbEkPaFNtFHT/Dk6P3My5vf2gT3WtkJCiAvZ+Y45kNK74/o+OoeR6ctPHMEyjvODWN+zbGr60hO3jtomxkESCkHjGfO5KzQGNh29g10vDY2yW8XkqF66jiCMTFR6jq5JN+g31bBZOkP6XirmpM1XgL3vPxR142H9pus2E73VrUt2HYMvKmtPF7I/KzkrD286RO+7PKYCKyR7xLIykutHoWQAXmTx4jGWH9tT7dyXgt09aGEjjyTbHSS6Qh8zPOOQ3TDeG3yaELjuraOau+0QL+1RU89jnvSk5409bsJfDgrfjacDbagvwMMkNMOOR4GYTvTJ3P9jpjhCnoFOfVOwukyPo4+B6p9Ts1PknxbnAMUcLVZAIIcITDYHJsjRwr489awnwbqoz5x3PJb1RTo9AeiwVlIApCJiCDoxSdv6VvpVXdEjjJnMvJ7WhAQmxDZevaREX0hw35OtQvKSvh2rN9k7qVOfXQv55mcHPWPrMCugDEj1+QXX6G6I5QnY7ya9Cnj+p73vOeke9qgA1KydT6nfVponPVHv/BjJ8x7Bm3J7wM0jZWfj4L2RhmDMp0L+viRJy2hupUnQ33wTgKbkqdN+aDsXK/XIhrBtUd1PSYcabs+C9Rn7Rk3kzZ6lg8L4/mGi48t6O8A58kwQADmEBhmQfiRj3zk9EzVVnbb2AICIzkJw9UWemgJrlY8dhf6Tb2gHS/K1i4+YDRWefVFYOdIvcCnDMMXYCqTs4OjnFWoHZMGL3L54yLJAMiE3MhRO0044CTkg5ddKZCRyZkdGu1K8bgL+oLvnGNBh1MU9AXYZJxsQVnX7um7XxB4JKO+tk1G1jzTR6fJo3Py9I0AsvaTzvSDXCsXj43faYNs8RavdrxMStbIdwnRHN+fSG/IHpK7o6CvfLJbgjIFWvVLXtoddRWUG+0j3d8HdjFM4qI38pJenSb03/iRWZ9YtsgAdjsCP2fB04bTxxb0d4BzZxQcjPMCMIftyDHYFpP6mEpB7iScnmBqpcMJCPQcvWeWjM/Ogk+h9pfEtJkjUn6E8qOTQtMqw2+E8dnkpnqcAAekj+VzENEpWRl469/KTjCCyqmDfym5ARkVKE4b+NB2/er5twmUALoEPJeATMidPnhGrx85av0Z+6SO+2TpvQlBWJt4mvdf3oiutYOOnRTOGC0rfC+ZyWvsAH156NLVHkudJvTd+HbeRMYk2Ael9oW+k0XBXBuj3MgR5EtshDzkNynYBbTocfKmJ9r01j49GW0G3Kt97V0vRt7BeGV72RQoN9eJ0wCdyZ94X+hP/uRPJl48djCu8kthfr3h4mEL+gvgyJr1M8YCiCPHyhn3mcomCYxJWXXN5Ksv2DrPmS2Bo8uROqqjja6tIF/1qldNzgIfOY3xmKPBU87QM1cvBNru5rwED5OVnF71xmMOFw9ouLYCM9kRiEwAAM/K1e4c+K5Pp414KOAKRt7kNyaN0ZiOgnx9JhcOGu/6aBz1fwwOY7BRh1x98MhHlsjWNn2y1H6Y86GshBbn65zu+EWE7w+g0eMJbYTxkYWJzWmDTMgC8A149hKcRKfwj99RLq7VXUJBXWAiL3Ud1U+PyEUemVo5a6+AtQbGj26wCUfb7V7+RJPcQd/m/GbTu9BYg6OElnxHE+Y+ac2ua7M+rUH9RA//9MG5tAYmOPRa8s0Au39smszJHz+NGZrKraW94XxiC/p7gGNlABwCh+wlJk7QNYcnFVilMTDnDPYB+j6I4mU89HJS2mCoGWdHTpIzsUr1++cloCOhm/GjxeG51k/fJbeqK+DkHNc63dMGueAlfm3dcrA3yt/o8DhAiBbZjv3X9vhthXhBoyC4C8pJ6uLbbgqHrC8F25sJfanvo1wE3f64T3pJNgU1ddb0X1n1lU1uUJuQvMnYIytySW5LUKZg1mSdjQrE2j5JoDfypF2TFH3TB/fl6e/1QJ2CPb5NGNbqBv1tUSLxC4I+32ASxE68m8HPJGd5a8Zuw/nFFvT3BANjcN569Ub1Qx7ykMnwgCEzGDsCgiLDaZV5Ek4FPQZq1c7hockhos/B5EiCa/l+++yrZWvACY20HLWr3wKQn2kJ+srkmMc2bybiRcpp+R698WoVuQR9Ksig11FqnCvTuGrPfduk/mYDHZAXHbysce5kXB2TK79CQFfe9QaH00ByAP3Gl36Sg5+0ChzpT1BmvN6F9MxYJdM5tAVszHsWx5U7CsrFrzHSB4/QrH5PAiMfzqX6L3DiV//Sm+QHHXdBGRMs9PgVskbD5H6NfuBB25J6JgEeRfmz2k1ojUG7RtEc+dxw8bAF/T3AGWXYnI4/jvPkJz/52gttjCSjYkSMxXnbZvuCwWvDX5fzIg66tRnwMSb3/VSvgLUL8YjvnBagwUkKoN76LaDWvlTZm4mR545e6BP0Odsl6Pcc0ZR6bu6cbIN6ZGf7tslVMnLPqip+dkEZ5QVPL8dZhdoKJt8128tngfoRr8mMLQiersmGvCXnZJE8doEMq+s4lxna0TEWnv2rI8XHLqCpHFk2sRDgTOBPAvGLLiQjR+PoHQSIX/mSPq3hv3r8QPIR8J27twTlLUbok90Cu5ImD94V8jcMTArawZuv7tfQ33A+sY3cHmBgDJTD4Cw4J6ver/zKr7z2195shzEc22SM0Ve+BFyGti/Qi7Ytfqv9nEVGyrAZaIGYo/EzvTXQN3W1kyNxRNvRC3yef6Lteix/XoAf/ZbwybGR2TgxWgs0OkrGHUYZjc7ah2WMjfvaq4y6a9qnX+iZqJhcjXXRPA/AX/3Gk+Tcz94ETzaR3KByjmsQTZjXGW1IsDIRbTKEpyXEd0GWXrNXk6yTwthXx2RhF0h7+JWPF2XxYnyrswvKmeyoY0KINhomFPKWoAwdNkYBTZNVfyPC2/z4MiHA6xqaG84/tqC/JxgM59w5WOX4eA9H7ZkuI/RTO06JAZ3US1bas2pl8G9/+9unIJNTGR0xyJf8Ztyzu7Vg6JyrtpyjK5m8+At68tzTDofhWjtrnNZpA5/1Ozn0zLYx2wV9mPcjelJOsOuCkDrG2ZiMNJKdcsp377hUGVvlAqh66U4TjpsJfcHfGHzpQHzaKhcs0g1Jn0D+EtA3TgJxugfR6BoPTXi1keyWUBnl02N8S/L2RXxEC7+uHf16BvCrXXnZzhreYZw0QDJY+9xd3R43mghbEGibbftlj21+vstOQhNQY+v8POjfhhvDFvT3AMNisMDJt8qwuvPSlc/12gJnKIJzs3Dl1gSdJTBWPDBKKwff5+9ZXM4gB5IT8FU426DqLmEM9PrgHE198QdJrEBzZCNyvDcbo5OFAj953Sh/Y19HOmQD7sszHiZhHDA5FhjxED9LUEcbJo8j0D8P8sWDsU6u4LzA0LcE5khGSyAndEzURrlVv7Fge1an7st3bDx2gY2ggUc67dyEsFXzvpj3Mf7le4nPde3LS3bzesdBfXw72nWzy6gunckv7cLY7/yBemTunr8VYQcR3LerEG9redxw/rAF/T3AEDh1s15HsJrnOBw9h33+858/fZbWVpkX36wizKjXOKUlMM4MkeP78z//82u/u+VAcsYM2H3QNt4Y+xI4AA4BvRwUqMvB2MJFO2fVxML1STjNfREPOVvX9YkMbhTqS+RANlJ5oD0TPysvZbSZ/HKua6A8GXuJj3xdJ+c143faaJzpcn0HPILVo3zyIYPkoN4aOSgrMNdXdCCa6beJrkmW8tp2b4194QEtfDlHj32exIR8BH7wFv+OJv/a7V7A/3i9C/hERx3fzH/oQx86nbP1NX3gO/gk8nPOb+GJjzBx4Et8BKzAbzzJ6Lzo34Ybwxb090COjoE552gK/k0GbM16uc+b1xwTI7cCygnmpKKVc1jjtNTVNsfIWXlpzJYyWuj08iBaVi/a88awsmu259DVhqOEhmt09QdtzhJ9SZlQf24m8KDP8ZW8OTjHJXBw5Kis/tX3AkSOr8kOeSgv32/zOc/aV79xUU6+610JXT99q766jtpG42YDj2Qi4QnqP9DNgrsgoj/ZSuV3IXl6D4O8olV7yZE++2aCoKQ83Za/BO/WKEum4GiCviZgrgEe8RPfrslAmx6zyXedz5AvT501SE/Im4z8tUUr/tohJ7TIx3nyJxt91S4d1aY6JhDy2LmyxsyjQL8O6j0g7e2CMWncNpxPbEH/FFFANgP3d/i9IMQxmYkzQobnfk6d8eUgBJclcBIMzBE9q9e2OWE0PuecnG1FZZeMF3IqwAkULPXBX627aNAXK/C+d74EMksGnXOOZABWRq6Dc2Xc9whlF5RbAl2wEisIpRvxcx6Al7EvI1/xWeo6+S2h4CVowdgOJG96mb0UwNYEHWXpARpNEsh73s4+QCt6jtrD65pfzywBHbLxYSz99fcv7n//+08TF3Juck/fnfMzfE8TsCXg0fN9X+rztyNc68NRsm2MQZnRLjacL2wjc4pgBDls3+n3t90ZDIPjcDgaDlCS58hYckRLQIshqxc9z+wFf3Tcy/icc44mBd1bQkaMH+ecjLbsVHgx8SKBrPTDpMdLVGtWc/pMVpL6nZMB+Qn6Ixo3Yzl+Lx7WjOcc2idnbYJjq7TzADIZHTx+5wnIC5STV4BdAp0WtDziOCqQyCMLQc0qFW3XtbMEZZskNIHuy5InAfTGca8P7NAKu7yxzPUAfTbpURu6+uLvS3ifiH7TQxP05E9nlZ/zdRxMFHr/x1/3/Ou//uspHx1jD2iNacP5xxb0TxGMjXF5Q5bj8vEe22+20Di+nAC4bsUuf41jV45BquOojoDWKsK1MozRfatcjxjkrQHDrm6TBPzaTmxL8jyjftYPEIw9q1w76UFDKugnTysgK6bjwFnWfkeI3hrQCe1AjrtjenMzkXyC6+TsKOiUl/yc14clpL9W36PsQ4GHrAX9xlm5NfJRXlkJr9rzbYHo7ouRTu2AScpxdli5o+7NQf/Q4VtMxE32HX0Z9K53vevkdwR9eXwCftiyco5jW0cl8lCucfzhH/7h6T0V49c4KDeOyXi+4XxiC/qnCAYDGaSfXT3xiU+cAr8Az6gEnx4DMCCOXlrjeBiYlBNFr1UPGuDYfc+Zbe+hrf0l4Edd5TlRKX7XONWbDfzHZ0c/oSSzNfznwNBJBvLI2c8ymzg0ziNMsEDdG4W6HLv24iW96Pq8Ac94ozcCjfPyHDtfA+UErXFHZex/5wJRL6oWkI4akzkEs1BbbDW6Jwn9Dlb56UdINtcD+kg3PDa0Kse3/vvFkD8lbdeCP0BXWTIyYVcnn7ALdiRMOvkTsvmLv/iLgx/7sR+75rvCnG+ylDacT1zpoJ9yHpdOAtERIBiLP0Tip3yev9lqY4itMpp9r3U6BQNH9bQhyKM7ogDn5aE1wS7gh3No4iCpf1GCPtmQS0fBwdcI7VKskbF6jV9HMtB/jpV80EkWziVtcZRzyA/j+XFIziXoGD83E2Mf4if+yMlKE8gpWVZnTf/ZhRfUTHwq37iN/ffIxqSaHTQGY1A6DmiM5a3y6Ya2Rvr7oDZGCPpNUvZBQdmkSBtewEvv7nOf+xw86EEPmsrIMynIzwjgcx9xFIybunZa7KZo59d+7demr/WBviUnMiuN+RvOH86/577AaFuM4eSEnHvm5s/xcmaMlQHmeHLwDG4JyqEv2HOy4NrkovqMsHLe3C9/jVPMgEca+JTW7BTcbJAJ3jv3JrLnkj1eWQN9HqHvVksmb2Qyyt09INu5U42P6wE6BYfqrxm3s4L+h1FPgHw9RgE8k40y7o/1doH9eKehHRVoPNCLjsmcspVrHJaQLKvr2biJFhtZS2MX8DfqhXNtmQylf2R2I7oRtEFGteFaG3YV/Slpu4ro01N6W7tr9Cg5qMNm+C40Xv3qVx/85V/+5dQOuo1JfcHDPn3acLrYgv4pIsMyswYG1M/evHDj4zaexzGu0VikNUbJGBme8oKw5FrAycEUlNzzvF9+eWuANofYqlMf0Oq9gfOMsZ/O9d/EZ5wkLSGH5ijpv/Hq1wvGoPzGcB405N8I8Gilhlb00IcbpXkaSDYjT/i1+oZRl0cdXwLZ2ro+riy62hGMlHWNfvwswTgBOTsXKMsbx+9GgW904sVRW9nnLqyRj5W3SaEdCsFYW/wL/SYPu4lW+x5ZmIDxQ/LZ7q73UYKy5KENtJ3TR+/FvPa1r536Irk353cN/xtuDi590KeUBb/RAEHwopzugfMcVXn7gAPKSWuXYYJ2GKpt/oI03hzdY5QMbgloqycgo58huwb3nSujr7YVnXMKS04H8FB9cuFQ1POYgPFzBvjVh/jVDsg7bYwyMl7zMcMb3iVOz9+2t83pOaeVi76MaQ7yqz/KOycPW/sf+ZEfOeXnYAWc+Bn5kq8Mh6mNUVZLIF+yTsbgXH3Hmw1yBXKPP3l4M7myAhdoBGUykPQJ/9nFEtq+HjHKz7Nx2/t0H23yHuW1C8rgSXl1/R0J18bJcV+gY9zToSYlno07phPkl/45dr4EemzRIOkLvzHqhXa/4Au+YPoZnzaUNx7ZxBLQUo7O41ciZ+P527/92we//Mu/PNHVj/xmWCP/DTcHlzroU05Ky4AzOMqYQjY7FsAYmqBLqSk7RT5tCBwCSEalXbzmiJZQGU4wBxIN/dJnec7JgmNznRzWoPKQ85Lnp3/akVeZ2oSzkF9taLfECRWECgDyPcv3xUIrR5MXY74E9JNr0F9b+03gGrc5yAYfxkYd/KBzFM1d8OLhfKzW1j1txAcZNBaBrpExGYwyci6t6QOaghRZBnTkowFk6w12cpbSwe7vAh6UR9949jLcUeN5I6iP8Y+24NgLjieBXuLTBt9Vv9Gn5+TziEc8YvIz5OJa/jxIr0V8k5Hn+/4UL5gUZ3toj2O24XzhUgf9HAZj44A4TwFWnpUfJ8FIGI3ft3NUkPM4bdjeb8XIiCSGuTYo4F3CL6fF4NTXnxAdjtGzRP1SZk3QV1fSBt5Mipxrx9/kJ0cG3qQlB3+SjnMJ2qxP+HHEAxk6N6aSVT459XLZWqeEllR/ONaekyYbCcY+c6xBOW1DPDYuu2BM//7v/356iYqMQRvzAHuzUB/0X58AfxL7Iut0QlnjVFn5S9BPW+7JS6p+MjeZtdLvujYcl4BPfGjHuHphrT513Bfop2t4IpPedTgJjB9vCskK9JGPseIXmNk9XZS/Bo3nnCYZ002B34Q6jGOz4XziUo8OJeXwGV6zYUGK4pshM3Z/FOWnf/qnD172spdN38cHSpuTPk0wENuXbe9nWNpf4xQhB6pv+sV56av8oJ+29vVdWfcy4F1g3PHVOQeDhi1Kq4Z2RiC6pdMGPvBEXqOjiV9H+SYod9xxx/RsUx6dGIPycSBP9Os7+P3zh3/4h0/6UR+7nxzkc8bkYVzIv3swnu+CoG+L/K/+6q+mfmgDT2vrnyVGnvSbvvW4yjXejZdrKdktgRxhlHVA0/a+CT09JGt5ymprCcZFOeXVt00e0NkXxqwAix45CPr4Hftxo0B//HgT3ZD0J1k4GocHPOABB5/+6Z8+5dF//b1ejGOgTfL60z/904Pf/M3fnCZeyYyPwMeG84lLHfQZnNktY8uBu3b0UtfP/dzPHXz3d3/39NGJN73pTQdvfOMbr32xbj57Pi1wPAG/AimscQocFl71x7n6DFEfwXUOgRMeHeHY7i5EmwylnIlZvsDvWjsmFNriGJQ7C2hPP+ojPji4HDkZCgr+RChHK3mXApLzLqChr44cpSD8aZ/2add+yz06Qefx4dpvpB1L7iVLZdfISHl8/uEf/uF0jY4+gn7ebOAHkgXeyhMEQL/ru/vKKZPsdoGMCsTVC8nRc2pHZd2X79hY7ALdwRffYKLs3YHqreFvDeI5/vFrTE/CRvDqk7tsENBM3slA/9y36+mP8ni5j4yk60UyQVtbjcHv/d7vHfz+7//+1K90oX5vOH9YtowLDMqe8lNQTsc2t5dQXvKSlxz8wA/8wORQ3fexFfl/93d/N9U9q5mqdkww8MBYGI7zNUE5JyqhwxD1I4fCAENOGOSvmdRkuGSHp9FReS7pm9y1OzfyG3Eq1wtt1i4+cnCNO/ziL/7i9FfC7OyYDJkEWOWsGV90cm7GxR+/6c/cyk/2oTGED/3QD514UHeUhXN8KruE+uOPKNFL9NKLs5DvEpJxejby5A1vMhr7Wfm1ME6t9ENtkTN67FkbJp3sAQ/yyW0J8aOOHTeBvzG8Xl6Pw2gzYLGBzzXjvwR8e/wRrexQvpSeSa4/4iM+4uDzP//zrz3rvx6k18kGTQsJkzK7pb/xG78xffxLvjKN04bzh0sd9Cm252cCFCV861vfenDbbbcdfM/3fM/BH/zBH0wrN6s2wcCzQY7KVjADuV6juBFog6EAQ2rlAWuMJgPM0PXFS2Zzh6f/nE1lBbw1kwplC27OoWBJdl7isfUMTSKUx3tO4jTBeY7Qp5yO8bT6+KVf+qVJzmSCZ0Ei57gGaKKn7r3uda8p8I/yaJxcS8bB0UpfHWXxKS/ZNFlbgr7gm468/vWvnyYsjduaoHZWGOUBdMSvDtIdSV/G8VkDgXh8zg6da48cTWa1YycGrifoFHwlwXPcIUNzX+BhToePIZ9RXjcKOkA+aCUXx5J+AJ0EduCnwnarxvd+jkM0Q9faIzPtm2w5ejRqR82Lp+6tkf+Gm4NLHfQpI8drG/pbvuVbDr7+679+2ooCDoVyMgjKbOvXVtlv/dZvHbzlLW9ZZRT7gsPyAiFjxAOnmAGvmXRwKCUQ9P3sqGu0GB+HaFvRtVRgWgMyqmx8uSYfchL4+5VEPOcQThujY4lPPHoObvXhk6FWI77qpqxAZHuf013jlMagQLZe4LP6JL/qaw+SUfn9SqAgjUbjon6OeBfUQU+w79FT9aJ7M1Gf50fyJXdIPumpPq1FE/IR0UNHwKHXzsmFzpELmbm3hMYXX9pqfNboxhoUdCHZ9EuDk4At+/HxB+gDGUjjbp6Jv2t2621+NnGj0BdJ+yYxfA45ejfKX+Mjv7Ow/w03hgsX9Cl3CTiYzoFBZbRmn694xSsOXvrSl06rPo6B4jsWaDkVBmGmL/ALxH/0R3800UF7NFD1xut58EDPdXkjn4yk8s4d3/a2t02/Z8aLyclYxvUaCOgMnfNjfD2z064jmuBrdID/0hLqD6AF5CdPfasM70W84x3vmHggP/yH6oA6+qlevK2F8uhy5J5lJ1OOJf7qpyNH9DM/8zPT3wDnzNXTnme22leHk0LHEQRz+fqgj8qhpT4ZWyHZ2tc+h4pefZFqH0/u+WWG8dB2fdcHjlLZ0SlGo6S8hL5yJhBW+1ZSrWjdG6FecN4EbC3qT4iXcZzwP16bjPQOzAj25IW1ZKxOKZm5132JzMlFGfnK2VXRpnxpHPtkZKyVZcfKKE9m88nCUdAmOanncUz9d30SoCf4RVef2Kjxa+K4BsmqvumzczTp0vgNA/noNuFJVmyTTJKzD0vdeuutk06ZmCZz44aGMvgc5eA8PpQnN0eTaDbjnMzpqF1UZdPVcdzOw7soVx0XeqVPqShzyplzt8r7zu/8zoPnPOc505ejGJsZLuWndAxGPUZJ0Sm+xwCMUbLa7ydpjIyxUVrtqANoOp8bRtfawEvXeNUWHsr73d/93WnbHXI4DK421qBgpX8f93EfN9XPOHOEHLDVuL67p1/42BetjsjaZzmtOshJIjP39LsAMPZtTfvkRy7o4Vl/TIb0lyzRRreAqq/4aMWxBHTQRods6IE2CgTaFNS8J+HtZ2X1AU/40JdxPIM89z7mYz5moktOyquPNp4bb5jX71r/AT3nJq5+IkXP8UYG6VkygDm940Anspl4DmNwaeKS3jg3pj/+4z8+ydu5vlXPapZMrwf1lWzQkvq5XuPk3P2g//38Da+VQUudJdRvdU2snJ8k8IN240GOfn5Zf9aisiMtNOxWNrmpv/pQP5IpjIsIQd+jqoc97GETP9kQXxLIYw3oDF+ID3pul439sRv07PiwGXxrwzndWDM+G04HFzroF/AYE1C+17zmNdMb+Z7lcgrACDivAgMDyAkzDIqYgShrh8Dvuq0iXHN2yjIONDhyBpcRjkbs2rk8BpFTxmt1PPcSlKz03WMsoJ466o4GexwyHP1kyJ/8yZ888Si/e8DwGBqa+pNj3RcFc3L69V//9WnlgP/k7MgZWJFomyzwpW3nS8ArevFbYJMvQEutzI2nX2DY2fnjP/7j6d4Soh+vjp3XJn590Yxsk2u8x1tIpvLozN3vfvdrQRXUzfEtyX/khZz1j0PtxUT5yVE/3HdsnLWxBONifNQLjRNoA90mQuX75QY+3vCGN0zydx+v6OhjL6utRf1wJDs0wHsRrvEU/eTt2k5DL/LVtqPyS/IF5YyhZLsbzeqtqb8W6AJZCYZor6U/ltXP+q+vbL7HkCM9/elYfn0zjvIF9d7ml09fJWOebi0BLfI2/iaQ5Ikvj/2s+I1PupGPThb1Y8PZ40JLvqAj2P/kT/7kwYtf/OJp9eGNfFvPHBZFBkrMEbbip6QcpOAgiMt3TZE5G6twK/6UlQJDhhHQpcgpc3DNADI87WVI/ugLPtHWrgkBmhlNDnAJ+o6Guh//8R8/vcQH6krxyTGC8vFzPU75ODBotMjEuxI/9VM/de1DMvqi/WSjbXmOpTUY5YGutpwbMzB+ZGuS9x3f8R3T74bJU9naPi6hgyd64rpJojZcc9Kf8AmfMP3hkoAf/a7sUVAX/J7ftjE66YL2uj/iqLzaUkcyafQ4yMTWi310B+/kLJGpvhf4lqD/2nDsWsLnnIY8bXhMZIL38pe/fLruhUVlo+MR2drxBX2vLfXwhGbPndGVr5zkvqPJLB+A1/Kdd38N9IvM7CoAPtbWXULyCPQAz/VxCfhoTEC95Ko+nskJ6v/8XN1kGz22475J6aMe9aiJRroJjvzgEtRhe/SQH0KX3fG97NHCiWyBb3UPOm64ObjQQZ+ScYDf9m3fdvB93/d90wqPo/Ccy0SAgVHeDMW5VBBxLOhzFjk6s2DbhlYzJhAMRLmMIkdc4BydhLKuGQS6ggO6VlVWaq973esmp/k3f/M318ozmNHI8Kb+EhiPeozfG7k9L64v8addNDP6HMK+4CzIVh8luxc/9EM/ND1L136ydU+bytd+Y7IL8U8WlVcf9L0gZAL1gz/4g9MqigzIc1dQDvjgiJMZeuhK+Ebr4Q9/+LQaog94aBLZ5GNEelAfvRjqsUC80xvQL/pT+TC/VgYvnCjnaqztCtlS/9Ef/dFppW1Chxdp7HO6ugvo4XXONzk4x29b98bAzpSfunqPg6M3viYi6tS2vgr6874ch9p37Fpig+QPIy33tCePXuvnaCvyJeO5BLwqqw/aQnfM3xdzGnTI2KcP+wLf9RPNUYbaHvsD8tggXSE39x/4wAcefNInfdI0fvTBfffS812gH+qoi5d8Ht2gAx5F8QVQ8E/3N9w8nIz23SQwen/mUbC34uAQKRtFpJCeMXNMlJ6ycWYUzjVnSklzMq265QkeHC36P/IjPzLNWBmXhI4yzqsbOmdcEkVnRM7R8uUqb5SbSIwrMsk5nhxhpHscGK3yVqOeH+MNOsaj/uTI1XFcY9RLEDDJuhWHSZZvHZiAeaufM9COMRj7OvKxK5Hz3EGSpXv6qK3v/d7vnSZn+teHd7ShzSXkiEA7yUSf8OvlvQc/+MFTm+45grZdx+cc+iaBP6OML84QRgfcsXMYr/FHn/EiKJG3dumJyY5HGSa9fgEC+ox3/Vcm/o5LxgxtKE+9+ooWm7Jdb2VvJ827LvLUYyPO9TV7Uk/5+r8L2lMOLXJRN/2gU/rvPHl07gh2PdST0HGvY3Leher5qh1ZRH9N3etB/PMB0V7TRvxUH68SqG+B0/i5Vs796hm/8uXRW0d5jbFg7bf7BW330/8lmBDSAeWNlbFD2wSVvtJLO7D8D3+MNrqN8Yabgzv/z0O87/zCgaOxYu7zuZQ4h+8oEAjmDIFCM+yUT36O2/0cT0prpWHHwO/QvRjovmvKjRZFz8lJtQ9oSoxM4PMRGyszf5WKoaBTW4COBOqh03EXBBLO0Xe1bdUBPuXXH32zu+DjLvKk5OG4D5IDuQpIJk2St/m1Zwy0Z/JVn9Sp30tQB/3GyrWJhRfabr/99mnC58M1BUJOVXvkawyd74L7eEGXLNAxXvj8lE/5lIPHP/7x03NT/UA/edIrdRufjnMYf/ryD//wD5NM9B1t7aC5Sw5oKmd16JwTVQdN+u0eWVhJ0U98ccDkrw3llvqPXkfl8Vdf6KlHWr/yK78y6a7ntGQD2pJMND36YFPqArlb4Qn8S+OsLe2OAZds4aM/+qMP7nvf+079dg8tfOqTa7CF7GeY4z18wXh+HKrnp5hebFMnmSWHfVCf6qdPQdulwRd9WuIvJEe8Rk/dxzzmMdNuEtrKyB/bhOqCOsnOsb7e5S53mbbfTaLoFN7WQB3jA3gzdq3+6SceTE5NKDzqKi9e43HD2WKd9z2noGAcAyW1nc/ZU2wKyJFwjjkkSi4YUlTn7itLUSkh5eWw1GVIlJ9D8Zycs7NCt63pL7V5Ya0gQHEzJOiaIXp27xO/3m63G6FOExJt40e56rh2jzGuMQh1rSJtz+kP+tXL2NHTL/nuoy1P2hfkwqDJSr/0yTN9uy4CkVW4lyp/4Rd+YXr5y31wxPsSeg4okJlUeFGPPJtAybPaaZVhoqbfgpV6SxBQyYPsC+QmGPrykIc85OBud7vbtSAUv450Sh/IdByn9EAePoyJVeTHfuzHTvloVWfe/5FO0D+y1JZzeoyGuo6cqHMB2e7KK1/5ymlykV4uQV1l0SUv/Av2PmIlcL/gBS84eNWrXjXR1J5+12aTvPQJOHuPG8hf35egPQkP8ZyOoK09qJwEyjk3yauOhEb1Oy5h1JtRZmvrrwWZkQ2+nZPbWsTXKAP8sj1AD5QrgXHVP/flGTt5zvVPPn13/djHPnZaQBhnPmVN/7VvokB3tJNvQw+f2ZP3T0zO5bcgOWn5bliPWw4H518j1gXAyK5zW0fPfOYzJ+WzouSMBAHIGd0oRofmKMihzYkLtP56laDDQVFuzs52rNWXIMd57oOcIUc8rnhcc4i2Vv0s0TZ0fLrPmBk4kMsLX/jCaUeEc2PUDO4sDA8PTWS0bbbfowjBjHMhTzxDYyt4CPgmE/j2LNkKyapB36qTs9sFNJVTHj9ouxaUyJAjJltj6Nx4ftEXfdG0e8JJzTHmHXV/1E/95mTpxDd90zdNH4niIOmR9kw69AVfyhoPNAsI1zM+ypI10Es7Fb4r4EVCE49o4gfogbb02UTNRJas6axdGhNFZRtD8iI3iXM3yX7uc5978OhHP3qih39t2BnzEax2BXaBrOqz8Rnl8uQnP/ngy7/8y6/JcJzkuMafMRr1GY3k73xJfsqw26/7uq+bdiyaKNIRbbh/vRjHX7/iW/4Tn/jESc50W97I31G6hAf9JX96ggbeBFtHO3i7cBTNEfrOBtDSdy/BmqQb/8bbeODXOTsxHurJV28X8Ft5izN+2vcryFVd/JHDCOXV0/c1UJYcG/vO14yd8mFJVpcJFzroGygGQVE933VOMdtCp2z7gAJCAYIBoy2fkWhLcl+e+4yD0zIBEJT3AQXWX/3UnsAp8AmWgvmTnvSkg8/7vM87+LAP+7Cp7xyfhIecisnH137t1067FhxHfYLTVnS8Z3xko20BQ2A1QSMfW9K9E6A8B2MFJxiRo8DvKCCgYRw4HLwruwscCzkoi4+CR/LpPp60o5wtfYms55jL6yj5jfpJ/sZDm/Tzu77ruyadNA7JQ/v4Uq+68uNxF5RDX/36Rj/J0m6VwGhyZfuWPZBbwQMf+iyRN31VV75+kbNzPHSMR/QFfZPJhz70odfk4OjDVi960YumsVly3Mrrpz6QFf6NhfH+qq/6qunNcvno1FflXXt84CdnriuDXjIcz4+DOnTAx7vuec97/j+6uiT74zC2iYdoGYsv+7IvmyZY2iRD94Kyc6AlX/+y3fSCzdiF2YWjaI5oMtdixpjZzfRIxzkbMGHVXpMxPMTLkny1r6/GVL/1/0u+5Euu9af6rp0b33huvIP784Sv6lbPOYxBf7wf5nnz+5cZF/qZvoGiHAzAH3wYB955CnCjYBCMjNOjvGhyFJQRbfcYB4OWnMtTTt192wc0TCzsYGhDkOSgzZif+tSnTqtn7eUMnGcwjiYHtmoZR/Rynmtmw/vARIVjGwOJNvHvWwVe9PEYwCMTwcK7D1b0/j63yYpyHA3e0dI/SR+iuQvKGQfl0BgTkKlVU234WImVq5Wx6zn9pes5Gn86I/haQXm+71o/cvrGKZ6iqe7S+BTojKXyroEz1zf1BWftkuuf/dmfTas5yYretr1xUEadsc30mK7Em3NJGfZgpW0noXqOVvq+I7CG//TQ2KKXXPASbTTwUULX0STWr2C6Ll0PtIe+SZ5JKDTuS7yvAd7iz44kfvkI0Gd9D0fxri4ZuYdX5V3TfT/R9cuQXViSB5p0EE1tsRX+hWw9mnTN5yinDN7JRcAeeT8O9BoNUFfgd433sd3kTfbJnT44dz+4Lqlbeam+dp4PdH5cGjG/vszYX7NvMiif7Ux/QYqCpLzjLPpGQakEKkGXkaJNqZzLpyiUS1uOeKHcZs6Udl9wgDlE7eJHG/IEJwFfPjDMFLcg4ppDx4/78jIyZU4b+NYHKwazfcA/Xqw85RkrZUr6xqmQuXKSPPfqoz6s4V8d8lEWL9pWnzOQz9EX8Gw/Pu5xj5s+nUtecyTbML8+DmQO+mrM7Mqgjwf9cgQ8juOG9yXEQ3qnPnlqS/10kX66HuVNf5OzfLIlk2QekldH97Tj6CVH+fWRjG1fu17Df/aqXUc01dWO3SC00+/QtZ2g2lVO6nwttEkGBXzXgEbn+6C+oWc3xTjIW0ubHNTXTzpqnF2Ts5+R1u/j0hqkG2RPV3z62OTXZBjPduO0yU6UIS/tJ/tdoCdoK2/SSzde85rXTJMK98jBPcf4TUZz/TmqP6Mc8TPy5J7rscx4fpVxoYO+QbTtBF/4hV84KcwYJPcFI6CcGZ9ztEspGoVkEBS1smuNbhf0D61emuJkrdz9wYz73e9+U5uAh845hurhpZ9PuY+nMZ0FtI2nZGaMyFF+Oyj4xSsenSvTylOqvvLuqbtmfGtbe/pLN5pAlNz7jM/4jGmr2Ja49gTBMJfV9cguPahP97jHPQ4+93M/d3KottXjRyCWlMeztAbtduhHslNXn/SbzpQ4a+WU1076oA7Z0nWTBPUqE5R1LSmPPpomDMoH+baDHdcAr+gF9NHDq4liPChTuXi2alR/zmsY6R4HfBoLE6B4Rg/Gfu0Deo0muSRbvK0Z4/qtrLqjPOxu7gt06USIJ486HvnIR06ywT8o53zkZwnK8130xCSNjtN7L0WjkSzon2v9K09d12OeMsZJ23NZltyX554yrkvdd7zKWPac5xgNHmWiqL4934pH2hecHcXhEJsAUCYGoE1wnfIBJVVP2hcFSIGB8dgOtyJlkLaga1P7gUwyVOfq4EnZ0YCcnzbIifyMCV4EUyt8stMvgcM5ntyX8CXPCmMM0DkBvEvKLkE57Tiqrx0ybbJhQmTy9IQnPGF6OXOUSWM9Yn69BvFcnx/0oAdNYyjfmKavrsdALK3BWA+dnCHZmThJ2rBNqz1l3CN7clCebIxNK36yJSdoTOq78ngTdBrf9A1twTg+loAO2vVfG+rZYhb4wygL53hrRwHUi7+wRn7omOhpW/k5jX2BLqA9Bn1Yo7/JOtkYN9ftPu4L9I0h3wZo0hfgY7wMSmfojkkYeSmbzS5BubG8thz9QR7f1gDjrF90wD3655x89FUC98iBrikjJRcob7yufKl7Ha8qLnTQN6icN3BYXvyhnJRrjVEtAR3KUxDiKLXJiXrpKaWiRAyIUaSoFPckgBYe0PaHX57xjGdMjmpUXOfK6TN+8A3qCPrycjhS5U4b5MSgrRgYt2tBgSMhOzJsMoUfCW+CEUcjqaMfjacy5FEfd0EboM/O0cipGUsfzrGlL+DjIaekzeruAzKHeHdt29rLlz2P1S6e6mNjJC2BLNI1dZ2XLzBoj6zoLrvQZ/fI1TNm+fqsfjspeEEr+bqXbqXjZEMHtQHxSm5WdMqv4R8d/GjDee3Y0WLPzkPjoax2/L2H7h/VVrLYBbT6U9QSVO8kxj++yEzQJ2N5a2QT8CHhVT00PI7okcQ+aIzrO+BVG8bgsz/7s6f3Khr7gA96tQSyZPfsnQ/QDzaPnk92e4cH3bF9UG9MykvzfKCv8Yav+Fcej6Os1SFHyf2rigsd9A2oJHBQYE7cSyIGW6DeFylQqRWitqxYKVEOI+PUtutR2W4U2kHHi2ac7Nd8zddM7y+EueJqP17wLgmyaDiHDEaZ0wZZMEr8c9SuBR4TAYZqjOpjRuxcnoDivrKu1Y3n+rCEcQycS+hwQF6E9KsGAZ8cR/mQoXIjRlproY/ooe2oP3TIh5SspDhWwVhbeCit7R/npQ118ExOoA0yd01mdJbjla8fZMsZq5vDVBZ/6W6yzkFKOUxl2havnD62KlQ/XnZBXbTQHOUroOHlKBkoqz+eMYN6pesF+nYs8FH92sTXSYGMBbtkrb3ktgtkiA9lyVd9fed7yH9f6DP7JGtA22qfzRlv/vTe9773pKP4zyaN8xr9RBufbN+2vn6opx16YrXvxVbQt2xQufpdHff4eXwYe5PL9M0RTam8FhPqSujjR8KPdFVx+p7/hDE3cgNrVcChWbn4jbXZqUE12Dk+SjzWk995Ds1RHfmUTirYyHfMmeVA1ZOiHZ1o78LYhmPKCQyPAXqZxss1Vvj+0puylalOPEP84FM59cF9MpFP8YOygBbUR0d9lC9ARE/fGKB6yjjXfkEyeqBN+frS/WSs7gh53XNEp3LOcwjyXKPNwMkIj4xcOxyTsvGpXXXc1x+TDn+n4NnPfva0ynNfG+oBuuh0XlqLsQ6aHetXDtVX4Pxu288vgWOt3/RZeWWTufPGu75xwHiXn5y0p6x+OVdWncq4lpzLD+UH99KD7knkjSc2BslKuZwtO1zjVI1H9B3ppX75IFZ5HfUtvefc/bIj+bqnHJ7rU7Ia84I6knyTP/TAtbZOCuksPfUrCbLSRvxqqxRPY8KXcsorU5/ojMB/EijgQ/xJ2tem94foKn3SHzzR1dGHHAf6o+/qGis60W4pn+KPdPmjZmjlY+iP8iA/H+TXBP7Gyjd+4zdOH/3y89fnP//509/c8PEzixu7Pz6b7nPRPoamHp3RLpp+wfLN3/zN0yelvRt1VXHhgv4IxpCzTlE4I89NraIoqQHPaHIMzuWFjGyEcqcNSkmxJcbX826GxYH6yI9A7ydF3lfI8Bln/M/5HPuCBqUfjXhMaHUOypFRjsZ7A+pzsE0YyLukHNQmOo1DDu804ffnVrQcC9lp30oABCc8chp4EkhtrfvSnmA77picBRqTEXjxERqBx/cXyN/Ykjee6QFnKNGRrjlO41KeZLzShXFM90HjS0/IEm/axBvZQ20q244O3tRZAh7VT+/ISDvGyj3Xo52CtgUGK8cl0Ffl8YJW7eCPfpIle4tX9xun+rUPGgP8ssXa1x4e9G1XimeIlvp41q/TBj6t1P3qxNhrU9v6Y5z2BXr+SJe/aAp0x9jTZ9BW/bYj4x0Duw/q+RR3H0jjG/FjTP3NDx/B8sXOXmJG086Av6HiZ6uS8biq2N8znAMwIIrgaJXBmd7nPveZ7jGaViwCQA7JcW7YjCyjPwtw7hRS4sTMVBl7To9S+762Z8AF4JzBcXyO+Z4jMgT9lJ/z67iEnHjGl9OS8AEZpWv5rit72vDTH+MumHMUDFvwN+GzBWi8++mX1dHTnva0Kbnv3s0GefnlwNOf/vRpG9U1uRn/Vkj4lBozDlfgVYYjLrCReWPaOO2L6GqfHuDBtTYlaJy1Z1cJ33RO2SWMOhid3j8I9Mo97QK6xtbKbgnZS3LVHjpo6Btd6T0HSGbKpd/7QFtosqMeR7jWNt7cX0rxjkfnUouD04a2TJ592dEXC+OdDtK9fUHOXsj0QSDfkjAJ0wbajVtoMccf8ovs3Y4dX29S4pFQE39/t8E7K31ZEPhC3wTxM2c6qq2rigsd9A0wpBwMiTJwGr4Udv/733+aqVJSCkYBHEcnkrORP6L80wQH10o1peVcKb2fdwlQggJD43jjKYfR9cirfkhkQvHnzkXZ+s6wRqcI6lbWPdccozJo4UUSeCrrqCxn7yhPmdNGzwsFAE5RIDSRct1q2Mrf2/K2BTkNoCMnsVJZArmMmF8DXjgxH1oyUSVXfepZc7pNd/Wx1T35ulamY/SN5agTNwq6qd2CcMHftXdMoHYcyZ3M8XxUX48D/kE9Y3jU82r0asvkDh9LQE8a5YGORF5kTE+gcjC2tQ+iQQebuGnH2K2h3/grq66jZAJ7FkGfHNgzeOHVuyh8FdvB177QP8FXMPZ8H226DXyJ+00u8aLP1aFneMOLPPrA9tXDp+8CvPGNb5yuJdv99EpMQOss/NN5xYUO+kD5UgyDnzGZ7T3lKU+ZHCqDmQepjAhclyDjOm3ggQIL8vgzOfFzJbPqZz3rWdN36im6e/VTHXzOeR/5dc4g2t6qzyDf/TVGqwzjYSi21jhIqzkGxoCigT6+QB768k4bjNnEqZUBB6CfnKzru971rgdf8RVfMX0jnj7gG19kmnM5bTQ+YbxObo5eKKSvnGuPLTixdCQnZwxc0wmBpElAwXaku4R4OS6RpzaTlWuyFiznb48rJxjXnzX6lc7Sa+3VP5PfwDm7N4Jer+kfunOb0QZZ6ZNdILKEOb/6sC+0BcZR2/hwTL7a3JUgGSVTNOxUnUXQakzAStsqm93TAba3L/SFDhtvXyv0+V+2ibY29F0yXvJMCiR1gK7Id984omdcTYr8PRK/DrCTIM/jAAspugvJ9yriQgd9A5cBGViKUpAEz0r9rWhbQFYQApY6yimTQUF0JBjv3ShS2uMSxw54F6h8rc3zZr8b7wuDwMBHI895QPyOcI+x6q9zDqNyKbuj/PGesvLVlciIkXi84LvZ3jhn/IyOg1eewTlyruQK1T9t4Fv72tI+4A2Pgqc/pPLwhz98GnvOgWPQPyvSeD0rzMfJdc7L2BpT4/+lX/ql0x+acZ4u0xM6Avgn7+pIjeE4jtK+EORNlPCJNpr4wVf6WDv4s4WKF/fSsyUoF22wi9CE0rii1b365zFY470LaJQCGum9R2YFfZAXxvMbRXyPL9NK+lVfdkH9aIBz8hD0zwL4ZCfZskWIHVRjPfJ1o0CXnB3plefwPuOsj/LZrLHTlvEW5Nmyib7HDurQfz4AOpKtl0FNTD2/91lvE0WLF/SMeX26irjQQX8MfjkhSJE4LIrqRThfQvPSR47UfXWrn0GeJThVvFhx+NWBP4Pgy4KU1TNA/YOcOyPIUEZ+53zrk3KtMMb7lH5tP3sz3kzcSvmLv/iLp7feH/zgB19bcaInKIx8adP5aYPsBAnJLgl+PN/z00ZyFDjJDC/GvUmWiUwO4mbC+PeCF5AjeftgkJ8T+u6EHQCOTh+U00/l6DtHKDlXr3FVbgx0Nwo6qF36qB3tCgJ+TWI1lUOW3BP0nacHS1AOjXjVD20ZT/okQWNVeUF/Df0mhPGpDhpkpS27ak3+5Eugzhr6S4jfPiQkoUsnk9OuFM+Scwm/9Nf5aSP5xy+ZCfof9VEfNZ2fBNiABY9x902Rn/3Zn732UmvjRBaBDPHDt+HPfTSUZ+Pt/PmmiZeg/aGrn//5n594lkdP6YXjVcWFDvowGhAl4BQpAoVpFm+wb7311in4C2CcEwU5DuhJpw38PvCBD5wcvLe4fU9bHsW22tEP/ZOnPxyvfuYEdsF9k56x3NgvNGpLKj+Hoz1tCzjkKMA6esfAuwa2zU0K0Gk1yJjQUTdneprQtpd1tMsZ+QmPxyLe8OUI3DfO+qkvgom8dOSsoe0R+KaP+CNDEylyc85J2V2xY+ERlXxj4EgPTBZcS+mIcQTtGIN9gTe64CVTyU8c7frYOtVW4y3hw6QKH+noEpRDRx00jAkZGLP0ErTjXHllTUYclzCfEGlDPfTIjP4qA+5Xpnb3Rf2LX+faqL+Ou5IyI5IRmzwpHnchG2b32mZTdhlM+k9Cv9AV8PWH/qB5xx13TIEayCAkL/LDl2PyNZaO+KODdJXumjD7c9FvfvObJ57B2LP/xv0q4kL/lT1gBBQAKIHB7NoAywMKdre73e3gXve61xRQveRWoFKGwjmnXK4dXaPvmsJRLOVcO3cPnEspouRcWfloARoU1grULPQFL3jB9GU2b5TKj4akTjTQC/LGI9R+fLpn1vza1752ys+g8Bs/9Su4L439ZExegvOJ4wzN1h7HTJYCrb+Nj5btfsaEpvoCV23UB/W1nTzkd+5e5eThA+SN9xovY+iNdyt72+F2ckzuGhNH9SAeQN7NNHjtjwnwF9+QsyV/u1MmWgK/lSm59s5CKxz1BUo0yCcdiH4yDuVDDrOx6Dr5WVVynn6vbTfK4xIv8WlDalLlZaw3vOEN0zPXaKiP5nGJXjpqS5/YqEkw3UKTHOhbEzjlbZV721s7+j2nOSY8SF2PQM/jKitD7QLZyScL9dC/Xqg/Jn7mTW960/TzW3onHcXPUTDWeNNX9fTfc2kyiueTxsg7kH+6wL6NhV0ecvPXGvGIr0CGyTH5H5cqS4f00SQMPVvydpM8ntW2cZCvHLqe1b/tbW+bHtuayBsvybcQBHh+gJy8G+MnfPh97GMfO9X3MSA7Rexq/KNFVwkX7u/pXw84jo4GNmdvNtifnPXRB8pCcSvXsyOOiMLJc4+iElfKqlwG3D1IiXLCaFBOz5r9plSw6u8E5NDQV5bydp3zX0Ltq1sf3v72t087CNrghDNc90FZUA9ycOO1c+8X2NYf5eBYAjNrz80Yqw9g+LO4PfOXlNMe+WfEMDqLUXaSMniXn2NgxN51EBQcrYbbzoOeNWqnNs4z6vNxIIcmpvXRzxTJ2fi+5S1vmZylfjeeyhoj/XdO3pL7xpMuKO+eiZPzymuP7Oiqez7KIuB7ROa6sVA2XXOUZ7x9bAXkaWepf9rCE/4EFDAZ9iipPtVOOiH/V3/1V6c2l+irtwseo3hRtT7gJR+hvX1h7OgwuQg2Vovt1KQAAAt3SURBVJ/aAm0t8a8M/0A2xt/uDn5NcPHHJk4bo48ypsnHJEZAxdO4VZ7MG9tdMO7Gkx/lQ9JVbZrk+qkgvdM2X1F///Zv/3Z6G9/kx3sZ2tQWW/C7f36B3sLrX//6SeZ+GUPexoGPshvYtyauGi510A8UglFTHko1GrQVisDvb4tzpGaBFJFYquc8hayuo0lBjsl1onTOQTFQs0nO0+eBBX0zdErKgBhTcK2eNkDbaOyC9mpXUh5t/DDIF77whdd4GnkbURsZ6HjN0djG96c25/yM19p0jrZnbWTKuBytzOw6eJGGUeIjeUUjnhz1n3Fr21aiLWWzfrsjkvcf3B/7of35OF0ENCbHYezjiJycVaQJlpefyJrucp70V91koryjvPRVor9WV+mplRUddbSaF/yNj7qNleScozcx1gbI55iNG9ruj/p9FPAlKa8NfAsWkvx0Q3481xepAHSjwHu6wv7Qr7/Hyf5GoB1809uxv2vbqA46jcFZwZiS0a720zdJv9xXnp7sgvLo0xO00aFT+stX0KVsHa10UBvKawNv6slTlt6pF4/x7zrdkUfvryou/UqfYowYg6vBpyhAccxeraQELM+KBTDJbBYtSkfZiEx9TidagrmAJEBZhQpYnCklptQp6IiMCA3oCCn4LoxGUN3ybr/99umzlfo3Kjw+lFXOdY6TXGC81qdv+IZvmD6CMefHdXQkmDthKxTG65mmJMjIk8hbHpmQDzkxRIFG0rZtOasA7Woj+s6THeBjHGf9cn/Oz0WDfowJ9Ll+62PjAORqcmUyQNbtArTbQ0bkSqZkLsDTj2SeszzKZuiPsUqHo4cvR7y45zp+5O3C3B5A/doaaQV9wj8s0Z/XnaN+ak/Z5Op6LoMbAf+CzthP49F17e0CXkDZ+iOwOc93nTbGcdAn53QlOwS2Vpmjxu0oKEeP0IJ0WUqfytd/5aVRbuQjoVGdyneE+b2rjEu/0q97RykhRZBPETJQThEEevcE/X4yRUGVS3GUt73szVPHAqw0b0+9lJPy4Qudo5yLfLxlDMchPsZjeOUrX3nwEz/xE1N/tIee+87xljMZgzyM1+redttt0+/d1U1WeHZUZnQ89THZHCcLZfQ/OhIop3xAT3BSdpSH8mgcF9Tdj/5FRv2AsS/y6SPZQPIsGeNRjiOdo8ZjvN+5Mo3vcXJUVjkJP8anFdqaCRe+0dYOWtpylLKRdCDUjvx9g5728a49fDjXJl1bw/8a6Fu0tAPj2KyFutUzictPnSYaHzKRap98jA/IB7KDxg8qcxzG8ScjtExc9a225FWuNuQlD/dqh8+2cBh1ozFWBw1lTBrnenWVcCW29ympgW/wU0yKMSowdJ8iUorKUrBREaOVIkKiLI+CaQN9yoeO8zkdqB1wX/5IexcyCkd19elFL3rR9E1r7buHtvainTHEy9g2uPY87RWveMX03My1exlo9EpzJ5lcldOWBGgUvOVVH4+1fRQYaWUqr/7Id/XXyu28Q//0M5CBvuesBMCx3+5BdYxV90eZNHbKGSfX7huvo2RXu8ZYHed4U965OjlabR5HZ47qOuoL+vUltLIv2IPy+J7r3BzKLUH7ow6hq94S7bVouxlN7aBLdtpdI6PKqAP1/SwCFn7JxJhqvzbry6ibo6zX9AtGH6GNAjVa0ZvrQ8CPlE5AQT+M41pfxp2iq4rjvewlAKWgPBSLghp0R4Y3KkvguCgFUHCORn11KHKK6OgeRSoPlNEmQ0eHAmpLPh5yJOpI6qe8rpWLz7WGA3MeGJMt3tqOdgY0XuMhg5hfC/p2MaoDI194rV9kZwXiyICV1y/l3SdPidzxR0bql5SXr65EvnZY0CwgFEySl3ryJefx1v3LADKR9IdTJEPyoV/6TCaNXTJQnszkNQ7ykktljfMoQ3XloW98HKF2lY2GdkH5aEJjlO0sJVA+ekE7UCAA5dNPvMxpzRO6u5IygHfXpwH6nmw6arc2dyX9DI2tesbiLKAtPGjX+BiT5K8P6Wa6lW4E57sSuqAd/Qtj/oja0P54Tx6MckG/8hDPZ7FDct7x/0r1koFipEAFkgY/ZUjZ5FNsgVqeYKNuxjbWSUmlUbmco0H5zCbRHI3CdUlZ9dEa6cWv+2sxL4u+gDk60tqBytcvyfn82tvGgkF9g2i4X5/cU45BcdLOa0/fyVJyDvjKmaNT2Xhwn7Ps2X4BCQpEXWtfXnxI0brooA9kIelXeuSafo365x4Z6Ht1xvqSe8mLLUAyh+qTNx12rHxtuy+N5dVX1v1odb4rqTvyrS9BvgkkvuXTB3WU1a/a3ZWWgH6oPNqgnX1BBsF5/RuPu1JIv9GIr5H304L26El6lL51jRdyS78k4xKv41gcldCxnQ/qpmNS+tC18/mYt3DLJ6DBz7h2n04my+o6kp22riquxPb+ZQXjosQUmEJnlN7kft7znje9zLULyjIURqUudM7YfcLYh3gEaGVrT1sbNmzYsOHi4VKv9C87BGgQiJu7mQDY+m32uxbjbFpwd+7DLCYF4FqwL+DX3oYNGzZsuDjYgv4FxlFBX57fansmu4QxgLfdVdB3z08OXbunjHNwf8OGDRs2XDxsQf8CY9xmL+jL83W0ntnugrLVK9BLzm3p++5A9wr4YGIxtr1hw4YNGy4GtqB/gTFuvYeCfrsASyjYB9fqeonPS41oNxkIymzYsGHDhouHLehfYLStL7US9yzfXxFcCwFeXUlgd42e5/m+kjfSdr5hw4YNGy4utqB/gSFIt1IvMHuJz/fux5X5LrR1b9fAsRcAbe37WViTAWiFv5b2hg0bNmw4X9iC/gWGlXdBX3Lud69+qrcmMKsvKdtP9tCQZ2vfb+Tdqx1HaIKxYcOGDRsuFjbvfcHhAxRW54KyYOyjPP5okJV7k4HSHK3uBXPb+l7+8wKfCYA39913Txmpdwg6btiwYcOGi4Ut6F9gtPKGgrovUo35a1DgL7iDT/Bu2LBhw4bLhS3oXwKMK3lv7o9b8bugjLLqWuk7NgHwR3Y2bNiwYcPlwhb0LzgK2pKP6Ph76vLWoImBYx/g6TFBv9HfsGHDhg2XB1vQv+AocIPA/Y//+I/XJgJLGFf56Dii4QU+v9PfsGHDhg2XC1vQv8BoKx4cvYj3z//8z6uDvjpe2hPsHdWT90Ef9EHTb/Q3bNiwYcPlwhb0LwEEaskq3TN9572QtwvK9edTvbWvjvTBH/zBZ/Y3uzds2LBhw9lhC/oXHAJ3sGL3O315a1b6YIVf8C/oe3O/3+1v2LBhw4bLgy3oX2D4+p4t/X5v/0//9E8H73znO6fzo4K2icCYlPHX+Gzlq/Mv//Iv06r/Lne5y/9XfsOGDRs2XHxsQf8Cw2dyJSt8H+XxPN+q3UTAV/l8tGdX8sKe8uoK+Fb73tr/wA/8wPe1sGHDhg0bLhNuOXT6yz/o3nAu4UM8Vuue5Vutu37HO95x8H7v937T6l/w3wWreyt9K3l1eov/Qz7kQ6bn+hs2bNiw4XJhC/oXGIZOwPYcX9C3erc9b8V+o9vy0TCZ2D63u2HDhg2XC1vQv8Ao6HuO7+17K31b9mshwKMhyKOzBfoNGzZsuNzYgv4FhmBti77f2XuxzzN+wRyWAngr+jmoBJrbBGDDhg0bLhe2oH+B0Qq9bfyCf5OB68G2rb9hw4YNlx9b0L/gEKwFaYHfUDp6sU+eIL6E650cbNiwYcOGi4st6G/YsGHDhg1XBNsyb8OGDRs2bLgi2IL+hg0bNmzYcEWwBf0NGzZs2LDhimAL+hs2bNiwYcMVwRb0N2zYsGHDhiuCLehv2LBhw4YNVwRb0N+wYcOGDRuuCLagv2HDhg0bNlwRbEF/w4YNGzZsuCLYgv6GDRs2bNhwRbAF/Q0bNmzYsOGKYAv6GzZs2LBhw5XAwcH/BW57NGvpeFNkAAAAAElFTkSuQmCC;" vertex="1" parent="1">
          <mxGeometry x="1275" y="855" width="214.77" height="100" as="geometry" />
        </mxCell>
        <mxCell id="vmprMbfdOw0M2ss2T3Eb-56" style="edgeStyle=orthogonalEdgeStyle;rounded=0;orthogonalLoop=1;jettySize=auto;html=1;" edge="1" parent="1" source="vmprMbfdOw0M2ss2T3Eb-8" target="vmprMbfdOw0M2ss2T3Eb-31">
          <mxGeometry relative="1" as="geometry" />
        </mxCell>
        <mxCell id="vmprMbfdOw0M2ss2T3Eb-57" style="edgeStyle=orthogonalEdgeStyle;rounded=0;orthogonalLoop=1;jettySize=auto;html=1;" edge="1" parent="1" source="vmprMbfdOw0M2ss2T3Eb-8" target="vmprMbfdOw0M2ss2T3Eb-32">
          <mxGeometry relative="1" as="geometry" />
        </mxCell>
        <mxCell id="vmprMbfdOw0M2ss2T3Eb-8" value="" style="sketch=0;outlineConnect=0;fontColor=#232F3E;gradientColor=none;fillColor=#232F3D;strokeColor=none;dashed=0;verticalLabelPosition=bottom;verticalAlign=top;align=center;html=1;fontSize=12;fontStyle=0;aspect=fixed;pointerEvents=1;shape=mxgraph.aws4.gear;" vertex="1" parent="1">
          <mxGeometry x="1080" y="1113.5" width="78" height="78" as="geometry" />
        </mxCell>
        <mxCell id="vmprMbfdOw0M2ss2T3Eb-9" value="" style="shape=image;verticalLabelPosition=bottom;labelBackgroundColor=default;verticalAlign=top;aspect=fixed;imageAspect=0;image=data:image/png,iVBORw0KGgoAAAANSUhEUgAAAT8AAABrCAYAAAABzoX+AAAAAXNSR0IArs4c6QAAAARnQU1BAACxjwv8YQUAAAAJcEhZcwAADsMAAA7DAcdvqGQAAHL4SURBVHhe7b0HoGRnWT7+nD59bi/beza76aQSIHSIhN5VkCLqT0T0jwUL1QY/UFGwoICACohApEkXAiSBdNI22/vefudOnzlnzpn/83xzFyMku4uw8Wd23t1zp53zna+87/M+79eO1aWgL33pS1/OMLGXX/vSl7705YySPvj1pS99OSOlD3596Utfzkjpg19f+tKXM1L64NeXvvTljJQ++PWlL305I6UPfn3pS1/OSOmDX1/60pczUvrg15e+9OWMlD749aUvfTkjpQ9+felLX85I6YNfX/rSlzNS+uDXl7705YyUh2xXl5iHkNbSG94xdoEm33pxgqBjoxt0eI7L37tw7BCR1cASOshiEJm2i3bQgA8PFhwgsZEwjS7fKrme1JmshSSx4NsBPzNNJDxi3c5ce7yolmWZ1ziOzXvb7vuAvvTlTJOHDPw6BtQs3pAfkh74dfg20Ic2D8GYT9DS7xEP/fFD5pAnxjzLCQlttjm6XaZD0NKpyr2wLObpLk9Fl6kmvC5hmgYEvV6afEn4na47Dn4/CIZ96Utfzhx5yMCv2yXLElWTEGuIX2RvIXkcWZdy0HRRzwIVvk3x8NoERp+vFlEtJqAJyHhNO+kQRB1yRF6k6wzIMY2E7JAvdZ7TA1UgzcMXkEb8JuP+EPj1pS99OXPlIdzMVCBGakbgYZRLyItht1pEugAtQlmNZ/zjHUfw7elFhsA5rBst4jFbhvEoAuBIm9c6pG68vEHA9JmGSB4iskVHidmYY9p3l4EvHVzErdMLyHg2nrh2BNeszmG9R4DU9X3pS1/6siwPYZ9fE06HXIykKyQBdLtt2LGN0PVwRzPGO2/cgz2lGhr+IKJUAW2evzYI8XOTA/iF9cM9lkf8akJs0YKvcFmszgtM3+EH9zbxlR0HcHvTQrJiLRzGwYXZfXj6yiJ+9or1OEuZWJbjRe4zwL705cwV0qaHRjpCL2ENjyhpw4pDopCDBWLYJ+4+jButLKrFVQjsIeTaeeTdlThSdvG1vfO4R3HsMkQzaNWQB9GUCVkBGny7u9zAB++sYE88AC87BKdOHlmroOMO4DvlFP7o27XvA95x0eeHCPf70pe+/D8oDxn4dY8PPPBQpGppgKNr41AFuO5YA1Y7RYR00O0QGAlemSiBa6VwsB7jq8d4HbGud3m3l2meqzcKl2+fWUQ1X0QUpE1fX55pDAgkvRSmOx5uXorQbrdNn5+kz/j60pe+PGTgFx+/FRHMVchq8yCjqxADy6khrGqmEIQRrDzQzrVRiRYJXg7sQh4H1Te4jFeaviL2h6Q32lvnsW++glZ7GlG3itDqMjBOMRQO0LIdtN0YsdtCGIZmastx0fSWPgj2pS9nrpwy+EWxCVx7h8LF4x86BJSYQKav9Nl0xCkY5aFpJ4xu9VWWgBXbBDGyMjdJo2Pn0SVN83m51W5gLlsmKHroNCzYToKgmyDuuqiFXQzy3h2XwMh00hoL5vedFMHLbmI179nMrkDKSsPv+nD4WaxSh8M0XGbNTVhMXuN6HrMS8l+buNtmlpmgKYP6EiPzll+jzc91fq6rN1FfqlOxL305gSybQO8wiiThl1SuuNP6z9/4OaEGdjUdS19Q10CzMO91+rK9IKbSJRVqcWKs6XRLl0qufnlRB9ltEtIQlHcahOzl4SinDH6O05umkhBQOh222HHSpGkmPJrWEtuQMazmsHQyvYOAo7kmHa/JsNNGYhO4/EDRLkJqiMUkAwJgjuHq6ZbZ2EWVCqahEp+f3W6MbijNYzaZD3JEvqPWMTr32OSeYZgJlqwmGqc/e335Xy7G6UbUaZmGQIxOPenYiCMXtpXq4RkPzVOwEx8WHbUBO+peRwN5Md0tTUfYJx1U31Bs2cZA1ZVz+qUXTRljsFwSFVmBi1aoSWUPTQ4eajll8DOhJiUh0/t+uKi60lse6e4A0laOn+k7rAqhpMrUyRZjzzC9gDiom4kMyjP2kiC74+dW8/RTK8ftwuE9pYBRR42Zge0S1QjmrUoZPhXRIsuUJ7ZjB37oIZO4SEUR890Dyb705UGF0Qo86o/mYIkn9DAExBDz3hHSiTQI8HRQEfVR43a61te5RE6bmCg33CICRpZWNJmfT7uIFDi8uYYTWQrmXSukyFXIUIKH4P7/E/IjgF/vcF2GjzxUMTrMAjICSIONWWVyZTbaVLeAo3Ees9SEGhtek4/V2E4i4AwNmPjyhURCKYDC0dMtw0HL+C9TDuZJABwJ7Ohr03kLDTuHGc/HHubzII+SltwlAVJuhnl9eNL+vvzkpEE9CmkN1GhqdsijF0kojGxHNTP1StGGEYEjVd4l0DndkFbS5lc2HBqDFXXMz4kxzWW7WB6oO50Sq2so1sF7JQRhGuxyNnth+MNQThn8DNJRxPqW37J6umR6BAkeGX55x5EmfvumWTz5q0fx1P84gt+6YRbf3ltBIC6vWtQgh00FMP0ZPCwSa3q8rqtqPr1SbasfkJ6MiuSGWm3CrKQslBmK70syeOfuCL923T4879pv4JduvBd/eqiErzHfJYUAP0I19eXMlAwhTN0pxsELwPRKIBSIpDx5W7pe0UBGQ7XWIm2miaTboC2I/skI1LeSIuCQXBBslJaWcvbk9IOfuqKMgfBeVjfiW0E5AdxR1PPwpH6nbNVdeZ9l1NN0k3B5AETVouOPqjW86+A0bjzWQhINsALH8N25Nt6yYw9eeOdd+PpsE/uIgC2HjexmYYnfs8Z1bbN1+pnVEploz4HxXnaFjdrGEX76xFQXv3fdUXzsnmO4J8qiPLIFO+xh/OOOo3jXl27B7VMMQIxi9qUvJxD13NTF3AheToaqnSEbTDMSSqPCY574tujY1D4bgQbrxArNbIQMFrseDhB4mjznuDiKlPhqJnY9BL63EdOajUGLFbgsjoejvPEM39eDhyAD/wPivJmy/P6EYh0fwiLzS/herM9i/KhvK80q3ninhQOLbTZpjMDvwA0iRI6F2TiFY+EA7th7FDP0fr4fIEfG5TEIdVm5e+sWvjxfNezK77hIDCWj1yQN77Di/W4b24tpPHpcHcVUB/6XgxJoqo8kYUpfm2lhV3U5pHgQ+YVNWXgewdbysEQAvnEB+OAdR/DpvSXcE3rMl0+P65ClygtngaBg+jeLYQvnTRQRnH5y2pf/1UKN9HyE1LGjVMWbZrr48qEqvrCvgs/vr+GGeeDwfBlnjeeQp7arszy0Mri9Bnzk1iO4vlRDi0msKgQI1DG+vFOH7MtAz2meltWxLfi6RddB7DjYQ/u79u79+NbRFu5r5nH5YO+8h5P8aJC+3AA2w1xtLiBpdlpYWFhAe6qKITuH4fQwOo0YjXILaXq/0WAAuY6PnYUt+NTuCt775R34j++VsCQ2rXSEZxoqO82y0lo0fX67GMq+59Ya/uhbM/jyHIEwOwg3l0IjGyLq1gi2CfUuQTOVxwHHw3Vz89itGKQvfTmBxG6COnV5N/Xro3fsx1/ccBs+uHsGnyi7+Nd6Cp84toSvHlrArLqANODWtNCk2h/m8dXZFj65fx9uqZSwKItkdGwRRE26ZGKJWNlpFxlkj0AoDjvIiPwr+0r45K4FfPaYqMbDT04d/MTDNTdJo71RF54ZpmJFOSnMJBba2TpqbgUtu4VuKoCTydAXkr1V20g1QgzW5+EHadyVKeJtexbxK1+fx/sYfR5kRLlxUes0fjx5oOVq6p88fnyvPYr33gu8/pvT+PCxRewj00MqDa/dQabRwrqpIkN5C+WxmGUoIV2vIkea2Sa4hycmlX3pC5xGx8zHe+sNc/hoaT2ux1rU07SBaB6rGKGsbJfxiMEB2g1DTI/RRdbFAL8PSxGqwRDc1EYslAtYS5zRkCAYCjuMo1z1/LlCzNMrWQMFDlpegkynDZ82eyhYAeRXo5CQtj4M5ZTBTz18CjJJ+3oHcUYXZ/l2vDCItLUCrSiDJlmc67eRZmNnGA4HKQfhQB6+KLzAyazayOJgtYKPfH0//uX6aRxzTx2D/7vyK7fsxfuP7MMeNqzHvBSphLlWG0EcwmWelyZZOrcDby7EJEaQcvMMQ2IMD6Qx1g95+3ISaWUz+LejS9jZXkK9PoUL3CZeumYEbzx/I373nGH81tO343kXT2ANnb3pQabe9egDbSsR6+rLQy2njDoau0oM8PGDWo1AJkxQRDhRKOAxxQwmHBstMsNqYpMtufydZ1gRSuEsopCM0O4isrqoM4F64ONwJ8HuKERlZISp/HhynOE9mBwKUygnaWJ2AO1wZZHFdpi3pt1BlcdcbRFOOoDlBggZakS1Otb6Dh63aQ1WCvT70pcTyByPL+w5hDn6dx8VvHDtEF65PsBLV9h4PgnU4xjpbvM6CDoRrLCpeNZc55EMyC768tDLKYOftojvWr0O2OMuq9sx2xUgz1Te8Eg2cKaGzNwMbLuAZHgNZpBCpdVA0Y16C0GIhREBr8Yws2MHyBRH2fp5lFunnI0fSe4fCk+00hhqe6T0WrehbheWhwBsWz780McghuE4WSy6LVSSo1hpz+I5kwN42qphluL0j0b35X+3dIhnc2ULrltA0e/i6rOymCQzsKMy7WUJg9rJKKIeSR21Y7mX4Zve8C6pgnnty0Mrp4w6x+ccGX8l8HP5Db/S4KxDpjTCcPLXH7kOv3/lebiYAJIsTUMreNIDo3C6RaRSKbMsznUcZIMM6ATRrYWwazGC5oMztlOVE7E+AWAz1UGHSml5yrdtHC+dMJyOj3ySRdvKoza9iJVRDVevTeGXLluBl56Xw1rRW4J8X/pyImlVgXY3AytOIxcEWKkl6DKZxCG0iSJonl+WCuehRVvSLAVD/rTMsh9Z/I/IKYOfpqVozWJX84DUWPogum6+jM0xQkR7AdHizVeM4v9sTWFDNIVkcZHX5Mx2UkmUILBdpKkA2nAgRcAquB6K6gD+CciJQt+m20ZI95w02mYSqSbb1AjOJYLifL6D0J7DI3IWXrdpPV6/fTWePhFgQpOyWb7Y1cb6fenLg4tGaUt07FbsYriYgU/nXtMora9hs6xZxiYfWqVKaScijaEZ4qAhjRM47r6cPjll8BO7Y5AIx5LX0jRnCVtSB0Ewdkjj+ZuPJs4NmnjVpgH8/iUb8PwNeYy3DxNq9Pw018yda7Yb6CQhWRi9pdVGNf7xR3sfTI6HvpmY9++4ZKE+ugQz7SbdiRsIGJYMJ2X80lYPv3PFBrxocwZriMWpqEHEZCzD/MpT96UvJ5LYJYNTVNNxMJKmYtMs4t4WQ7BJ8RRA0M/D4XnqJ9ezadSFLuDraEOBvjzkcupWvbyDgf5JYv4TAAoGtZmB2lmz18n+KTbyDHEfO+zhFy8cwC9eNYlcKr0MnEyBSuJkPHrAFspJHVZRqnF6Rb2TcZBGM5tF1XfNFl1r6H5fODSJt23egN9dmcflxQ7L0kHZDtH1yPasNC/0HpIthfryv1ty1LBB20OuEdFxkttFNWp3ZJxs4jDUSHh06wx+9QhWLQdp85yWWTzQ1Wqnvjzk8iOAX4I2mVKVHqtuJr2w4XSwQS3U6OVE4TXS1WvaUJ16bgcr6PVekE7j04+y8bqzWljnL6LVtRkSDJFVjSCXMESo1ugBB7CUa6E7KLYVIgl9ZMjUBiwfC1qPq+V0TNNSRwlDUYsghTiNeWJx1VvgDQeoTCn+1KVHZWhr6bFImo+YYphbgM+8gwzTas9jpHYMTw5aeP15E/iNy3N40lqlpSnQmlXlotjx4WiPNXppeE0UWOIEZSEoWs3e0nWjvBoHkU6fwoCIxl0U6vBOy+fTQJSniOVhkfWNDv2uPQ8R8UseSbeJCkLNjDBpdBP+lugZdxHzdDwlXsXk5vndlPa2ZpIt5kt7Epo11O0mb6Fd5Hrpm54LvQl5oiYxhprI1GL+tDC/95OqWZO91e4xmbopJ7/U/m6JbmbyqDO1qL93nvmuS8dh8habUXOVWdGfzuxqlLPNc3heyKuqPEv5V9oVuRhmUHlsQdujLfI7/sCv1RSqowX+qme7oNtGQzti8Jb6MeZ5Udwig1LeeI35YflQYVWYk0mnjhJfFJKiwvqN+Y7/9/Ijs9D7XunVllQxJt+7edo+qsWeY8D19PqWH6HiTvO3FHaGOcyxKfbXYuyMAobEpH3dLJxSl9EGnSr1jWrGtLtUMy2fYLhhsWwmq6o15Z3XGK7B36Ilc0+TD1WmtmOrzvBNDUnCHEqX+IPqT+collKL9p6HyPPqR5Hwo6lLtSvfL/Ltoi5TmX5M6VCPlL/Q5EHKEpls6h4tZkEzBU1b60utXmEuYx46X3VgMqY6ZytrX0Gd2+C5HeXP5FcGwDSWdckoRJMVbxyNNlVZbnd+rVNVat3bnEuH9EBy6g8wojXFKc+sh93Duuoys+PEi3G2Y5EkyU5m4Nk53plfaIcIipS+TRZlu1re7aoJcYTX/uueKj61uICDgYegm0auTjBj+nbAUDhhk1Ex7OFVqLSXMFQ9iBdsXY3f2TrEglATmkwp67LCQoJjimEz8H9v3IX3VQaR8Rz4CQ2ZBtbVA8k9Dx3XMUaY6aQRWTWM57t48soRPHtlGmerK8+OsBiXkHXGelv3qFMmZSNk2QR52mh1wE/he5aL6TnWI+/vM6yfzKVwFvORVe12qPmpPN88uKi/xzX9o2oICw2CuhTiXv6ZqXdw70KMalhHm8CwspjGRZMDOJtJjntd5G0CCSuzS0C37A45LEEeaUMm1F0aMUTf72Xwl7fcjm3DI/jldatZ+dpH0TPPSGHyuHM+waGlMg5WyLdtG8OFHDYP5HHOkIXVNEKZn1qtE1IVCWReoMpxaTAxHEebWSjfZM8xw7ROglTg8De2meqMuekwIzI8Kdy9tLW7Z0qYJzg2nARV1mEwUMCTh4ZxifSFaiKlS7NF3Ra11WMG9GyDNo1dSsJ6Cpnw/q6L6+48isP88te2jiPNNvHjJuvRRkS25Clc5P1jzSbooYQRDc4Ztebvpj/NHMs/Ppi0Wf9aw8j08pEqVrsTAR/aTb2OQrxwy2qsEkGjfs05Lv74+v24rkxnof5r1r/jFDFNcAu6dP7uEtYRnOd5ZHnvRlDHmyeHcA2dbU430EgInVqH7fovUxb+5OYWQj/B44Y6eO9FkwhZHl9sQpES820bwsFWbzB89m3qtCA+4jcB9ISHO4gUd862MVdawlK5xu9drM7lsG1oAOcOOVhNPdL+lNpmIamWkMv4uKuVwft2lrCSuv7abQNMqZevFus+1Ynw1UULr75tjiF7FlvzIa59zJippgcTRXx56YIUImyhzbpqIYM9u4E37t2BAbeF115xIS4Vx6AzBqMw7RfQYuTnp7TSOUA7CRHYWaNHdx1mmRabOOK2cYTAX7VCnJtZgU0Nn3bHY1NPXxVLarswt0tdEv1ipKa21t6I0jF+ojoR6ZdXpN1fThn8VLivHl4yy13uoveyuikzlH/ORBqPPG8Yz05HLIzW+1J7WYkxPZMTuKajt9buoEiFMYsXPRt1VsANLP+/7DiC70y3UbZyyFHfAp/hMBu81vGw5DPcrB3FY1M1vPWq87HdZwu7gdl3TztjlFldBZqPNsa4lRb3ojv3U1cImgxVu9oHjXnpUsEcgq/rxFTgCI9fvRLPW5fGhTS+FEsd0Wt0Ga97TkBwpnqwkvzlOVcCazkdckp8d28F/3igiplZAgPLM0wAnaQRX7NpC65eA2SXjeVEIh9sE1gsAvR8J8Bnds6bNck76hEa/G4pKGCAzDXNsjeo7DWrhNVOFS+cHMFPrx/CeE6+UACUMJ8CpYzpM9KIu1jX6++t4VMEnFXVJj7wyC1YNxLjxmoHn94f4aZjVB6GWE2WsxXkGIpR1UPyk7BC5e9iTTGDnx0bxAXrAozRGVgJW5t1GbN+W2y7NJ1UxBp3WeMOHZv2uFAzy5zUYa/C6SFT39gxja8dXsQBp4BKqmCmNbkEc4GcX89iPl3HQDrEk9Ienj02gAtX55ANWC6yNo2EtiwHKSkM0xOp/NZSF2/87u2Yy63Ea9eGeCUBKGAVdD0xS9a33tNYHY2eLcv3ZyUsf6WR/VMSWhyDDRO9OMy34PRds8C1N+1BjX7gDWvyeNLmERpxB0esAL/82f34DhlbzLYbD2h4pXmknAGMuDncZy8iZ+dRtjMYoh5WuzN4vnUUL3vSxVjF86ULAZmmy8jiX6cS/MktNTS94ITgx1DKAMpSdRZj+REcYjv8w84Z3DrbxfTRFurFMXQspkz70k7o6q/2Wy2MBAEm8gN45rYAl44C6wk28pq/9c0j+KdoFVYyD7+13sbzNxSN3f53wa+1DEIeqVlit1nvOXxrpoNfvu8gsW4FHeZ9+P3tm/CytXn+RtCLbNaXrmReu3OMHEdw0HHwuQMhvrJrCjNUi46nubl0HmzVNH9rtqooErgLVI413Rg/tXUNnrjRNo47rwY/3tQyYVWy3riWYZFEBn3xX+SUNzb4ApHgn2/djRvLDJDGNqGdHcA8wexAuYzvzVSwSADyRwlivFnKqrOAvEDsK6J/IqhpSVw3Q4/uNgk8bWykAj1pRQFjmSEsLs2irjl2bQZqqSwSN4Oo1sQGL8ZzVo3hGZMp06GsPpRUSG2wVMHaK02Q5aHA0n99iaFyk/6wZSOg8Xm0TrtVR5GeY2XRw289ZiWeRaq6nZXiKvQKumQlvgFMr81mYz3JoDumGbXJvY8bj0b421tmcO1UG9MhwTAziiUqdCOTwWHm79hSFVsmBsgI2IonsTFyFTawj92Ri4/uXMC1hxrYwfCn5RFFecft9VliwCINpWrWdeZtgng7jR2VBJ+eiXEuQWY4n6aHI7BTsW06E0u7hDDf6n/9+tEAt5Ddud0MnnBeFncsNfC2Ww7ienr4vWRoAZmqdCFHMBtmGFFgjhIq1DSZyU4WfveBRTStFFaNpjCgkSiivE3m5ZDRaY6nkKZLh6dimkF+Mtgu0fcYv7l+KsYrbt+Nm0ohSmTjDusqSyZf5H1TRBWbTijIZ5EqE+jZPrex/W5g27RbXazPSmdSrP8Yi3RqOd2ARqjVlEstCx89MI+qsxoL7T14yshKkMQQcHo5UhhOG6K909lq2aX+ieUxT3JSzCbzrO8EiicRpqP9BFwabkRmUqd+vuneOSzWspglI3zWcBnrqd8pAgxhBTM04JA6FEWz/LSI7NgEDpBuNNhOkRNhBRlVq1PDcNzBKkYfz79oNTYV/B648kix7rRd6F0E+G8di8nmbKxPJ3j6ZB4x03bEDplxlcNSxKC8CQxpH1+ib/rD63bg1mkLs02CaZE2Qydu0cE5ZNmZiA6H6XfJSsuJgyNktfvouA9PUV/JwIvU388frOJOjDCy6eBxk4M4p6jaIoNn27gEkn1NC/8+Rdghkx0JYrxobVa19KDiahsvgm7IwyXj++yRCG+8bSfK8QDKdHaPyrZx9YYVWJlh9ETbjVkngRpF6E7b/+KShb+78QA+uaeCo3QcMnOHjjPDaqC/gZ1xkKnXUGwxrPZz2Esn8/XDR7Hn4DxWFIcxnNM2rKxTOi4qVq+S2VYd6pVN1nf/yOC4nDL4vfPmKvYutpF4eTY2jaLeRJ6eWhscVKjo32GoesehEm/iYn0+g7S2sCcjsQiGjZAUnxWQxGIb6q/jbxSP126mw3nGhkGCWRrNxhwaPHLNCs7xEjznrBV41lkZDDAd12mzTB0qjbbIZzH52WFD2bQSvuCp6QIyrRi7q0exszONyNNaSh+v3rAGb9xawFlRBQVRchpOyHBDTZTi/bXawyg+QVJ9CwmZ451VB39950H8Mw1vLxnWQt3GgCqT4ZkccpdhYIPAsciQrcDKvWIya+r6hEJKv5eO4C9vU7p1HPaKJkS/INPF01cO4ZlbA7zonLV41bnDeMJElmWOaPBVHGG4e5Re/uA0vSWZ78YRi16Movk6VPCEZejS+L+xt44DLEKW4c7B+SV8dM9h3GONE4hsbMt0cGkBeNKqYbxw8zCeyvS3ZWIUGUpEkUbfO7iPYdsUQ6bGUoTVQzkMiamThdHeDHv3ExMYsYpoHARC1gIWyFI/ub+G9903jcXMJja3gzQd35aRLp66dQAv3D6C564dwDMmhrE5UwcjbbRCuqywgFm249cWpnGYoc15w0UMkxFFBB6fIaQth8D7+kS6G+ZbKLeKWEpXcFF3BJsG6cnJhCzWu+f6LL80jkrPPFqG5QlSeqK15eqB0eeTtY/K2CXjddTZ67o4yPDq7w+UUEQWRRr/b148ypA1IDAEdCDAY4YyeA4PPVP6levGaaQd3LM4BY8O/5oJB3984QCesi3CT28u4FWb85jMeQTuNl21gk+XBs2MsXJ3lB1cN0vwph6fEPy6S6jz3h/dVcPf7ajhjkYWmUwRxXCeoW2MnxsL8ELm5SXU9aesKhBoA4bILSy4FUzbJcwuuSgRMA7MlTG6ModjSRZ3T8/T1mp44tpBbC38eODXIfjZzHPEqOIfDtbwp7vLZG8FDNeqdBpNvOERk9ie803Epb3+fZIMOaqDBO/P7avgL+6bxX1NH93sMEZ8F5vtCp407lFfV+DZZIvPG0jjCupSLt8h+60gSOiInCHsr7XwrWoVORKqkQLbSooj1scQUXuzagcqdQOoLn9QTjnsPf/fppCQ4XQDFrDZoJJ2ETBuF6Vs0muJQTn0mEFtCefTQz7/ohW4fAAYoYFbSQNtJ80Mk1EQxQXCbRpeh2wuK+tSjGNlsZM52RuGNFgLkwy1VhPnMrxD0CGtjIcYspG88hyrwktoSC69jK/OU6anZw5UqOnHagzReQ4vxzDJziiTT8tYO9IiGoaW4DELKnTAzDgdxjudDhJeMM0zP7u7gWt3EfQSNg9DWY8hQiFlodiIMUuvks7lUSdraeXSCKMmHhXO4oPXXEATOZl08P4dJbznYIS9HsMjJ8QTGOu/dNMoLmE9pVgFqg89yyHPukQUoMIw528JlH+/+x4crW/AlbkW3vz4VXgEDS3FUrTJdlyXYQT//fadTXxtrorpUhPjAykskq14NRePJUi85KJhnMOoJW3qQoZEz0tmo5D+9mng7iMl/D3ZWnO+ilGyhOdvnsRLz3UxKX1h/bborFLy0GLGXYZrBMZaN8Dn99VpiFO4JXJQpDFfMl7AczcO4qdWguCtaxuoWNQQJ0d9FF8q4Hu86Yd2NnBbRQ/xYZLUgyQd46uXTSJP47fCKoEgY1iLuh3evWcBH9tpo5xt4JV+Cq+/YliRDCKmHThkjKb0UgGVS8CnvlG1r/opBYA9YVWeUKI4hKdRWdZ/iyHYe+8o493HGDaGHYZWRfzh9hz13jbdk0Y0b5RgmZC1VJh6teTgxTfR4OkoXzJm4Q8vyaEeaCAhQLZJMHeZm26JdUEmzcjEqtFCaUufmrHwprtoH3QaJwx74xY+tWjjHTfOYqY1jHzGw0SmhKdvzOJ5a4vUcOoNa2JABdZDQdhmDb7cRZZ41/Qs/m5/k46UZ4RtPJb0q1ZfwhGCaZ5RxC+csw4vXqP8/ffDXqHIEu9940yIX7/tPpTDcWzJFFDw9+Odl2zFpnwFcZJC0KJua0Njt2XA+NNl4K++thuHgzxyxIH1LPY121fhWRtou0w3qNYI4gQChQJt6kwmi32sk48fAD5z31FM1RNk6QRGWzvxqksuwbNXETPkmz0NSikUp6thtMVQ0OTz/nLKzO8DDP0qnTpDI9JIelzH9RjQJAQcKgEbdmVFQamNamEIuwhC3zo4y9Cwg4F8DqPpAKnl4eAO80FboYd1GEKwdSR8j3qEEYLVet/CJqL2BA+HHkJK7ejBR3EK32XlfoL05jus4Gne3yJvHpAXJeOwnAZZh4Ux0ulVtIZJJllkQ3oWoS6ps6Kz8BVqsA7lfeV95IfbBM2IjOqTe2O899a9+OSRJUyltNRtAFlaUZplixi2JV2HAE6QIuAGegwmlavFOGkDw43nbhwxBnkiWaJifeq+EnZ0hsnGO7gis4TXX7YCF6fIQRusR4ZQMuVAFETOgBm1CACbB3w8eWgAt5UWMFE/isesnMAEgVomr70JPRqIRRD854NLmA3FaMlCCRKt0mE8b2XaTDg/m8gs0PMIhAZx+N7ma5bMfT2dyEUTBPJaCZVqh2FsAYdqZMl00dsGyXRYhy7PM90CBDDbZV7pkj59NMbH95Sxjwg1PDiM14+28eLzxnHZiKZ9iH/RqdBTaVK7mKru6kQh1hM9rlntIe0HLNMhHApbrOMhlKgr5+QIFL5vQnpNObJRY8gS4NvHKlgKU+i2K7h8/SBIfgmm1A22gcP6EruzyZDNc5n5myXQWL4nS8z2Yz4ewPPfXxwqZUzG12Gac6zXP7vtEEO2AutsHr9xyWqsoF7arITeAAovYBM5CXWPEY4Gve4hMH1m/hDaZNTri01cPZEjlmiLep6n7am0F6X6Jh09wEHzTU2mcXelbTb61T6WJ2J+/9zy8aEv70TFW0VnkeDiQgl/8IhVeNoobYO/jzJDKTWSOVhq1oXHehxh5W8ezmJVJoVdc3OYZ6SwWKM9EHw71HGnWcWl6wZxrhqNBfvvMr8G8/nR6RBvv/sIhsMJOuUWxgcX8Z6LtmJjng5Jj58lo3dUfy0eHlnssUW8/65jjCCGCNRLeOaGcbz54mFcwyhlgLrssVxW2kLNrtO9sJIDcfwuhghuj87ZuHKigDJx4ObWIhYbtMdmSLDNYxXJhJ5+ot1GTVygwbQHkAf+9gHkXFLKYSJvvm0jk9Az1z16iBTGyWIGqIBxyjYPCUqLKbHS1Vn+9b0L+KMb9uH37iZo8k4ayNZIDpvHCG0WsdCQjLCTT7HiHbj0tCZuZyOqU5sp8qI05kkg3vPdu/CuffvwwXIVb/jGd/Gh2/YS1JgOK9QiDVaRTXwja5PWmTBInqZg+orkEEKHrrBThscQWUr7HTrj19y4G7+7j+/jFbD9YRS7LTLHEkG6iohMKNPMY56VGWdzpNw1szIlpbwym2etXd/bpv8kUmZ7z5TpnxfrWNsN8byNQ9imsdHyUWZRmdYzIFg3VJBOiqzBTZvGmWQeLyZAv//xG/Hmy8/BxWmtRZa+SxFYXlEDMrlCbhAWASQTEUKX2rhkIoOfv2gMw3ZTVko2o/4YtouZcqH+P1IY2SKZXNpexG9vG8EFKbZasYhdBN9vHt5LZsgWMxtrqolYey1WFg1DjPHaPbO4bpEsPTuEdczCSy7N4fwcQ1uG906TF2geR5egyoMcDVmGWSkyQNg1kpI6ns+LXrdlNc5hiHMkrODvZ+dxFxm9+r6Ur6523KF7umIgQ+NJIWflcajVwM45GhGzpP5eTfVZ/i+EIGjSz5s270lIPVqskI3NkN6egkSMk0KLIDHdwQHLR+DnkLBOziLxqCpMS7E+HLaZ10aZhrgYpFAXSJGVVHiORWKg+mwwb6wFOrIB6hk1j0xMD0XTIFKNmWWLGFUV+HXM4JI47onlAzdOYc/wBrK1GOfx/n/46NXYlptnpheRC8l4O1mqQpb1l0U7yCJMpcxsC0UUgzyeM+LitZdvwIYMAa4VIpNdg3pdI648T9OGfkz59NQCPn39bkTRWnyPVbI5F+MvLt3McF9svgPXHmQNKmJgWYkVGqX+j9kWDpD5TdDhvig/gJdvzGBrinrWneI5FVSpC2VqQdommjlF1msaNTlin+GdM4WtAxF+6ZwMrqHe51duwfUHpvDFXXvN5hLyiFab9+bbB6vd/9SUk8jPb01jDb1CuT2PcjpCmCUYMOWIyt4yoZEqkTirSZ5EYIFDnKYhhR4+e2ABj/liCR84QjuiXaR4jrYoE5NS1yDYGCVm0VVrEVAVs9bVp8fqUpQxz/r42dvvxqHZAvzyEHExC8vfTE87hNffPIeSSmHTMJm46lYgWxXF01ZBVOhuTA8dVagIVfhs7DYB7qY4jdfdXsJvfOsYvrjEkKuxRM/ZpAK30AwZhmgCKvPRyvs4SGVLU8myUYw4N4kjhVWYJ1O6xC3h2euZQ81pPIlUWYZpGm8y6JJpNjGaJ6gTwJBeAe3rQG5swIy5NvitrcLM4zVlKoUOtvH6s/N0iYov9FwFOhlP3oNsNiZgBvUyGlT6eSL6JPbjt7ZvBKNPgp3uU2fqy8+Y4GH+GGPkQYMBhkxe3nT5OmzM3oy1yTBuaY5gx7EsjdYladGoLq3VH+f9c3jvXcAuzasbBq5M7sCHrszxV425MS1N2E0zcWPcvITlIC6go/5WIwRAZj+FJTxhhY/HjTFkaXcxzNz96Y5jZiqV5rtZQZWn8QY893VrLDKDGYaCA3jfIYaYTDuwdc+WeQSGSVlzGyiNqEZNmqceAp+nYlzz1Tk8d0eI99xrkmL9LqETNY2jMUbRqpNfds3+oikCPasZ/7qPbcQTgsYxvIZhpeotzxybvDusK7ZWkX/1LqvBLkYOBYamSbtIdjgKPxqEz9DVAB7RR6SP+MSbW6bfsMeheCdL/XKkyhr5JFB31BVBlfBJo0KHbDA5qplYeMdcgqXGACqMOK4MFvCuK4awWqO2LebAImv222awTv2eMif5ftPWuqe+4FGnjj6HP/x/g2NsqTkcIRst0Iu28y5yJDXHRY+mlYjhHj+MsF7N3E3zgUyku8T8NSC38oF7anjLPU3szw0h2ziMV6Sr+LPHrMUG3tdjmN0hm2/RngtU5VzIOuTl1+6t4MAhRjDFcTrWY3jPI4dxsaZyqNIC6plVBAljr7+fh6arZPmaIxW2u3QozjgjKAvbOm383VMnsbJUgbNiI74RBrjWKJFIBbGJ9pPRM4MeQFQ9pyQXscV+4fI1eOaacQxVG72Ocp+MjSA3QpArN5tw0mmkB/LmaW4tGrqccJrfeaS4egTkP9++G7/2nQP4YqOLqjCD6apt9BirokxEPZSBphPXjMF4YQZ7qaGvuf0+7FwawNLQCgSjaQLnDApkEFpud8vROn7r+gPYxybV9tuWzTCKDaWH8DFGQ9xU5zgTI/truXncw5Dmb/bU8HYy0m8epuckmKyk0if05Npuy3aoyOkCKzmFYIk0msdahtzpzEqGuV00aocx2tyLF63M4DcuPgcbqVBVTXU5iWxgYXNUuDJZwmEy3e/sraFKz6sBmArv77M+/YgN3WRDyyppqV3WbZMMsGxlCHBUvTTDB55vtFoPfdIhkdMgSIktu2SBa8cGMUwPr/o1wlDnpEJwYmSE7aOTxC9613YHd83X0I4ZIrMe1f2gB00tUvl2zy6g1QjpsQl+Z5/FsLWXxIkkEUTJjnQw9JOS58n6Lts6Ajp8NOmlF+kEd7JJYqKFvdwloohxxfgwRqM22inPzGU7QPIX6bkvLLaAxZzJtmEVIkNd0wwAqg5u2r2EJsF/jkz0jqPHzLZTUYsshKGSQNNkm4bZC5HUQR6jxmzetzSDXHqEOtTCtvE1Ouv0CzPT6YQ9gxSL1T83w9AbuH3PIZKMOoGghUs3rsZIlierHvVsDb6qxCcTbS8ngNy23sX5qyfpXyqMjjUxXIsHHrwBNSRgDjeHEm1JMyG6YopkmqGdwef2d/APe45QTwp0FjU8dVMer7yKeWS7hNq+izqjATITerLZQ+LILNX+s0dnMS+7rx7DK7eoU0Zpn+CweF8eGsHVofexDrZZwqjm6q1ZZNsLaMYevs1279rjdBYZBHokRYc3fAAxdX0qkkoW8KQJD2+4dAK/fM44znHKyIYlAouN0mKE4uAwAbCOqcVZMzE9l+UNyUzaZIHqu2qScR1iPP4Zevm3fG8P/u/N+3Ebw0ANPsg0fOEHG7Id1ekZ1Rhp7GNE8Ge3TOPaJRfDqQGUkzaW6EkWqx0sOSnYqQIjuAKubzbwt99bxB7ag2JC2+kxRo1xOOrldxdxmI3x6cMJ3vnNGXzw3gpubhVRyo4Z5e+0FgnWelp9rx+tHnZRpyVpJNVl49lkYJV6Gz4V5tFDFl597ghee/4YHkWyk6exZP0Hrtz7i7K2PR9gG984UQ6fnIrwjoNLuD20kBW4mCd4Ma/CKbl7AqLmKqom5Mlb/Nc2fyM06FzoP0z5BADqR0mUT34IWEfbVw9jghfKkZppiwTRk4umigCXkRkkBGiH4HQzQaDT4bWio0xLDPXWUgv7auRKZCtnWzauWjfSm7JwEtFWuLqBidKZH22HJo++nSD12BUK2QIsMQy4+cASGZlaT6Xu5anAj1cO5FBzLVQaTVxPz+47KhjFI0NX/rRFmfo0KX6cx3V0IN+bLaGTKSL2C7hjqYTvMMRKKYRivWqXZJ+FaqtPkklpNljX9nDXAeBwzPIxXD97JIuzzfQUrZc4vRJbcg6JKXXPWQnQMthN0nLXFFmW3cQqhkuPXeuZdpVH14Cx6rPXQXJi0b7QkjUkTVdtXIFMp0ynptVKXYTHnSjl+0yP8n3g4zFDlSymU0gxhLUYLZQ9Dx/e08WH7zqKY6lhpKotXLWiiBdtLeIcRkoZ1m/MNrZYv4Q8JsbD6i35u5U2sCNkCMz6Pj9j42Xracds/5MdRAlqhKIjTdmmUtjEADoIx8viFRsdnJfpwA4T7JsXm3fh6WHIEtXXA8jJa21ZujRYUc+JpIaXrbXw7qs34gWrfOTK08jmsuhUlpChJ8oWyVLYiC2ClIBRc5Pa7QgVKqDD8CxNtJ+NMvjkUZsAOINr99DVS9dZ5w0qb0CAdOtZ7COC/87dO/DZUh2rPPWrRejM7sM2O8RjxsZQcDuozh40IXODjO4Tu0v4yO3T2JUQiGyGxTQss6qJbHCGgPau3S184Hv78d1DZYRxDjmfRsDiN6gA9WwXRV+BIT8TsCvMTCvDoKpgoxI0yBhmsdor4cVbxvCWy7fgZ1cNYm2KLajlSKxZRdgnE/W7XLV1EqME4k59AfPNDL60G3jrV3fhD+4+iB30AlPU94pvo0WG09V+54IBsthUKCabUMm1rkPzo1wzGdy0qYyGQNkhWFk0CC8mUx3M0YEwf0mvz6O37eyJpQdOCTaSlbU7TaS8DPYxtLZdgbJO0HgtcPNCHdUgQNrL4xF0cAxQDHCcTLTYScnwLnxvkxGQZjK2VOj4xLVFMjwPDTqRexYqpttC5trRkkYWTyr8rE2TZgDB8nz8x8EGmXDKbJJBLm7AWSt9PI9OgMap/p5P7p/BIsvQot4EBNWFdBZf2nvUrERR94ixCxqn2U+Z14vRaIjly/vLcNMew8wKnrZhlXkkq55ldrqlw4JqENCYq8EfwnM3wB7qRc0bZGTdxba8h63Gq2vOpR4uySrkuSJEJxMzgMI2zLKsFwylMOIrytEyVeq6RlWWhYGueb0/8EkyvK8rxsf8tKhO72bG/mzXfuxntDJEG3zuKhuvvmIMZ4kHtMla2ozAUr5pc4X7agMiGO/n4nv7ZpC283DYNmet3WQm3euZxSc82GY/dFC/jx8aTN8wOI489cNgEDPqUS/bSZPR0wNX0CmDn8UMdrT+1VY4VccGFvD/u2Acb3vuVlw+soTR9iIyzRLiVs3QXU1BcKjQ/GuMsmtXEdSrGCx3Sd9HETGM/PZShE8fXMBd6pdzGTa7PRQ5RErzx1/dhxvjtPHcE+0YM/UQlw0V8NYLV+KvHzOIV5+TxQUDdYIiG7C7EuHAJL64r4G/vLuEu8MeE7PbDNv4+oWShc/tnMZhQkhqdJjhHVld/RhjrUU2tfpatGwrotGH8NwAxXwBPis8mTuK8biMx64Zwh9etQkv35LFdimBWGqiyb9awcKKPTm2GAC5bEUaP3PuBB47aqNATzhDSn5rPIl/XxrFM66/Db9w40H85X0VfHsGWOjQ22n/N4ZxiavRPwbyGkSgx9Sov4yEtUp8EwTapqtBXlsPx85r6FkLHDXqR+nBzolF7SWjKpAVhbzWZz1U2Na0R5N3GY5kb4X1ktJKGoasY0VkzNe9nqATifTAvPI2qj5tjKt0nVoVW/MOmUKMiMB0sNZCWX6FWqZ5oMR4c+UjR4GNOYaCDPvvXWphLxOJ6fGXXYDwy7SlBnTU4X3DsSUzqJgNK5hokQHSqd4xU8d9skuF3bpOtEnCtwK+gxXgejL8DMEzS6f32DHVY++U0y1qPzm0XgArSGJpeG9FPzajHm0ecs7oAMxcZBELS+5Q0Qk/n7x5e+XQCF2rawaoxnJiUop1li9fBrkflOP9fgX1MdIZtYMUPrCrjg/vPIpSboAhuI+f2rwSv7QtjXU836iLRTpvoiERkN6OT9227ET1bmGhHGKYtNUj+N5wZAmv+eYcXnjr0omPW0p4wc2L/+V44fLxIv72e986iBtrLmZZzsiMsmtMPUKK+qCJ+g8kKvupCfOubphZco8WyJqI3CI/V5A5veXiFfg/j96Gy0l7i7yxhtg9P2sGN2ScKbKZfGcKA75HAy4Qc7RSo4V81sUBhk+f0fpketeAoaY8+Ht3zuGmhF6jnMJasrqF8BhDEOCl507iUQWyKCr+U1YW8YJLtmETtWGIoOp7Dqn4MD4/k+Dr9N4KIT2GQlrT/LndFXoHjTSm0Oxqp+ZFdNNthuYesgkNr0bTLJD5ZTRoE6K7sIjJehNPGxrGb597Dt5OkH9UqoNJiwApUFELM7a3CERaN1w5Bde71G0T8IAXrMzhV89fhctGmgzlaxhkKNGaIsOzN2FHI4/3HCzjFbfvwou+sx9/cm8Jt82TBXZZZ1R2E77K1kM96FMrXBiCCE1YVrPNGBVYjxONFQ9rMTHzdurCtKXofNGAa0e0menodtRXvu9tyVkPHdM3pXlxm0d4IttYSwFPJj4DOq3yOX6mJjFpMrGdSvO3DkZT6uPqosY8LJHMaaE83/buzWLQX+FJK3I0pgbqTOTaexapMQRHreVkNkSAZcARde/Th8neW9SfqIUnrB3EM7UWkdc3ujl8fMc06up/EtvhqwkzCd4d6vW3DtUxS7bSqdZw1UoHg7yvbq/A8nSLrXIwj+oOkLNTQ6uujlU1qTUxAzBrBxXR8EvmUZ2dbAkW3bTQyYXXidsiod3xYy6VNTOqtFwxZUZG/qscZ3waPXfF/tsBygS+vz1cwvt3HkREuxyhsRYIxCRcWF2gQ2SksFRrIvEJdnRuHTI+LYJQniMybw1hylLKBPlqrYz8xAB20fl9uR5jx6x9wuPeGetBv9PrZzpZ7GBr6uFpzWaVxU2hqz71iPloPHAd/XCpH0zMCCPr3Zgd62I5vYCMYLxTxtUrGJpcNIFHnLWRQOShXGszAwJBGWMbHo23wfCsmY5g5QSIXbKrGDUyusNsX01r0RZSVQLqYVLVRSvGED1LY2EeSSbBlZsLuGoFVdWtIyRr0tji5cMWJgddFK06OqUZDDD8rng2jlRoPaIM1FxGMDhCa9KcwS6ZjSYGJw6DR69IQ6ISxS7yAa+rVwjWbTKaBMPpAFduW4+XPG4VnrgKGG2x7A3yfVqjvEibXjoxmmPBJyPWnLOTyYAdoB02WXcRLhgG3v6oFfiLS8bwqnVdXFScIX5NIRNVMRH6GGuNoL5QJFut4TduPoDn3zSNm8gAZgS6QiBfs51Yj6y1480qdh3T29j0rh2NAiisJPPW7z0DPrFoPpSG3jVKHqiPluXLkZGb9M3KGJaVb52Yf8MGDZShY+9C5qQHIScSdeEbNKOBy6hNQK7+IBpXSAc5wtAkoYPoMuRnNEQw0xUsp5itMsE6f8pYHi6Zn5u28ZUjLdDPUS3JjplMWrbKczSt+JOHDyJnDdIRJ3jeuQX83JZhFGNFIHl8Y65kRpQTzTtlltR/FvsMyulAvqy+NSK/Br9erN0AeAq1l9BIx3maxSWzUBivMndscXqGdbx/M2nTTsSgUmYQ3XRwmulANtI8LFXoqTQwr9WkX7B+dYnaWltpacTUl6Mznua/ihifwE/h+ELaxQfvq+FD9x7DnJ3BqMLL0iI67Qj/+u29+OacdMejDaZ4qybxgREV7UNit6kvNBHDxPhZD2dvMrLRtLHhTg1rkwU0vMYJj6bP8PUBDv1WJyYU61NYMbcHW2tHsCZWyKu5oqowFjlQgX9YWIunJhHRX2XJ0wXlWYl6DEFollvwTbeIQp2ov/sQpvftYYWEjPfzxB8PUcQQmGC1FA+gqXgtW0LDnkWFHgPeCAbSAwQG+XAqGH8mESLF7lAZQszbNXQHtVTOxh3751HVqKa1BN8vIbtYgUdAOEZPc8gdRJ6Knuo0qP914xgl2pJJWcynXFZ4i9jqmqeyuSHz1sqTXfios+Fl8B49nSYMy9yX6kvYf2Q/dh0oodQi3Q8qWCwWzUoHLUsKeK8unUqd+VYFDsZq0hNLTaDCUEDTmDLlWYb+NVw+WsPPbbbx/idvx4cvOwu/vH4YW7IRWjxpikz0SK6IQ0z7QKmLv/rS9fj6njKWpE+OCXjMYYSKZRP8hBMaXDLRnKacUHl7Dnz5vBMIcYN/bFTYVqqHkE4tJ6ov0QAMG192p+5/rxuRVbtoNOm1WAGnstmriZqVF63gWX7bklOhcSXaoaVDg2lX6Vxo0My/o9Fr5tt0R+ng+60ZC1lGC16Q4HCcwb6jmnGoOaVMRx6ZhTi2tIS7GhVytTQjDRdnswirUgyz6OA6rRgzVI4dDIm13lM7eqlfRGujSUBwN8METUBPjxTw6GIA7cUnenTyoP7Hl163AOuRL+qJM3dlg+oBRxkNvNFhd1jMGiMmQST/mEo07snUz8mlpXrSubw2JMN0PEY76ivWMPmDiMBPx5/tSPDxe2dYJ+PIUPnXDOexds04GoSZhj+Od37lMKbMFazQqAStt1aThNrMRCuSyB0ckoscmacih+LwJBEQeNXlZ+Otj9qGj108etLjX0gW7n/c/7f3PO5c/PUTt+JPHrMVv/r4c5CiwskEGvSkifPAW3adXGuXxWND0EmgxcYw3cQtgg/ZwF421l8c6+DCb8zhD/bTUMNJGkee9klvSralNbsWhmBnlgiQHQzOZJFpjzFjRTKxOoYJAo9ZrwVoCicryBKwnrthFc4maoe13vZWKdLX69uDeNW3dmJHzErrjGNPXMCLr7sdt2nwgmDZya7AztpuPCFVwtPOY4zMezsWqTZL+PI1VK1onNFD3vQrxZ4YGL2WS7DMOPzOQVtMUAzHbaOVtfHdKM2ws41XX9/Cm+/VOhI2oFqTp4QEQUIpsjHLRn2qn4Ly5ajAbQJ+16U1FsaouDnqRBZe2CFvamPzQBsv35rDRx6zCl++chh/NDaDR3f3IO+1MaMpOqkL8M5DCd69v4k6c+MxDMkkaTICFlA73pDJ2CybReeU0SRxsuyuVqfwZyn4yURzxNQnlKcyy7xSBEJtR2UURJ3VUY7Oi/qanUIhM04FjrAnCsz27YZf6p6aP0L2Zg62v0FjGqiATp3lmq7TImvVMuqUyDnrUXsB6o73JEWsqRfIEuYhu4jjCmtFoRSBmE4mJtuRAf36BgsNOsFUuopr9zJl3rKpEWkqeosA8Uf3TsNzN6KGCp6xoYhJ7fzg+3jt9hZSNEKHhfibmQUzhOET2Fp0Ypoy9aYD5K9BEemwhFeNaoSfDLTdwSKjgJy2YDrNEtDpWPm06adMunTg1I2IZd8etDFPput0KpipaNsthnOstSigfdHRuTVqj5blCXRYl+rpYJUYwNah96bPV4ELCghJArR7Tbu0n1/4WKANOIyADKCqXdSWrHfNOVQ0oVVc9yyU8cn9Ie89QQcyjWdNLOIj5zt4x3YPk6kKjtLp7Cq4+LPrZnEozJGNrYBDHciTOLRTLFCH9yVBJ9rSmaUYWQ0RlGYQpA7hokKCx9J+Lx4KeseAiwuHgEfQhC8cSXDBSBsXj/D3go9HDPs4f9jGRcNdPGIg5vk2f3Nw3qiHqzLAZQXg0iLwpKDGe8ZoUW01eOWGmpX5w2J0+5TEYSUJAOgOLVLweqqAL0w18Kc37MdHb78XjbZ4iOg6lZygpp080l6HYaHCzToaiTq0PcSFAqJCjuFJAznS1avGXFxN4pRWvN5VWAtcMOHjlRdvwJX5BFF1BrWhIka1BIwg+7u37sf/PRjjJd/Zg1ptzLAGP0UlXtiNa9atxS+fdRHOIWNpk/JoYqe4y1PH1mByYAHD8TSBtEQlYJDn5TEQZZDTvDqFuzROHQ4b0mMj2TSYKs/bUW/iG0em8epbduEzR5v0mDQW6gdzK4s2NaipEieTsEXjIl0WxsjRakqjTTaVcrMEg8B0ZCt4lA8ey7t49vb1+O3HXYSf3bQam5szdDZVtKMu7jg4g8NUZDPHj3Vqumukr6dbCGTK+8aEdcN7dsmUvrdQNWFMVkuXmJGYIGm6EhQNkPXHpG1ilKafiuClEUfNsatpySFBJ+CpNdbLLlr8TLsNJ5fGBK+jHsNheKapPmJCNr2uODmREedNrMJYu0w7TWF/uYQyb5UTcvM+9y11sZeAlSeryVlNXEEGF+phGkxk64o8hhMyAC+D+ek2btdGh2SXarsZlmn/dAn1qI1htsnZE8O8huUiu+1x+lNo4B9TQjLitnYbUpGXwzV1tY0WGKk0CeX5FL5yaA/GWBZaIJl5b6GAZkzL1kMCufrXxZrVTkpBuq9Xm+d2WKkDrCSXzqDGKmnR1krNNjztCKPRY573fVEaPNTvpz0btXuOb1XZttN42faz8NrzzlZrYDQf4JcuvQDrohmGV4O4cWoWH7pnRiaMJplXO2Wj0LYwz3ubaEQOla+rqbcJiVMcF/GZnYc0AdasAOPPMgrmWb3AYvQB3xPREhaS7dLhdU2W0XSzaPK+Bip5nmYzWIlCbTI9Frqb4g1pHyImJqJRN8EDyAN/+4DCmqZyK16/gdHGW64/grfdtAvfpsLNOcNIE9RUgXHShkuF8wKyMWZI2/pEZCGZZALtdA5HnHk023twMano67avxSsu2kjwqYBRLsvCQrFyBlm8ZxD9X7FlENsHHUzX5ghyZE5DK6ikHt645whmU2swOzGJdJUcrnIUTxjq4qc3j+BxgwwrmZaWyHXIPqS8dBD4/CNW4Zr1KTSy86h1yTDVX0Ila2vIvMnzGM76kUN2YSNDupRhhXpBBjUnQzbr4Pr5UbzznmmywEP4j4pWCLAiQh30jWRIJxNb01eMQhH8eL5mFUoRvi/tHq1UkjLXDP+cx99fvM7Gr1y8EkMelYkNv5flvXOOjJVgo4mfkuXZYadXiGAypp9auw612Wlk0yP42tEKWZh+1GR3vjDv2uaqyWzJLrX7jew4bGofaSF+D9xj30G1SyVi/t1UgM/tW0AjIOshW7i4MGT6cyXaIUUDYG4sIGR6VsNMrH70AFmZlcEUvfu1UwRStoHA73NH6SgZDodxC1cVUtQdXaM72r0J2StoQLSwpDWIj+8+qDEDphvhppk2jtVlVCG2ZD1sF0thqG9Jb/m2SxA83aJ6U99AD7B4P2ZbVbqikMFAu4oS23iWlTE3S/2oMl/qkqBeG07qe4zCGIXYmozOr1kXmn6l6V7aJlTg12C8YNMx2Iwibjxcx0LHRTpTQJWsNsPrjfRGjcx/pSOHJ+BT15HXPozHr07hp9eR7bF9nWrT2Najx2mn67Ns8zrzUcCXFhr4m7vorO0MS2GzXBqUMVlluoJt4HK2TW8aygj+fbqJo7y9mom+3cxdNDNKQtojwzY2gYne1MAWMcAj2ZHWm3UFKufxvLKMFaZzA1VhP++m6ExzwNV0bVXGA4hJ9pSE4eUU7/q+HU288ab9+HQ5xj53ENVOGsNZhUH0PMyFjFJd8VV6oho9d+znEAzwd/Jet1rH2ckCfnVbFn98+Wo8f7WDAeagrc5n/jfIrz+NFoKwgqesyuPF563GBX4TRwZt1BlWNUmRL/G11GcO6bgMK93AtlQKv3PR2biUVFlLhVUqzfLXdvTm+ZR+TC8O/P6mSfzLeReRCfqY7+7HPObIGn1001kSF56QkM9pnVONSlhtIa01kGwwz04x9BnB4W4WH5wv46137sTf75w29aGQyopIg04iWvGp4QnpV4Z/FDi3yS3rbBgts1VLidAJNFgJbFHGhbxqBZXn6pUprBjUE8AYfOfHcIToQvgzc2FDAsQyUTi9Qi1LEaAvoLKvI3g3Agv7yPC+coSVIEbfKbMJyUZocOqYl8dV9bAkrOM08+qY6FlNrOGDfKhOfAsH+f6Le0tIZTUdomQ2nBXg6EyNZCuYMwWUMTNszjNd7TrTZR20cll86tAR6g4rkDf6QrWCojWCMGjiZSvHqAHiCAx/eC35DZ65fZRsKUQhmMR181Xs14RCAvQ3jzUQellknBhXTAyAfhSxttyXp6Je69k0p13ITlyxHlUYRZsxqExr8jbDvxzrtIiklsPnpsokr0X6DYdhXW+j2Jqv4RHT+2fYmobDettgseBqCNYj3Q3fk+Hy40f2HcRCQlZLRt2u1sjANDWNIrq3LAZUmJYm0Ac+o7O1g3jdBSuxOsUz3Rr1WKG4MVu87JwxXD2YxshgHrO08786tIjryjSnVoCm52KI0ZVqMGRdBmyTC9dksIVfNBklzHojZu8/bXUl/NcwqQiUyTv/K8qQJeizqkY5lLl4ujGzYsUhnJgkyyvgb797GG/67O149w33mc2Xje3zup5L+WE55VadooL95Xf24X27DuC+oIiaXcCAP4TR3CAWFuaoLKLONpFbRkwq6meo9HkWwEJ5roSCO4UXryzizzdtx2+uXQviH02b3pal0dbVsaMt3NVYvJk2cqNbVkU9ecTCGxgCT7bnaTw1MjFSZrKflWRl4dwhbPDbeNNjN2FzTnPFtHd/RKVQU7JoJrbUwIQajKyKxnPxKPCBc1bhvWdtxgWFGAv8F1HjmqyfBoEwzGbRyVKl6IpEpbXEKaV1m90ysmQpbncA++qDeP9ehvw02r3Mv6dRy5NIELGRlC0dWsvJz4OmWUJUqahtGrgao8gqUK+OOdkhFJINZelINN1Ao2/HpyBIxY+LCSlOt2gPPaPqwEvoaObqhxheZPHP+w7gNuqqNrUwzwsJqao0Jg0KxWRVoUYSJQp5+KIyOiWVaxgVAuKHb5nCEg3bXZzDBYMBLiRFU1I9s5LQwlQ+YwtsJKZ9yYiLyW6LvsrHvYzhavz6dhLJQ6TSWpa3fSAwW3iZVRv8qx4Ctiy2Mbw6r+DSKEOU08O4kxnSFvl3zjEtAs9Ksr3HagkE82zRofZouozn9FdwFAtoeD8WVyG+9sHUbTXV8Klb18BequAYdeTztTZuMLPAqUPq79UcGJq6US1ebroYjBH16p3kjd/r4Zl5xHSw/7hnFjeSNlmM1JLFMtYMDTJCMhcxyeXrBKC8r4BPOyFlgxRee856M4+P/Aot9fuwLtWY4mEpu4x3np/BqLVoHi1QtydJkA7hTnrzjDw6dVgW0iGIapdsLaN8Fp1clgggK//MnsPYtdhUE5udlBzNrNAgW9A282gZ4DIzmvKlW2plED9r+FjPLlE/Lm3lq0S7L00nKA+uw+37Z5hPiu2ZroAHE+niKcl7djVIKT3T+e7EAVZYKaTKdZQWpuGOZ413kGEq/vZ9xuo0WK80jzVkRVeNpPE752TwmkvyOF/TVdheNsNLdTSbmWQEPrEESwYvPVOuAvpqVuQgPddVwy7etXU1xrtLKBZz2EkAHCh3sWm4iN+7cgseyXaARQXutMgq9AgiVhG/S9I28U9L8tVxq0TV58AQINXGk9cE+Pj5G/HmDRuQdRRLTNEzlVB1aUxa3UEwDdM0YD8iOJIB+g1EHa39IKMM1qAZjuM/ds7ji/Ryi87Jw86UnUO9QfaqhjOdZjSyyDX9hwofpLQ+wdpMoFYs06IHZB2HdAxl0tlpKr3ZPXlpCpOZXl+UcEXTEKQHp12oZKRiZAnA1bSCi4bZRLUK7mVe//6OoziKATToEOGqg4eFIfAFNBxX4bniGeY1pEdX8ZGhg2EdfJa074ajJYQsw4qlGTxnywrWLX83fVA0F7a9CTv1lhdqpyDRDYcM9CmrUnAZa9dDF/+0o4GPHS4jVfdRDZfwwvExdHVh2zFrdXuuST1JCV5MVFSnvcKyf983i88eixny0rmQgV9U8M1abSmoFr+Zia2as/p9ID59YhOhBTYGe1RLyjRfMoz7Lh+38YhcG0ezddxZaeOPv70Pu3QR7VEoldMDZyhmWzWDfkyEuq6hpA51M9Q0M0LNZ6cIEFMV1Kw020WrhehYeb4GAU27sL3MK0VJQX3KbPOAv4/SwTXp3GoyXqZdZZVEvE2KzkHQq8dQ/OmVGzHmLCGgkpQ7Rbzpm7tQUUIe+bdG9mWDbQ0VdvAsUr9Lcw3kaovYuRTjz++8B3doUFZZJ7mKWbQ68UDT2lLq1qCofMppVw/30lQ2EqBFtuNNtQh/+GWyWWeAuNLGE88/x7BS3c4mAPba/4dFiHBK8rVD8zhUbmKYlHvIs9Csz9FaI2QKGbRomFrHpyoTdfdZaQPtCs5j+PFzWwt421WDeN4KXseSVT2CCBVTkUxaIEhkbpBlyTc5VLYWC9vWSCULqrlnXU36spt4wiQr97KLcFm+jRcXHJy9MsTbLluH9eLArIyYDeS4Pu+tqwy+8lDN9/rytHZY9ao8ZlRsMsF4AHjmRnrTC87GcxgKn+8zJGqxKdlALbJQMzudxYr5J9JQd8B7+Cz70iKByoHrFbF3tsrg+cGq9z9FfYQfu+cQ/nJ/A59k2x1RJ6zFAJAAqHUwvgztuOg3sl9t4XMXG/FDByuYlQelUq0KEpw9SMNnvR3fusDRhqGnW2gk2pmlwKxpSdqvblmDTXTBWXuYYWOCv71rDt8lI2ko7zaNrd0mgMiXM+ShvmjAOU/d0OjhftrqX++N8MHbD6Pu5sxOLM/dtBJPGlU9VtREpq0UFWhnm4a4F9vZDF+JEZD9PWdLEXkCUzpO4cO7juJr5RIGIzplOq2rRhku6zzN5xR8EkRN6EqgfAqZ/+QkQ7ZGB9dPL+Jf9lR5Hw8ZOr0nrhqHG9fMNuvSHw3YiDaatbSnWfQ4V+ZQGM3iL08ul02RSWtTz9dfOoZtgRhRCvexnO+/u4XrSQDmPDoEddkcF3kJjbwzNfWfSTNK/Pivezp49/f2Eeh9rGgzjGZY76UjzJVm0DCjZvcX6pZMh2klZhCQ73lKYgajBugWAkNcTOhJluFhmCShgbW8z1uu3oyJxkGM0MD30HH/5o17sN/TdBntKpSYzZCddmJ2bHnZ2gy20ga77hC+XA3wkcN1XEfbWGAzK6CXZaQ0X4XtTL/fw3XmKWIltZnno/x47VQXf/ytA1jMFZD1YqytHcErzxnGqAZaQ9mw2OkPlq8nD/ztA0i7lWDQL8BrtlGuzKKRi9EkCGky7FA3a1ifwrKWni/RquORm1fhV645Fy/cMoTVrUWyKvV4iQ2oA7TGimSzsJBdVoqNgmE8ymikuX1WzYzUGNsJAtSZbkzGdkUR+Ict6/D2R4/gHZdP4NxCB+N64DlDX3USd9WZTcBqqoOdoY1H0DJ9nTQ6lVR7m2UINl3tvMAvgriDEaeJVYM1/N6l6/CSzRtwUTaPkVgbVDoMK1JsgjRSpBGLXhYRGcIoKzRLDxgRAQ5TGQ8fmcEm3eMkMsUsfGGhjD/dvRtvun0f3rdjCgdpYSGVR31Sil21ZrJCSieHLsU9QDD57P4l/M3uPfTOVPIkxNYVg9iQ5Y8EQpveT6RKRPL0S0Kg4o1Yh1a3iWsG07hywxrkWwGi1CT+dUcF/3zjPL61m0EYz/HTekqI9kqRIbJdebh0ijP1WbzvrrvxwUMHcFQ7GhP8JlYO4UVXDKNAHTFrdeXiWS5tp6UpCwJMAaKUX5OUNJHzHBLnnOthhDp52B/AEVaCT+O8cHgUA8Q7MeMyL8/wUk1el8EIJFJ0lGedNY4MWXY1ncOOho8UQ1yfrPS8UdVxkzopM+V1yoZAQJk/zaLnSJvRXlNdCu70wpuTBeupgldSeX9xco3ZlNUPRvHp+/bjTffcgm9MV3CApwmHDGSykkzXCL9TUgfnInzz5n34yD17sdOi20/yuCAziVWFPMNQ1kqaZaVzMrc1f5UG4ZdJKGTUUxD1WmWdZtVPqGWWtJ+gyfOot21f23FpYMNDKSjjMfzutZdsRxkl1HnejcTrv9kzZ3aUsVotNElQTCc3ceCn1hRx3rphpMj0koGz8U+7j+INN+3AZ4/WSKho+nWXOOCiQqBTMwj4zMRr38cB+siP317Bx753DLdE43R22styCW943sWY1FSrDjGEDkV2b3DkAeSUd3L+2MEmQ70avIy8eJcNpVAhC49hTpPeIbbyyBGIHjfRxW9ePImXrw6wjvGYFF4PHNEzd81K3zjNcqvwqg0asPoD4ia+SOT/8x11/ME9dXx0b4LrDzJUpbKuI8hku1N0+IMmDQ1eaAWD+rlyosMEqS7T1zNXP3OwjLffOYe37a7Ti4TY3bJQYOOOKVqyyrwna0EjkKxAMzypPhPDJljJyRK2Dbp41PosxrNNzNamcYwUWo/fg7b/Zmg+kPjoNMhe8kNo0oOl6AQePeTj0etHT8r9dKeQof48CfPRcAI3t4bwiQM1XD9bwj6ykCNxGbtDG/e2PXyZ53xgZwUfvncOt8y1yGoHUZk7gBdunsAvnj2KlUbTHdOlKZxQgPNFKsw+omaLRvyEjSlsMbudmN5DnkuHI6p9AonJHrWLb2vOx/tnZwgGI6yZMn5m0xDvUWH9D9BxkQk7IdOScTnYPmAj41VxbOp2OsIJTNEevjpfw2eOtHEbGcY8NX6uaWPv3AK+ejTCu++Zx58ddHGDtQZLkYeByhSeNxzgjeeOYp38kdrGDIeQKbBcJseOR/fDdwQBj1/2ns5n0X1q1pqF649MY2FwFZlzESPhQfz2FSuwTo2hkXvWT0TW56qTiLGz6cRneltIQ2+6dw9m0yxbLoVmeQlvXdHAqjXDZDNZM0E2TYtRH5xmBGiuJLN2QtnTqOPLh5ooecO4MF3D41cyktGcJt4vsjQzk61EPTMbEZDXiAPHpLO3VS3cMFumQx7BNkYjj9qYQZoezWJ5I5966QuwFOYlWDWaRS7Vxa75I5hzMqi5a3HTMRef3tnCMXsG99a7OEww38fjG9MJ/u6+Bfz1wSV8hs67HpKxkWFfPVnD6x8zjMp0DXc2J0kAUrhoIsFlaYXIGpigLdO49tATXzfVQDWbwjDr8xVraESqA+VfrwRMKbXRe76qRHKEMsz1ZPCxW8au2UOodUdxtDxuukvOH/WRFhW1Gd+6WRoEcA7bf8XQEXz3KMtI5zrFePfrCy18dq5mHsk5y3wsLrZxhLZ4e83Cv88D79/fxPv2LOEbCxUoUi6kHVzdvg+vffS5rHtGfuonUXcQbcFs6KAM6uUH5JTBr5zLY2GujaklhgS5MdjZUQIgA5tKCUUazrrgMF5+wXr86tkD2EIv7EQNA/CRtJg1FtBrdESjrSqVUKpL46Vi3NLx8Pc7q/jo7sOsLLK+lqZN2NhDoL2vVqVSW7hgaJDWSeVxj49pkb0xWU+Taumll6iZf7Gzhi/umsbdSwk6mXEzj+no9Dz2z5ewt6klZINoeuqedcxzOaSAHU+hHA2LDWMxRNJ2+Nr1YlsxjbNGxlH00yZ8W2wsoplJGcDV+l9tX9+szuGsQQdP27ISW/MP3q9wXDSwMT5ewOBgDvXqAhbnj5m5Wnog5M5ahOvZ+F8/1MD1PO6dj3CsmqDW7sJjQ+b9FJ57dhFXrcrjfMadmnAuD60HF0m0JO/zRxMcoqJoMvbjV+dxli/YI6KYjIklnhj8bLaPAK3C8n90rkKQZ5jqNfH8tUPI6T4EDA3KswXpvBiGErz0hLDhkTTWrFiD7x6aQRS2WSYQmDwcUMf8gXl848AMrqci31COcYTOo8l0/PoStpJxP2NjHs/ZNoCzsjR2AdyJhBGGxiRjOlOPii2YrLPt7pmq0FGF8MsLuGIyhyetyzEwo14wHx0qiW0AU3Wha+gQFMOlHOwNA+yj/jbbTYwGPl65eRTjOYVwPJPgZwyc15vtt3p2fkLZ03bxbaJ/i6C0xavj0RPZ3lZfrDuxXyfiwcYwESZJgdosIfjdWergWwePEpsdbC7EePQqjewy7CSr1fpn1YrdIUpEBEVeu6bgY6XLCKxRw+LcNObJcFoDadx9uIXbZxPzKNjrZ5rGae5cjFBlO/lOEQP+Ubx0cjV+fuUYimTNn5yexm2LHRTZZo/QpOEC9Zs3U/b06IBDZLv/caiGJht9kJl+yTqC3wlE12lStPrttSJkpFhE3E7jyFwJi6zP3eX92Dg4jo159cf3+uC1WkqpTpKgjOaGUGTE2K3WoaWHNYb2B0ox7pgN8Z3ZCJ+fnsW3ShHuqCTYX2W56i0UiCcbM2lszWXwikeehS05TVFjXqgj8nTa39NElmoHHT8gpwx+1Ck0mZmZchV1eiZNjCyGFZyXT3D1lgm85xGrcT4LJm8pZmhpdJJNpwbXfZu0ioAgpSc8qVN8P0HrgztL+KubZ/HdcgbHrBaVrIC0XzRbmS+kPBxi+BqzMs4aG8YEgTRmqKyeET1SUQrpUqk0E/TWcoS3767iiBbda+sspt9hyFulu5nudMkAE/zbUgmZThHnMx7SJNLIjAjL09EHs7H0PFglRxrKyooxFjjYOuJjVSqHFazIQ7UmOvUyjb6FdKeO9V6CZ21ZjZ9anULRdEic2HgtAhZ1DmvyLi5aVcDGEXr0qI1yvYkGtc7FOFm9vKuYKJVfDzJyGtgyFuDCDUP4hc1pnEftT8e8F5VJVpHwnrqrJgNfN9XGodklpJMWnkJDXkfws6hE6muzacn6d0JREdg0cwy1vzh9jN6OZRwguI8PIaPwwdxPHeIaUCJQCuXYlkUmu4oad+7mIYIIHcPiHNqNFtswQDvIoJEqokGGpVU0Dsu7qtPE4wcD/Nz2lXjO+jxW+QSk5gxxWluMnUAYAuvZHpoyo63VVHIFD1PzdSwtlrCO7PZZ563DuazkwLQHs8h6VeQsxiew6drqbFdoTRBmqLv72DTCpTlsHy7i5QRhAR/tkucILJmAwkcCLGvb1POJ5AAd7Ld2TpEQhLh4yKKj0vM/pFJMhzah/mwprXBY7Mq0oUUALrexk07athrYSvC7aOUQtAWAZk7o6IER/8pueG2WOrqNTvdChozD+QydQYQ6SULLosO3UwwRXVRpEwlDgjwzvd53cHbaxS9cOIhr1gcmahDg3DqziJuWqua5zS9aM4o1OeaNZZWWJASlKRKxWw6VkDC6mqQuPX+DtPfBRXUcMbKK+UblHiFZWV/M0DG1cLg+jbLTwmXjwzi7oFomHrA9bOqQw7Jl2HYXkECcM5in3QWMWJuoE9xiP0DdCzDDyLJTGGMY7aPRaMOq17Da6eBR43na4BietTXAZiYr4NNDjowyE2vUwSYLV6FUjz8op/z0Ng3tLLBSvlsKcVeZITCBZTJFVjaYMdQ1SzAU1ezSgr7fX0fRtDnNuSmgzq+yhqbeuAh85J5ppsNGDvKgvSJP0KnR48TMdNQoo5AdZOXYyNem8KwLV+N1m+jp+S+DwIRzWtGkOWWLDF0/sOMQ/vxgwJBAHbEstDwI8+exItVvpD3dFLa0nSouHUrjtetX4spedMV06OXZYE7M85imNlvUw84HtVJBz7rgOQss2hfp1WeqpNmk31nPw9nDQ7hkkl5LtartfkTjTyAxKbwxIPOnQ0/v4gjTva9ExlYm2wvJbMhCLILbUOBiJb3hxoyPrQMFTLBVLVWqRl+E+iojmYKq2HR1U0Gva/lkjRWT9s+cM4S1ugfD/g6VX7Zjbnsikc5QgbTd/j/MkvmVbKweD/DMITIH3jLuhtCml3JoUl+zokr5kUVqzTbDIE1o0Grbexma3D1dxlGyPz0gyiEIDlhNrM5nccGYR6ZHI1bmNVwoNGC6J8ug7qRLDJEVE2KbdagvN8/GuHO2jlwnweMvGMCE4IZOGdpVyOSUSWv0mcCdMPw0E3+tvNnV+drdJSzRyC5YN4kn6wkByo7OFTvU9CjqsmINqfP9hhQeULSu9R/vmKWR580GHE8YplslQ24zPUtTPBgtOGbYmuoS60FQaseU2YBXmzS06PzPobO5ciRLHSfyUJO/n3/94XWdjpw/jV/zKpmjBvM2y8xNlbTJLKOIdgMLYYs10CHTc7ChkDbAvp66Piq85e21dlkVeU/Lxb8w2hjwY/zsxhzGVLm6kSqB95pm2p/eRcdMQFwz6OO5GnU5kYQx7SckB3DhRRHsmErL+91C0/j8/v0IGHk9fXwA29UZa2vupLqaWErZIG3OrFahrpBAm7a5j0BxH1njLBmuNmRoL+Tg02YKWReTdJ4bBl3oOeuyP59nmCfWGVLARPmd2k0zT/RBE6jlv39QTh38GqzhdAZterCSUSCb4YUGDXgzHhU2cE46o3YTIDAvAiijPqyMspfCHfztYztmccNhvvFGTUdqIyohVXAwQBCYYjgS5ei1lhYw7g6QxeQQt+Zx6bkj+MuzUwynmkgznNVaRDEazcCfYrj2jpv34iszQywsgUvskKxO0WxXowasFI3/NgkqqbRHT9Km4rXw1KECXrN6FJvkLphXQi8iMimWyIwYGzAQy0onZp5gNkmbmeYaORNDkh/URpc9VNOXJw4LVMuyc7YjEZYaofiHSixk0kCNTEFtpUFd3VqnqcdOj9cU0zHmF2ngh7/xsl7fEb9lHWr5V0h3u8Tc69oRXRvqHmnWk416u4PcyVYpGOVnu7DsJYKKElLfdJ5tLcanUfmIr20WXikxCyy2LuKJLAqaGqjgdby2mxB0aQSqRnMGC6OVgFleJPAxQ3e6iLqk8mhFiKaNnUhC3ithgil5MYJAT6M9goaHBdarx4qjX6NDZNoxP7gp3tszda7sCcE0/UkrHswNgzS0wk31PMQCGTDXBxVOVqnKNeDX+/ok2aPUMIucUjcMZDBhvShsVh75WSPf2j5NqtKLYHgD6TEzN72cRz0b2rBWA+78jXeVCsvfddi6Gv1UBsUH4ygmcOi5LxQyqG5aTMcU0+RXIqAM2D6mzB0ya82cIIurG+ANzMC5QsKI9pDTEJHRT11NPaDuzLO+lT9NEDczJE4kwgG2SYc2qUebGgPlNepa1/6McsAD/NrosupXZeGLVjSJEI0yIjDM2IzuCrhUZ4JxwRijDSK30X1+r9wrNwb0zOCGbJBIyMKoW8awPRqcunKEUyYxZecH5JTBT2tlXYU93RbvoQwx1yqZnonJSkoCfqcS0iNLYXpKQ29LQ9CQ89sPtnHTjr042CTTKjLE0+6tKhQzFTVrZj++JTIJv0DjaVZYPzSMOEChU8Pjt0/inRu16FuDJvSirAGzlx2PBSrAO+6cxTcOk1uyElrdBqyUTVwhM9JyHtZLig1pk521FCby/C4rv2aVMJRv4cUrJ/DzE0MoMow1qKaaPV4j9CRSDG14oEnJsKnWZgsrNY723pCqK/h2qDpqjhNJHYk0ydL5NEp+E2ptJd+4BMFmuIB0usC0NSuR6TM7yhJPNvnRPrL6ThdKCZRFNbUvhdH30ICOtIsHJWHoaadJsbQqhJ97355ATIJkTHqNSYNYbwiokJYW0OfganSFbcVaMOmptHI2ggfDBzUKSP0wGTYZpQYYQ9JnvtCEzEW0uHZcM9NItAW5NsrSzyIEJ5blUuhko7LKG9O2cuYX6XaXTEuP1tQ9VYf6NuJ3vjaTYHlUh0bKZdo286OLlGXqCRiym/fLorl2Ko/JOuV+Pz2wdMhXXDlAgT/z0CZDI8CKzbSYSJMJsFZ7ukt9kpXY2jZGOqesymB0ExmzAEKehxnsEqikZcAii0397WjHcd6DaSqS1kAVtRS+mI+Kbry+0uTBm9Fl8FfxREZMKgxtSAOUrpMy4anZjCJpMkJL9wYKxOYT6hJZlmkVORk9ZdBimHMiUZlNejyfrFNTi2ICYUZpSmnULjy0TsMmJljCDSXNYmrJrBpIOwapScI2y2NAUJ8oKperBaG6pMfETetShxzpu36gswmF5LRxQZqcmUvHY0T1qgt+QB7gqwcRKoJpH4aCth4KQgYmI9aQmnlGCBspJJ1VQzitppmwq2GNDx1r4Zpv3oF/2llGLb8RowNr4FAxQruOZqrFhmiZ4XNtpd0lVXRqLFRHO6/49AqEOsdH3jA41YEWO/fE5CbubbCZIiAxNekdSxxoHiVaTakXlV/z8kgL4qxvgEbrfbWI2iertBdz+LddFfzUHYdwI8O8KX7fYF3qqXKh12HISMC3NdUl32MyAgCG4ppAmbBhVedSUEv5O5no8V10Ej3INrZIcKJCMlSXoqY9DeqQpfI8OX/pr3alqFMHtHhfflB2InXQYnwG/lQWnsgyKVvmKWzKh+iWFD1DTyhFZB0Z3TqZ6FTWppi90QpVbEdMWgrJL7RqnLeTwSg7vVM0/VdOTBNptdsKiym2IIVUOlQ+816GzBf5ZE1BcxkaBq6evtab+3Uck04shCM1vipdSs58ybCVKdmV0k4MqKiGPIMfPZ0XjPEEftalqnez1lFfqBAGJJg56m6XwEA17E0EWAY+AZnSOak4etIcDa9B50sDtFKEOjkDJqL6V261HbvaRLnWxl7mYVQmvNY3FJ6oJ53FWphvHFmvj1AloBWw3TMkIL3a4i1MAdVmZkI2bUCEwlznyiXRPVOJtPDfYg1T7en85bKpa5aAr4uq3UAsZY7zPI9OTtkQe/IFeqwXDYKRhHSTk7cQLZrX8hqCvYi3aQW2fWIagvdwmT7zZNi48shTu8ZRRQyu9EQOEQLaRkK+SyDukrw0ww5q1Ds93saAqdqVKZPa8DqWyaL2sIyKnDT/0WHdaHK89kbUBhoSrc/prQ3+YTn1sNdQS96QZVG3iMQ0ABsvYmldhw2jfj9WXouF+/pCnSHuDG5a8NAIJjBByl1KWmhpygvbyks6RhnUQap5XMNhgSyLnpJphs0yvWaK93IwFlVw1Zoc3nreABq8TorISJT3YX4InGW7iHfcPouPz9XhszI0L8hieKEZ8yFZauQwb2kbUYkMiECo/eK0BMcmUJAULDcGgTbYj6evGMXPTBbxSMUfZJC6TSPJwKMXlNFkWW5Hb1T+FA2NXlGjngbNThz1GuDoGZvuqW4D+TDeR2DF6zu+2dvYNK1Jn2dBj9wzCqIb6FcahaEvUqiesmlShhyrktZ8MIk2A9DpRmU1bEuFNMeJhOVq84ISb57nxTrbp8UI/Ay4K09KV2/EBhS2S+lULv2mDCzfV1+Yf8yfgEQ/B9oGRsZkHtSkgz8cv0av0qUTicohJqIy69YyVuiJwGSPTLdFRqk1QxLlPWHo6Gheot7zJnaDV2QI0PxM0yJj7rKe1K4yOdVsu7eeVmAtA+JfZSmko9ZuPL1yPbiotzXPw+AYz9Wji1Ma+FM9CISYFVd9nPwfsaHqzK1MNaAT1SCMHg7eZl0rf7q3uqStFis3IAjQ6NKa/KkGZTra8l5mq4fJSxWUplnGbn7WX+olv/R0gdqO5+hyn/fS9WWWUXWUEcskiakrb6IqkaaukcQw/+JoadqRmkmsVaH8iUR7BUbNEHmfZ6oO1OgsSMh0tGmDnJzsTexS2dbWXZqzKe1NsSxJSDKi5uP3HeKJVi79Z6Uz8BV5MMKEiRlG/5Y/Hj9UFVIt+ROdossrLKNGfQdNrf5XOfWwl4e5XEqlOR/KnKEcFL0kxH4qyU2013+8p4EbZkr8TDyPWvC1AsOeRCnQTrnAYD2PAhPspBuYy3TMfLDxsIusJswq525oQKzpppCNK3j+miH8zrkBlYdeiK0mb6gmdi3S9W4av3vnEj53VDl8cNH253oYj02A1MNf1N+YSFMJLh0emTCPMo0l6zQIgh5etnkEG1lMTYyGJToqdexLX/rycJHjcHpSEQ5//2R11AmUdQgR+bFM4PvQnVP406/fjZuPzfC3FNIRoZxMpeUzJAs1UkvnRXivaTIjAafEEKBQ87Ctpt6Q0yt+d5jeI4su3ZoTy+OSasvj0F1EET1Tewl2q4GIHuaW/SW86wvfw2f21M3zIown60tf+vKwkh8J/AzeqR9Db3ilnjUgNipa/KF9wCemGriJYc1sSvOPPKRizwwwKDiJB9Ow2jH8UhsDsY+COlgZwmhER91Jp1saKY2MuUi1HfgMBfSgmxbDjBQZ5qpmhiFKC0M+mWXoYn8zwNfrHj6yfxbfnCI69llfX/rysJNTBj8zUkSQOg5+6rzUA0rU5TNdreGDtx7ArrYLb2iFWXvX7DQYKjMU1Tw6RuO1Wgitqc0EOYarjCUrMyh0lpDLdzHrMaw8zTIcHiGAL6LOOHYpIBtNCIZND26DkKg5SomjyJ0humWeKBatWI1bWhY+dc8hjXX1pS99eZjJKYPfcelNZyAOmukM6tAE5pdKCPNZBG6AdK0Nv9GAE0Tm6UqtpIKMFWHQLRAUAywELcy6cxhIlfHMjWN43pZVmOhqJtTplTecO4EnrXbh877VTgVe18OgXzQjf0ezHVTcAbSiLgYCB+lYe4tFaGcyOEIAPHT6s9eXvvTlIZZTB7/l0RPzStFoij4qATvpIrBjFEkPi3EHOQ1dq1/QJUgmGmxPUEm3UW3NIt9ZxBNX5/BrF2/Cr547iqvG0FuydZrlyWsyeM1Zq/C769fiGQMp5nceB3EMswRoN+2YXVO8HFmp5kY1qgg0m75DRtisnnSgtC996cv/Pjl18OsRvp4Q+LTJocYCNPo+NjAEr1ZBs1lDy2Yo7AQMKR0E7QCenUVI9PDqh/GorItfXbMav79tFM+ayCLLMLOyBMw8BCMKx0oLWMfMvnh1gN87bwTPXhFivb+AgaiKQotlCbUxfBulFlmfo30BM8g0I6wKOhjvg19f+vKwkx857MXyzBgzOyruPdRmvJjDlRdsQbqQwZzCRVeTKDNItwJo+6pG18drNm7F26/YgldtLGK9SaKMrlM1a/l8/ySL2n8CUvCGUSLItvwG1hcqeMu5G/H+iy/EsyY3ohklKPoh2s0KEs9HfngN31uYyBXw1Eu3YdwswOlLX/rycJIfjfnp0Gx4swzMhuNomTvBi8drNwAvIJvbwJBXy8EW0yE61lE8d7KBTz9+GK8+O8GEaKKrufghQq3Fc/NIxVriHCOFDLqxrUcmQFucR45jNjnQbHWbgNS7k7LAEFlLrkgWNS9cUw47VsuE4Wbuozmzd5jQXAvLeWhv3owjtprhdXkzP3fbIPB724GvPCqFFd08xjQ9R2sUS7M4u7uAl2/I4gnMdIzTD8596UtfHlo59RUeJxOiUZXgtbMK7Kv2klyds3BWHhjSIlUnRqypL1ZC4NFwggftMfn1xTZ+/eZ5hPwtFXlmgX6ih3CHDuoE2nxcwYtWD+N3zkszdCYgpttwbKd3PWFM6yR++85pfOmwkLknKtLxgRmJ3n/50UUM5bUUS4VOTNiuXGoOc70VoZzysG8RmKsQSF0HE1kP5xIcizqhWgIG+aEvfenLw0Z+9LD3wYRMKe/XcPFwB89bDTx3DXDFaAdDKa2O6IWNYlvHxbwl+giEDDNLImhjBP43olWAgi8BlfajMzubaU1n70cz9UbrLjXoLIZnvibo3f+QCPiOA6FJj0fvd61+7C1/zxL41qKCK4cqeNo64CmrLFw0mKAglqlldLnesqm+9KUvDx+5Hxz9eNL0htCyfIagZF3anMsJoX24qmRoFbPqUSO/5qU3Z3D51dfaUYKf2JbW/AmY9BxRbWOjbcsDsr/AdoV3ZtGmWJ8RhscCRS3f9HnOcbCTHAe74yCopWz28tQciaJp85tCXIoBRL3yHO31rA0DtA2inrRW7/IbL2vO60tf+vLwkZ8Y+KX1zISOz1DWI7BoNwrtJeEjnwQoMKTVfhtaJN2jX73F5Ab0+K4bkeURCQVIHQKfwEqgpl1etWN0wu96TwLrgZRQtLfbje7Dj1Hn+wyvxx6Z6vLn4+AXxz0mqQL3ztP1WvKu+yov2nl3AF6YRdAJkEq0P6GHdGL19nrrS1/68rCSnxj4mdnOwqeYzE9gQoAxSKXvOnpLELnf3Qz7I/h5Oo+vAkdtP5MQiRQKC8C6BL64rU0OtD0hL9ap/Geu1x8BH+8b1pu975TWshx/r1dz6FxeSqjjt700BK78xbzXE9T0rfZP6yUsxNP+cExDc3r60pe+PKzkJwd+GT3cu4mO9vSze1twR1aMyAvRDTRq8ABCNMwEQMpXn9oyqAmohHMMQZMOU2FIO1jUxgf/CWzmBAnDVr0bHBgw1x1neTr0Xt9paxyf6afSvgFf/WaongDOILDCZx4Mqdt21zxbICLt1DbxZu2y1UbDqpvz+tKXvjx85CcGftplWU+c0kaC2h9Rh/arEzw1zEpgba7IEwU+FOKSkXQKyGUyvNYxbI/xp/le4KU+vUw2hZHR5ZN7P/VEaWlzSLKyTRv+cyT2/gAo8HNdF57nIUPwUyoa4zUA2DvZfCcM9Mku02HXPM/Vi3kdX+0OgZMgnuHfvvSlLw8v+clNdTkF0a0MqPU63IzoQc06nnzzrHliVCM7BkvP+Z2dwjZU8DPbV+GaLXmsWD7/weSltx3DjqkK5u0htAOCYauBweYCLpvw8bRLVuG5ffzqS1/6cj/5Hwc/DUR0yOBurQX4+s5j+O7MPBpBCqsGc3jsikE8ZSzde0KaJkifQPS82X/f3cAXpmexOwqR9lxcksvgGSODeOQkLz7J9X3pS1/OLHlIwU9y/HYKSe8vZlyEf/SqkVxtMpriqx6IiE6V4a2eSfbgovEWhdXmcah8r30V1JfXm9DMNE66z3xf+tKXM0kecvB7UGnWgOVHOQq1ok5IANNYrAYoiGj2iXd77nbqsBzGtppPo9nUiToeea0eTMM0LPPsrL70pS996clDBn66zQ+yvft/p4f6JLH4m5hfbyKzVugSvRDGCYL7z5N5INHMFJ4e2lo5bB5ZY3ad8flqaTLzya7vS1/6ckbJ/zj4Hb/9Ahlfiq95fRSQLeeqE/QennSyNRZ6epa69XwSvuUZLMJNNAmIeiLWcO+bvvSlL30x8j8e9h6/vaUncYu58YX4JdwyYKYd780XQsYTiE4RT9QsFpG8OEoQRTFSAUNpYW6f+PWlL325n/w/M+ChZ3W62i6Loi3y9bOWnmlyn/7ZJ+V+NZ7tEAR1lXn6rQFDA6oJ01F/Yl/60pe+LMv/OwMefelLX/ryEEo/GOxLX/pyRkof/PrSl76ckdIHv770pS9npPTBry996csZKX3w60tf+nJGSh/8+tKXvpyR0ge/vvSlL2ek9MGvL33pyxkpffDrS1/6ckZKH/z60pe+nJHSB7++9KUvZ6T0wa8vfenLGSjA/w8SpO1VYXRmxgAAAABJRU5ErkJggg==;" vertex="1" parent="1">
          <mxGeometry x="2270" y="760" width="319" height="107" as="geometry" />
        </mxCell>
        <mxCell id="vmprMbfdOw0M2ss2T3Eb-11" value="&lt;h1&gt;&lt;font face=&quot;Verdana&quot; size=&quot;1&quot; style=&quot;&quot;&gt;&lt;b style=&quot;font-size: 21px;&quot;&gt;ETL&lt;/b&gt;&lt;/font&gt;&lt;/h1&gt;" style="text;html=1;align=center;verticalAlign=middle;resizable=0;points=[];autosize=1;strokeColor=none;fillColor=none;" vertex="1" parent="1">
          <mxGeometry x="1347.38" y="788" width="70" height="70" as="geometry" />
        </mxCell>
        <mxCell id="vmprMbfdOw0M2ss2T3Eb-16" value="&lt;h1&gt;Target Data&lt;/h1&gt;" style="text;html=1;align=center;verticalAlign=middle;resizable=0;points=[];autosize=1;strokeColor=none;fillColor=none;" vertex="1" parent="1">
          <mxGeometry x="2345" y="910" width="150" height="70" as="geometry" />
        </mxCell>
        <mxCell id="vmprMbfdOw0M2ss2T3Eb-20" value="" style="image;aspect=fixed;html=1;points=[];align=center;fontSize=12;image=img/lib/azure2/analytics/Azure_Databricks.svg;" vertex="1" parent="1">
          <mxGeometry x="1341.74" y="692" width="81.27" height="88" as="geometry" />
        </mxCell>
        <mxCell id="vmprMbfdOw0M2ss2T3Eb-53" style="edgeStyle=orthogonalEdgeStyle;rounded=0;orthogonalLoop=1;jettySize=auto;html=1;" edge="1" parent="1" source="vmprMbfdOw0M2ss2T3Eb-22" target="vmprMbfdOw0M2ss2T3Eb-8">
          <mxGeometry relative="1" as="geometry" />
        </mxCell>
        <mxCell id="vmprMbfdOw0M2ss2T3Eb-22" value="&lt;h2&gt;&lt;b&gt;Song Data&lt;/b&gt;&lt;/h2&gt;" style="shape=cylinder3;whiteSpace=wrap;html=1;boundedLbl=1;backgroundOutline=1;size=15;" vertex="1" parent="1">
          <mxGeometry x="750" y="1020" width="190" height="150" as="geometry" />
        </mxCell>
        <mxCell id="vmprMbfdOw0M2ss2T3Eb-25" value="&lt;h3&gt;&lt;b&gt;Songs Dim Table&lt;/b&gt;&lt;/h3&gt;" style="shape=cylinder3;whiteSpace=wrap;html=1;boundedLbl=1;backgroundOutline=1;size=15;" vertex="1" parent="1">
          <mxGeometry x="1321.38" y="987" width="122" height="80" as="geometry" />
        </mxCell>
        <mxCell id="vmprMbfdOw0M2ss2T3Eb-29" value="&lt;h2&gt;New Dimension Model&lt;/h2&gt;" style="shape=cylinder3;whiteSpace=wrap;html=1;boundedLbl=1;backgroundOutline=1;size=15;" vertex="1" parent="1">
          <mxGeometry x="2307.5" y="1070" width="225" height="220" as="geometry" />
        </mxCell>
        <mxCell id="vmprMbfdOw0M2ss2T3Eb-54" style="edgeStyle=orthogonalEdgeStyle;rounded=0;orthogonalLoop=1;jettySize=auto;html=1;" edge="1" parent="1" source="vmprMbfdOw0M2ss2T3Eb-30" target="vmprMbfdOw0M2ss2T3Eb-8">
          <mxGeometry relative="1" as="geometry" />
        </mxCell>
        <mxCell id="vmprMbfdOw0M2ss2T3Eb-30" value="&lt;h2&gt;&lt;b&gt;Log Data&lt;/b&gt;&lt;/h2&gt;" style="shape=cylinder3;whiteSpace=wrap;html=1;boundedLbl=1;backgroundOutline=1;size=15;" vertex="1" parent="1">
          <mxGeometry x="750" y="1200" width="190" height="150" as="geometry" />
        </mxCell>
        <mxCell id="vmprMbfdOw0M2ss2T3Eb-61" style="edgeStyle=orthogonalEdgeStyle;rounded=0;orthogonalLoop=1;jettySize=auto;html=1;" edge="1" parent="1" source="vmprMbfdOw0M2ss2T3Eb-31" target="vmprMbfdOw0M2ss2T3Eb-45">
          <mxGeometry relative="1" as="geometry" />
        </mxCell>
        <mxCell id="vmprMbfdOw0M2ss2T3Eb-31" value="&lt;h3&gt;&lt;b&gt;&amp;nbsp;Time Dim Table&lt;/b&gt;&lt;/h3&gt;" style="shape=cylinder3;whiteSpace=wrap;html=1;boundedLbl=1;backgroundOutline=1;size=15;" vertex="1" parent="1">
          <mxGeometry x="1321.38" y="1077" width="122" height="80" as="geometry" />
        </mxCell>
        <mxCell id="vmprMbfdOw0M2ss2T3Eb-62" style="edgeStyle=orthogonalEdgeStyle;rounded=0;orthogonalLoop=1;jettySize=auto;html=1;" edge="1" parent="1" source="vmprMbfdOw0M2ss2T3Eb-32" target="vmprMbfdOw0M2ss2T3Eb-46">
          <mxGeometry relative="1" as="geometry" />
        </mxCell>
        <mxCell id="vmprMbfdOw0M2ss2T3Eb-32" value="&lt;h3&gt;&lt;b&gt;User Dim Table&lt;/b&gt;&lt;/h3&gt;" style="shape=cylinder3;whiteSpace=wrap;html=1;boundedLbl=1;backgroundOutline=1;size=15;" vertex="1" parent="1">
          <mxGeometry x="1321.38" y="1167" width="122" height="80" as="geometry" />
        </mxCell>
        <mxCell id="vmprMbfdOw0M2ss2T3Eb-64" style="edgeStyle=orthogonalEdgeStyle;rounded=0;orthogonalLoop=1;jettySize=auto;html=1;" edge="1" parent="1" source="vmprMbfdOw0M2ss2T3Eb-33" target="vmprMbfdOw0M2ss2T3Eb-47">
          <mxGeometry relative="1" as="geometry" />
        </mxCell>
        <mxCell id="vmprMbfdOw0M2ss2T3Eb-33" value="&lt;h3&gt;&lt;b&gt;Artist Dim Table&lt;/b&gt;&lt;/h3&gt;" style="shape=cylinder3;whiteSpace=wrap;html=1;boundedLbl=1;backgroundOutline=1;size=15;" vertex="1" parent="1">
          <mxGeometry x="1321.38" y="1257" width="122" height="80" as="geometry" />
        </mxCell>
        <mxCell id="vmprMbfdOw0M2ss2T3Eb-34" value="&lt;h3&gt;&lt;b&gt;Songsplay Fact Table&lt;/b&gt;&lt;/h3&gt;" style="shape=cylinder3;whiteSpace=wrap;html=1;boundedLbl=1;backgroundOutline=1;size=15;" vertex="1" parent="1">
          <mxGeometry x="1321.38" y="1357" width="122" height="140" as="geometry" />
        </mxCell>
        <mxCell id="vmprMbfdOw0M2ss2T3Eb-38" value="" style="sketch=0;points=[[0,0,0],[0.25,0,0],[0.5,0,0],[0.75,0,0],[1,0,0],[0,1,0],[0.25,1,0],[0.5,1,0],[0.75,1,0],[1,1,0],[0,0.25,0],[0,0.5,0],[0,0.75,0],[1,0.25,0],[1,0.5,0],[1,0.75,0]];outlineConnect=0;fontColor=#232F3E;fillColor=#7AA116;strokeColor=#ffffff;dashed=0;verticalLabelPosition=bottom;verticalAlign=top;align=center;html=1;fontSize=12;fontStyle=0;aspect=fixed;shape=mxgraph.aws4.resourceIcon;resIcon=mxgraph.aws4.s3;" vertex="1" parent="1">
          <mxGeometry x="1772" y="855" width="78" height="78" as="geometry" />
        </mxCell>
        <mxCell id="vmprMbfdOw0M2ss2T3Eb-39" value="&lt;font style=&quot;font-size: 15px;&quot;&gt;&lt;b&gt;JSON&lt;/b&gt;&lt;/font&gt;" style="text;html=1;align=center;verticalAlign=middle;resizable=0;points=[];autosize=1;strokeColor=none;fillColor=none;" vertex="1" parent="1">
          <mxGeometry x="289" y="1038" width="60" height="30" as="geometry" />
        </mxCell>
        <mxCell id="vmprMbfdOw0M2ss2T3Eb-40" value="" style="sketch=0;points=[[0,0,0],[0.25,0,0],[0.5,0,0],[0.75,0,0],[1,0,0],[0,1,0],[0.25,1,0],[0.5,1,0],[0.75,1,0],[1,1,0],[0,0.25,0],[0,0.5,0],[0,0.75,0],[1,0.25,0],[1,0.5,0],[1,0.75,0]];outlineConnect=0;fontColor=#232F3E;fillColor=#7AA116;strokeColor=#ffffff;dashed=0;verticalLabelPosition=bottom;verticalAlign=top;align=center;html=1;fontSize=12;fontStyle=0;aspect=fixed;shape=mxgraph.aws4.resourceIcon;resIcon=mxgraph.aws4.s3;" vertex="1" parent="1">
          <mxGeometry x="800" y="890" width="78" height="78" as="geometry" />
        </mxCell>
        <mxCell id="vmprMbfdOw0M2ss2T3Eb-41" value="&lt;b&gt;S3 Raw JSON&lt;/b&gt;" style="text;html=1;align=center;verticalAlign=middle;resizable=0;points=[];autosize=1;strokeColor=none;fillColor=none;" vertex="1" parent="1">
          <mxGeometry x="789" y="968" width="100" height="30" as="geometry" />
        </mxCell>
        <mxCell id="vmprMbfdOw0M2ss2T3Eb-42" value="&lt;b&gt;S3 Transformed Parquet&lt;/b&gt;" style="text;html=1;align=center;verticalAlign=middle;resizable=0;points=[];autosize=1;strokeColor=none;fillColor=none;" vertex="1" parent="1">
          <mxGeometry x="1731" y="933" width="160" height="30" as="geometry" />
        </mxCell>
        <mxCell id="vmprMbfdOw0M2ss2T3Eb-43" style="edgeStyle=orthogonalEdgeStyle;rounded=0;orthogonalLoop=1;jettySize=auto;html=1;entryX=0.002;entryY=0.468;entryDx=0;entryDy=0;entryPerimeter=0;" edge="1" parent="1" source="vmprMbfdOw0M2ss2T3Eb-12" target="vmprMbfdOw0M2ss2T3Eb-10">
          <mxGeometry relative="1" as="geometry" />
        </mxCell>
        <mxCell id="vmprMbfdOw0M2ss2T3Eb-44" value="&lt;h3&gt;&lt;b&gt;Songs Dim Table&lt;/b&gt;&lt;/h3&gt;" style="shape=cylinder3;whiteSpace=wrap;html=1;boundedLbl=1;backgroundOutline=1;size=15;" vertex="1" parent="1">
          <mxGeometry x="1750" y="987" width="122" height="80" as="geometry" />
        </mxCell>
        <mxCell id="vmprMbfdOw0M2ss2T3Eb-45" value="&lt;h3&gt;&lt;b&gt;&amp;nbsp;Time Dim Table&lt;/b&gt;&lt;/h3&gt;" style="shape=cylinder3;whiteSpace=wrap;html=1;boundedLbl=1;backgroundOutline=1;size=15;" vertex="1" parent="1">
          <mxGeometry x="1750" y="1077" width="122" height="80" as="geometry" />
        </mxCell>
        <mxCell id="vmprMbfdOw0M2ss2T3Eb-46" value="&lt;h3&gt;&lt;b&gt;User Dim Table&lt;/b&gt;&lt;/h3&gt;" style="shape=cylinder3;whiteSpace=wrap;html=1;boundedLbl=1;backgroundOutline=1;size=15;" vertex="1" parent="1">
          <mxGeometry x="1750" y="1167" width="122" height="80" as="geometry" />
        </mxCell>
        <mxCell id="vmprMbfdOw0M2ss2T3Eb-47" value="&lt;h3&gt;&lt;b&gt;Artist Dim Table&lt;/b&gt;&lt;/h3&gt;" style="shape=cylinder3;whiteSpace=wrap;html=1;boundedLbl=1;backgroundOutline=1;size=15;" vertex="1" parent="1">
          <mxGeometry x="1750" y="1257" width="122" height="80" as="geometry" />
        </mxCell>
        <mxCell id="vmprMbfdOw0M2ss2T3Eb-48" value="&lt;h3&gt;&lt;b&gt;Songsplay Fact Table&lt;/b&gt;&lt;/h3&gt;" style="shape=cylinder3;whiteSpace=wrap;html=1;boundedLbl=1;backgroundOutline=1;size=15;" vertex="1" parent="1">
          <mxGeometry x="1750" y="1357" width="122" height="140" as="geometry" />
        </mxCell>
        <mxCell id="vmprMbfdOw0M2ss2T3Eb-49" value="" style="shape=image;html=1;verticalAlign=top;verticalLabelPosition=bottom;labelBackgroundColor=#ffffff;imageAspect=0;aspect=fixed;image=https://cdn3.iconfinder.com/data/icons/user-interface-798/32/User_interface_music_note_song_multimumedia_ui-128.png" vertex="1" parent="1">
          <mxGeometry x="254" y="1088.5" width="128" height="128" as="geometry" />
        </mxCell>
        <mxCell id="vmprMbfdOw0M2ss2T3Eb-52" value="&lt;h2&gt;Million Song Dataset&lt;/h2&gt;" style="text;html=1;align=center;verticalAlign=middle;resizable=0;points=[];autosize=1;strokeColor=none;fillColor=none;" vertex="1" parent="1">
          <mxGeometry x="219" y="1211.5" width="200" height="60" as="geometry" />
        </mxCell>
        <mxCell id="vmprMbfdOw0M2ss2T3Eb-55" style="edgeStyle=orthogonalEdgeStyle;rounded=0;orthogonalLoop=1;jettySize=auto;html=1;entryX=0;entryY=0;entryDx=0;entryDy=52.5;entryPerimeter=0;" edge="1" parent="1" source="vmprMbfdOw0M2ss2T3Eb-8" target="vmprMbfdOw0M2ss2T3Eb-25">
          <mxGeometry relative="1" as="geometry" />
        </mxCell>
        <mxCell id="vmprMbfdOw0M2ss2T3Eb-58" style="edgeStyle=orthogonalEdgeStyle;rounded=0;orthogonalLoop=1;jettySize=auto;html=1;entryX=0;entryY=0.5;entryDx=0;entryDy=0;entryPerimeter=0;" edge="1" parent="1" source="vmprMbfdOw0M2ss2T3Eb-8" target="vmprMbfdOw0M2ss2T3Eb-33">
          <mxGeometry relative="1" as="geometry" />
        </mxCell>
        <mxCell id="vmprMbfdOw0M2ss2T3Eb-59" style="edgeStyle=orthogonalEdgeStyle;rounded=0;orthogonalLoop=1;jettySize=auto;html=1;entryX=0;entryY=0.582;entryDx=0;entryDy=0;entryPerimeter=0;" edge="1" parent="1" source="vmprMbfdOw0M2ss2T3Eb-8" target="vmprMbfdOw0M2ss2T3Eb-34">
          <mxGeometry relative="1" as="geometry" />
        </mxCell>
        <mxCell id="vmprMbfdOw0M2ss2T3Eb-60" style="edgeStyle=orthogonalEdgeStyle;rounded=0;orthogonalLoop=1;jettySize=auto;html=1;entryX=0;entryY=0.5;entryDx=0;entryDy=0;entryPerimeter=0;" edge="1" parent="1" source="vmprMbfdOw0M2ss2T3Eb-25" target="vmprMbfdOw0M2ss2T3Eb-44">
          <mxGeometry relative="1" as="geometry" />
        </mxCell>
        <mxCell id="vmprMbfdOw0M2ss2T3Eb-63" style="edgeStyle=orthogonalEdgeStyle;rounded=0;orthogonalLoop=1;jettySize=auto;html=1;entryX=0;entryY=0.5;entryDx=0;entryDy=0;entryPerimeter=0;" edge="1" parent="1" source="vmprMbfdOw0M2ss2T3Eb-34" target="vmprMbfdOw0M2ss2T3Eb-48">
          <mxGeometry relative="1" as="geometry" />
        </mxCell>
      </root>
    </mxGraphModel>
  </diagram>
</mxfile>
